<?xml version="1.0" encoding="UTF-8" standalone="no"?>
<svg
   xmlns:dc="http://purl.org/dc/elements/1.1/"
   xmlns:cc="http://creativecommons.org/ns#"
   xmlns:rdf="http://www.w3.org/1999/02/22-rdf-syntax-ns#"
   xmlns:svg="http://www.w3.org/2000/svg"
   xmlns="http://www.w3.org/2000/svg"
   xmlns:sodipodi="http://sodipodi.sourceforge.net/DTD/sodipodi-0.dtd"
   xmlns:inkscape="http://www.inkscape.org/namespaces/inkscape"
   version="1.1"
   id="Ebene_1"
   x="0px"
   y="0px"
   viewBox="0 0 501.01761 118.72056"
   xml:space="preserve"
   sodipodi:docname="trittsteinbiotope-Logo-white-2.svg"
   width="501.01761"
   height="118.72056"
   inkscape:version="1.0.2 (e86c870879, 2021-01-15, custom)"><metadata
   id="metadata47"><rdf:RDF><cc:Work
       rdf:about=""><dc:format>image/svg+xml</dc:format><dc:type
         rdf:resource="http://purl.org/dc/dcmitype/StillImage" /><dc:title></dc:title></cc:Work></rdf:RDF></metadata><defs
   id="defs45" /><sodipodi:namedview
   pagecolor="#ffffff"
   bordercolor="#666666"
   borderopacity="1"
   objecttolerance="10"
   gridtolerance="10"
   guidetolerance="10"
   inkscape:pageopacity="0"
   inkscape:pageshadow="2"
   inkscape:window-width="2880"
   inkscape:window-height="1526"
   id="namedview43"
   showgrid="false"
   inkscape:zoom="1.96875"
   inkscape:cx="252.0518"
   inkscape:cy="60.482306"
   inkscape:window-x="-11"
   inkscape:window-y="1606"
   inkscape:window-maximized="1"
   inkscape:current-layer="Ebene_1"/>
<path fill="#ffffff"
   class="st0 bubble-right"
   d="m 473.1518,56.182306 c -10.1,-13.9 -36,2.2 -47.4,-12.1 -12.5,-15.7 4.2,-37.2999998 17.6,-41.3999998 14.3,-4.3 33.9,-4.4 45.6,7 12,11.6999998 13.4,32.5999998 11.2,48.9999998 -1.1,8.8 -5.4,18.2 -15,16.3 -10.6,-2 -6.7,-15.2 -12,-18.8 z"
   id="path4" />
<g
   id="g36"
   transform="translate(-3.948199,-195.51769)">
	<g
   id="g34">
		<path fill="#ffffff"
   class="st0"
   d="m 95.2,249 c 0,-3.1 1.7,-5 5.4,-5 3.7,0 5.4,1.9 5.4,5 0,3.1 -1.7,5 -5.4,5 -3.7,0 -5.4,-1.9 -5.4,-5 z m 0.9,34.1 v -25.5 c 0,-1.1 2.2,-1.1 4.5,-1.1 2.2,0 4.4,0 4.4,1.1 v 25.5 c 0,1.1 -2.2,1.1 -4.5,1.1 -2.2,0 -4.4,0 -4.4,-1.1 z"
   id="path6" />
		<path fill="#ffffff"
   class="st0"
   d="m 115,273.9 v -9.4 h -3.9 c -1.1,0 -1.1,-1.9 -1.1,-3.9 0,-1.9 0,-3.9 1.1,-3.9 h 3.9 v -6.9 c 0,-1.1 2.3,-1.1 4.5,-1.1 2.2,0 4.5,0 4.5,1.1 v 6.9 h 5.6 c 1.1,0 1.1,1.9 1.1,3.9 0,1.9 0,3.9 -1.1,3.9 H 124 v 9.4 c 0,1.4 0.6,2.7 2.2,2.7 1.1,0 2.4,-0.3 3.6,-1 0.1,-0.1 0.3,-0.1 0.4,-0.1 0.8,0 1.4,1.3 1.9,2.9 0.4,1 0.9,2.4 0.9,3.4 0,0.5 -0.1,0.8 -0.4,1 -2.3,1.3 -4.8,1.8 -7.9,1.8 -6.5,-0.1 -9.7,-4 -9.7,-10.7 z"
   id="path8" />
		<path fill="#ffffff"
   class="st0"
   d="m 139.8,273.9 v -9.4 h -3.9 c -1.1,0 -1.1,-1.9 -1.1,-3.9 0,-1.9 0,-3.9 1.1,-3.9 h 3.9 v -6.9 c 0,-1.1 2.3,-1.1 4.5,-1.1 2.2,0 4.5,0 4.5,1.1 v 6.9 h 5.6 c 1.1,0 1.1,1.9 1.1,3.9 0,1.9 0,3.9 -1.1,3.9 h -5.6 v 9.4 c 0,1.4 0.6,2.7 2.2,2.7 1.1,0 2.4,-0.3 3.6,-1 0.1,-0.1 0.3,-0.1 0.4,-0.1 0.8,0 1.4,1.3 1.9,2.9 0.4,1 0.9,2.4 0.9,3.4 0,0.5 -0.1,0.8 -0.4,1 -2.3,1.3 -4.8,1.8 -7.9,1.8 -6.5,-0.1 -9.7,-4 -9.7,-10.7 z"
   id="path10" />
		<path fill="#ffffff"
   class="st0"
   d="m 160.8,282.4 c -0.3,-0.2 -0.5,-0.5 -0.5,-1 0,-0.8 0.4,-1.9 0.9,-3.1 0.7,-1.7 1.4,-3 2.3,-3 0.2,0 0.3,0 0.5,0.1 1.8,1 4.5,1.7 6.3,1.7 2.5,0 3.4,-0.5 3.4,-1.6 0,-1.1 -1.6,-1.5 -3.6,-2 -3.7,-0.8 -9.4,-2 -9.4,-8.5 0,-6.2 4.9,-8.8 11.6,-8.8 3.4,0 6.2,0.5 8.9,2.1 0.3,0.2 0.5,0.5 0.5,1 0,0.8 -0.4,1.9 -0.9,3.1 -0.6,1.6 -1.5,3.1 -2.4,3.1 -0.1,0 -0.3,0 -0.4,-0.1 -1.6,-0.9 -3.7,-1.7 -5.4,-1.7 -2,0 -3,0.6 -3,1.6 0,1 1.5,1.4 3.5,1.8 3.7,0.8 9.5,2.1 9.5,8.9 0,6.8 -5.7,8.6 -12.5,8.6 -3.4,-0.1 -6.6,-0.7 -9.3,-2.2 z"
   id="path12" />
		<path fill="#ffffff"
   class="st0"
   d="m 189.5,273.9 v -9.4 h -3.9 c -1.1,0 -1.1,-1.9 -1.1,-3.9 0,-1.9 0,-3.9 1.1,-3.9 h 3.9 v -6.9 c 0,-1.1 2.3,-1.1 4.5,-1.1 2.2,0 4.5,0 4.5,1.1 v 6.9 h 5.6 c 1.1,0 1.1,1.9 1.1,3.9 0,1.9 0,3.9 -1.1,3.9 h -5.6 v 9.4 c 0,1.4 0.6,2.7 2.2,2.7 1.1,0 2.4,-0.3 3.6,-1 0.1,-0.1 0.3,-0.1 0.4,-0.1 0.8,0 1.4,1.3 1.9,2.9 0.4,1 0.9,2.4 0.9,3.4 0,0.5 -0.1,0.8 -0.4,1 -2.3,1.3 -4.8,1.8 -7.9,1.8 -6.5,-0.1 -9.7,-4 -9.7,-10.7 z"
   id="path14" />
		<path fill="#ffffff"
   class="st0"
   d="m 209.8,270.2 c 0,-7.9 5.4,-14 13.3,-14 8.4,0 12.1,6.3 12.1,14.1 0,1.2 0,2.4 -0.8,2.4 h -15.7 c 0.4,2.5 2.7,4.1 5.4,4.1 2.5,0 4.6,-0.6 6.7,-1.9 0.1,-0.1 0.3,-0.1 0.4,-0.1 0.8,0 1.4,1.3 1.9,2.7 0.5,1.1 0.9,2.3 0.9,3.1 0,0.5 -0.1,0.8 -0.4,1 -3.3,2 -6.7,2.7 -10.5,2.7 -8.2,0.2 -13.3,-6 -13.3,-14.1 z m 13.3,-6.6 c -2.7,0 -4.3,2.1 -4.5,4.1 h 8.1 c -0.1,-2.1 -0.9,-4.1 -3.6,-4.1 z"
   id="path16" />
		<path fill="#ffffff"
   class="st0"
   d="m 239.2,249 c 0,-3.1 1.7,-5 5.4,-5 3.7,0 5.4,1.9 5.4,5 0,3.1 -1.7,5 -5.4,5 -3.7,0 -5.4,-1.9 -5.4,-5 z m 0.9,34.1 v -25.5 c 0,-1.1 2.2,-1.1 4.5,-1.1 2.2,0 4.4,0 4.4,1.1 v 25.5 c 0,1.1 -2.2,1.1 -4.5,1.1 -2.3,0 -4.4,0 -4.4,-1.1 z"
   id="path18" />
		<path fill="#ffffff"
   class="st0"
   d="m 293.5,280.3 v 2.9 c 0,1.1 -2.1,1.1 -4.2,1.1 -2.1,0 -4.2,0 -4.2,-1.1 v -38.3 c 0,-1.1 2.2,-1.1 4.5,-1.1 2.2,0 4.4,0 4.4,1.1 V 260 c 1.9,-2.7 4.6,-3.8 7.2,-3.8 6.8,0 11.3,6.4 11.3,14.1 0,7.7 -4.5,14.1 -11.3,14.1 -2.8,0.1 -5.7,-1.3 -7.7,-4.1 z m 10.1,-10 c 0,-3.1 -2.1,-5.7 -5,-5.7 -3,0 -5,2.6 -5,5.7 0,3.1 2.1,5.7 5,5.7 2.9,0 5,-2.5 5,-5.7 z"
   id="path20" />
		<path fill="#ffffff"
   class="st0"
   d="m 317.1,249 c 0,-3.1 1.7,-5 5.4,-5 3.7,0 5.4,1.9 5.4,5 0,3.1 -1.7,5 -5.4,5 -3.7,-0.1 -5.4,-1.9 -5.4,-5 z m 0.9,34.1 v -25.5 c 0,-1.1 2.2,-1.1 4.5,-1.1 2.2,0 4.4,0 4.4,1.1 v 25.5 c 0,1.1 -2.2,1.1 -4.5,1.1 -2.3,0 -4.4,0 -4.4,-1.1 z"
   id="path22" />
		<path fill="#ffffff"
   class="st0"
   d="m 332.2,270.3 c 0,-7.8 5.3,-14.1 13.8,-14.1 8.5,0 13.9,6.3 13.9,14.1 0,7.8 -5.3,14.1 -13.9,14.1 -8.5,0.1 -13.8,-6.3 -13.8,-14.1 z m 18.7,0 c 0,-3.1 -2,-5.7 -4.9,-5.7 -2.9,0 -4.9,2.5 -4.9,5.7 0,3.1 2,5.7 4.9,5.7 2.9,0 4.9,-2.6 4.9,-5.7 z"
   id="path24" />
		<path fill="#ffffff"
   class="st0"
   d="m 366.7,273.9 v -9.4 h -3.9 c -1.1,0 -1.1,-1.9 -1.1,-3.9 0,-1.9 0,-3.9 1.1,-3.9 h 3.9 v -6.9 c 0,-1.1 2.3,-1.1 4.5,-1.1 2.2,0 4.5,0 4.5,1.1 v 6.9 h 5.6 c 1.1,0 1.1,1.9 1.1,3.9 0,1.9 0,3.9 -1.1,3.9 h -5.6 v 9.4 c 0,1.4 0.6,2.7 2.2,2.7 1.1,0 2.4,-0.3 3.6,-1 0.1,-0.1 0.3,-0.1 0.4,-0.1 0.8,0 1.4,1.3 1.9,2.9 0.4,1 0.9,2.4 0.9,3.4 0,0.5 -0.1,0.8 -0.4,1 -2.3,1.3 -4.8,1.8 -7.9,1.8 -6.6,-0.1 -9.7,-4 -9.7,-10.7 z"
   id="path26" />
		<path fill="#ffffff"
   class="st0"
   d="m 386.8,270.3 c 0,-7.8 5.3,-14.1 13.8,-14.1 8.5,0 13.9,6.3 13.9,14.1 0,7.8 -5.3,14.1 -13.9,14.1 -8.5,0.1 -13.8,-6.3 -13.8,-14.1 z m 18.8,0 c 0,-3.1 -2,-5.7 -4.9,-5.7 -2.9,0 -4.9,2.5 -4.9,5.7 0,3.1 2,5.7 4.9,5.7 2.9,0 4.9,-2.6 4.9,-5.7 z"
   id="path28" />
		<path fill="#ffffff"
   class="st0"
   d="m 419.2,293.6 v -36 c 0,-1.1 2.1,-1.1 4.2,-1.1 2.1,0 4.2,0 4.2,1.1 v 2.9 c 1.9,-2.9 4.9,-4.2 7.7,-4.2 6.8,0 11.3,6.3 11.3,14.1 0,7.8 -4.5,14.1 -11.3,14.1 -2.5,0 -5.3,-1.2 -7.1,-3.9 v 13 c 0,1.1 -2.3,1.1 -4.5,1.1 -2.3,0 -4.5,0 -4.5,-1.1 z m 18.5,-23.3 c 0,-3.1 -2.1,-5.7 -5,-5.7 -3,0 -5,2.6 -5,5.7 0,3.1 2.1,5.7 5,5.7 2.9,0 5,-2.5 5,-5.7 z"
   id="path30" />
		<path fill="#ffffff"
   class="st0"
   d="m 449.9,270.2 c 0,-7.9 5.4,-14 13.3,-14 8.4,0 12.1,6.3 12.1,14.1 0,1.2 0,2.4 -0.8,2.4 h -15.7 c 0.4,2.5 2.7,4.1 5.4,4.1 2.5,0 4.6,-0.6 6.8,-1.9 0.1,-0.1 0.3,-0.1 0.4,-0.1 0.8,0 1.4,1.3 1.9,2.7 0.5,1.1 0.9,2.3 0.9,3.1 0,0.5 -0.1,0.8 -0.4,1 -3.3,2 -6.7,2.7 -10.5,2.7 -8.4,0.2 -13.4,-6 -13.4,-14.1 z m 13.3,-6.6 c -2.7,0 -4.3,2.1 -4.5,4.1 h 8.1 c -0.1,-2.1 -0.9,-4.1 -3.6,-4.1 z"
   id="path32" />
	</g>
</g>
<path fill="#ffffff"
   class="st0"
   d="m 273.2518,77.582306 c 1.1,-0.7 1.8,-1.9 1.8,-3.2 0,-1.4 -0.8,-2.6 -1.9,-3.3 -0.5,-0.5 -1.4,-1.2 -1.4,-1.9 0,-0.8 0.9,-1.5 1.5,-2 1.1,-0.7 1.8,-1.9 1.8,-3.2 0,-2.1 -1.9,-3.9 -4.2,-3.9 -1.4,0 -2.7,0.7 -3.5,1.7 -1.4,1.1 -2.6,1.4 -3.5,1.3 -1.1,0 -2.4,-1.5 -3.2,-2.4 -0.9,-1.4 -2.6,-2.4 -4.5,-2.4 -2.9,0 -5.2,2.2 -5.2,4.9 0,2 1.3,3.6 3,4.4 0.8,0.5 2,0.9 2,1.6 0,0.7 -0.9,1.4 -1.4,1.9 -1.1,0.7 -1.9,1.9 -1.9,3.2 0,1.3 0.7,2.5 1.8,3.2 0,0 0,0 -0.1,0 0.5,0.5 1.5,1.3 1.5,2.1 0,0.8 -0.9,1.5 -1.5,2 0.1,0 0.1,-0.1 0.2,-0.1 -1.2,0.7 -2,1.9 -2,3.3 0,2.1 1.9,3.9 4.2,3.9 2.3,0 4.2,-1.7 4.2,-3.9 0,-1.3 -0.7,-2.5 -1.8,-3.2 -0.5,-0.5 -1.4,-1.2 -1.4,-2 0,-0.8 0.9,-1.5 1.5,-2 1.1,-0.7 1.8,-1.9 1.8,-3.2 0,-1.4 -0.8,-2.6 -1.9,-3.3 -0.5,-0.5 -1.4,-1.2 -1.4,-1.9 0,-0.8 0.9,-1.5 1.5,-2 0.4,-0.3 0.8,-0.6 1,-1 0,0 0,0 0,0 0.6,-0.5 2.1,-1.4 3.5,-1.4 1.5,0 2.9,0.9 3.5,1.3 0.3,0.4 0.7,0.7 1.1,1 0,0 0,0 -0.1,0 0.5,0.5 1.5,1.3 1.5,2.1 0,0.7 -0.9,1.4 -1.4,1.9 -1.1,0.7 -1.9,1.9 -1.9,3.2 0,1.3 0.7,2.5 1.8,3.2 0,0 0,0 -0.1,0 0.5,0.5 1.5,1.3 1.5,2.1 0,0.8 -0.9,1.5 -1.5,2 0.1,0 0.1,-0.1 0.2,-0.1 -1.2,0.7 -2,1.9 -2,3.3 0,2.1 1.9,3.9 4.2,3.9 2.3,0 4.2,-1.7 4.2,-3.9 0,-1.3 -0.7,-2.5 -1.8,-3.2 -0.5,-0.5 -1.4,-1.2 -1.4,-2 0.2,-0.7 1.2,-1.5 1.7,-2 z"
   id="path38" />
<path fill="#ffffff"
   class="st0 bubble-left"
   d="m 30.051801,19.482306 c 45.6,-10.9999998 52.2,8.6 56.7,39 4.6,30.9 -10.3,52.600004 -26.2,57.800004 -17.2,5.6 -41.5,4.9 -57.7,-39.300004 -10.7,-29.5 11,-53.6 27.2,-57.5 z m 26.1,68.7 c 3.1,0 5.5,-0.5 7.9,-1.8 0.3,-0.2 0.4,-0.5 0.4,-1 0,-1 -0.5,-2.4 -0.9,-3.4 -0.6,-1.6 -1.1,-2.9 -1.9,-2.9 -0.1,0 -0.3,0 -0.4,0.1 -1.2,0.7 -2.5,1 -3.6,1 -1.7,0 -2.2,-1.3 -2.2,-2.7 v -9.4 h 5.6 c 1.1,0 1.1,-1.9 1.1,-3.9 0,-1.9 0,-3.9 -1.1,-3.9 h -5.6 v -6.9 c 0,-1.1 -2.2,-1.1 -4.5,-1.1 -2.2,0 -4.5,0 -4.5,1.1 v 6.9 h -3.9 c -1.1,0 -1.1,1.9 -1.1,3.9 0,1.9 0,3.9 1.1,3.9 h 3.9 v 9.4 c 0,6.9 3.1,10.7 9.7,10.7 z m 16.8,-0.5 c 2.3,0 4.5,0 4.5,-1.1 v -13.1 c 0,-2.8 1.1,-5 3.7,-5 0.7,0 1.4,0.1 2.3,0.7 0.2,0.1 0.3,0.2 0.5,0.2 0.9,0 1.7,-1.8 2.3,-3.5 0.3,-1 0.8,-2.3 0.8,-3.3 0,-0.5 -0.1,-0.9 -0.4,-1.2 -1.4,-1.2 -2.5,-1.7 -3.8,-1.7 -2.3,0 -4.3,1.2 -5.9,3.8 v -2.3 c 0,-1.2 -2.1,-1.2 -4.2,-1.2 -2.1,0 -4.2,0 -4.2,1.2 v 25.4 c -0.1,1.1 2.1,1.1 4.4,1.1 z"
   id="path40" />
</svg>
