<?xml version="1.0" encoding="utf-8"?>
<!-- Generator: Adobe Illustrator 26.5.0, SVG Export Plug-In . SVG Version: 6.00 Build 0)  -->
<svg version="1.1" id="Ebene_1" xmlns="http://www.w3.org/2000/svg" xmlns:xlink="http://www.w3.org/1999/xlink" x="0px" y="0px"
	 viewBox="0 0 1366 768" style="enable-background:new 0 0 1366 768;" xml:space="preserve">
<style type="text/css">
	.st0{clip-path:url(#SVGID_00000051357331209195248070000004492331298008458652_);fill:#97D0C5;}
	.st1{clip-path:url(#SVGID_00000051357331209195248070000004492331298008458652_);fill:#DF4F91;}
	.st2{fill:#767676;}
	.st3{font-family:'Neufreit-ExtraBold';}
	.st4{font-size:140.5116px;}
	.st5{letter-spacing:1;}
	.st6{letter-spacing:-1;}
	.st7{letter-spacing:-2;}
	.st8{clip-path:url(#SVGID_00000027562757856094628710000002344918911117944220_);fill:#757576;}
</style>
<g>
	<defs>
		<rect id="SVGID_1_" x="12" y="205" width="1354" height="360.3"/>
	</defs>
	<clipPath id="SVGID_00000160877979795227033470000015137152548616919230_">
		<use xlink:href="#SVGID_1_"  style="overflow:visible;"/>
	</clipPath>
	<path style="clip-path:url(#SVGID_00000160877979795227033470000015137152548616919230_);fill:#97D0C5;" d="M1258.6,370.6
		c-26-35.6-92.6,5.6-122-31.2c-32.2-40.3,10.8-96,45.3-106.4c36.9-11.1,87.3-11.3,117.3,17.9c31,30.1,34.4,83.8,28.9,126
		c-3,22.7-13.8,46.8-38.5,42C1262.1,413.7,1272,379.8,1258.6,370.6"/>
	<path style="clip-path:url(#SVGID_00000160877979795227033470000015137152548616919230_);fill:#DF4F91;" d="M118.9,276.1
		c117.3-28.4,134.2,22.2,145.9,100.2c11.9,79.6-26.6,135.3-67.4,148.6c-44.2,14.3-106.8,12.7-148.3-101.1
		C21.6,348.1,77.3,286.2,118.9,276.1"/>
</g>
<text transform="matrix(1 0 0 1 145.3271 453.374)"><tspan x="0" y="0" class="st2 st3 st4 st5">tr</tspan><tspan x="123.2" y="0" class="st2 st3 st4">i</tspan><tspan x="165.7" y="0" class="st2 st3 st4 st5">t</tspan><tspan x="229.5" y="0" class="st2 st3 st4 st5">t</tspan><tspan x="293.4" y="0" class="st2 st3 st4 st6">s</tspan><tspan x="357.3" y="0" class="st2 st3 st4 st5">t</tspan><tspan x="421.3" y="0" class="st2 st3 st4">e</tspan><tspan x="493.8" y="0" class="st2 st3 st4">i</tspan></text>
<text transform="matrix(1 0 0 1 681.8037 453.374)"><tspan x="0" y="0" class="st2 st3 st4 st7">  </tspan><tspan x="48.5" y="0" class="st2 st3 st4"> </tspan></text>
<text transform="matrix(1 0 0 1 754.1689 453.374)"><tspan x="0" y="0" class="st2 st3 st4">b</tspan><tspan x="85.2" y="0" class="st2 st3 st4">i</tspan><tspan x="127.6" y="0" class="st2 st3 st4 st7">o</tspan><tspan x="204.3" y="0" class="st2 st3 st4 st5">t</tspan><tspan x="268.1" y="0" class="st2 st3 st4 st7">o</tspan><tspan x="344.7" y="0" class="st2 st3 st4">pe</tspan></text>
<g>
	<defs>
		<rect id="SVGID_00000066499398900044270770000006072866704756083377_" x="12" y="205" width="1354" height="360.3"/>
	</defs>
	<clipPath id="SVGID_00000122718953308177980180000008758844973815657896_">
		<use xlink:href="#SVGID_00000066499398900044270770000006072866704756083377_"  style="overflow:visible;"/>
	</clipPath>
	<path style="clip-path:url(#SVGID_00000122718953308177980180000008758844973815657896_);fill:#757576;" d="M747.4,411.6
		c0,0-2.5-3.4-2.6-5.1c0-0.9,0.2-1.7,0.6-2.6c0.2-0.4,0.5-0.8,0.9-1.3c0.1-0.1,0.1-0.1,0.2-0.2c0.3-0.3,0.9-1.1,0.9-1.1
		c1.5-2,2.4-4.4,2.4-7.1c0-6.5-5.3-11.8-11.8-11.8c-2.9,0-5.4,1-7.5,2.8c-1.3,1-3.6,1.5-5.4,1.8c-1.8,0.2-3.6,0.2-5.4-0.1
		c-1.8-0.3-3.5-0.8-5.3-1.6c-1.7-0.8-4.9-3.4-4.9-3.4c-2.4-2-5.4-3.2-8.7-3.2c-7.5,0-13.7,6.1-13.7,13.7c0,4.6,2.3,8.7,5.9,11.2h0
		c1.1,0.8,1.9,2,1.9,2.9c-0.1,1.7-0.7,2.8-2.7,5.1h0c-1.5,2-2.4,4.4-2.4,7c0,2.6,0.9,5.1,2.4,7l0.1,0.1c0.3,0.3,0.3,0.3,0.5,0.6
		c0.2,0.2,0.4,0.5,0.6,0.7c0.3,0.4,0.6,0.7,0.8,1.1c0.4,0.9,0.6,1.7,0.6,2.6c-0.1,1.7-0.7,2.7-2.6,5.1h0c-1.5,2-2.4,4.4-2.4,7.1
		c0,6.5,5.3,11.8,11.8,11.8c6.5,0,11.8-5.3,11.8-11.8c0-2.6-0.9-5.1-2.4-7h0c-1.7-2-2.5-3.4-2.6-5.1c0-0.8,0.2-1.7,0.6-2.6
		c0.2-0.4,0.5-0.8,0.8-1.2c0.2-0.2,0.4-0.5,0.6-0.7c0.2-0.3,0.3-0.3,0.4-0.5l0.1-0.2c1.5-2,2.4-4.4,2.4-7c0-2.6-0.9-5.1-2.4-7
		c-1.5-2-2.5-3.4-2.6-5.1c0-0.9,0.2-1.7,0.6-2.6c0.4-0.9,0.7-1.5,1.6-2.4l0.3-0.3c0.2-0.2,0.4-0.4,0.6-0.6c2.9-2.5,6.9-2.6,8.7-2.5
		c2.5,0.1,6.6,1.4,8.5,3.7c0.2,0.2,0.4,0.5,0.6,0.7c0.1,0.1,0.1,0.1,0.2,0.2c0.4,0.4,0.6,0.8,0.8,1.3c0.4,0.8,0.7,1.7,0.6,2.5
		c-0.1,1.6-0.7,2.6-2.4,4.9c-1.6,2-2.5,4.5-2.5,7.2c0,2.7,0.9,5.1,2.4,7.1h0c0.1,0.1,0.2,0.2,0.3,0.3c0.3,0.4,0.6,0.7,0.9,1.1
		c0.3,0.4,0.6,0.7,0.8,1.2c0.4,0.9,0.6,1.7,0.6,2.6c-0.1,1.7-0.9,3-2.6,5.1c-1.5,2-2.4,4.4-2.4,7.1c0,6.5,5.3,11.8,11.8,11.8
		c6.5,0,11.8-5.3,11.8-11.8c0-2.6-0.9-5.1-2.4-7h0c-1.9-2.2-2.5-3.4-2.6-5.1c0-0.8,0.2-1.7,0.6-2.6c0.2-0.4,0.4-0.8,0.8-1.1
		c0.2-0.2,0.3-0.4,0.5-0.6c0.2-0.2,0.3-0.4,0.6-0.7l0.1-0.1c1.5-2,2.4-4.4,2.4-7C749.7,415.9,748.8,413.5,747.4,411.6"/>
</g>
</svg>
