<?xml version="1.0" encoding="utf-8"?>
<!-- Generator: Adobe Illustrator 26.5.0, SVG Export Plug-In . SVG Version: 6.00 Build 0)  -->
<svg version="1.1" id="Ebene_1" xmlns="http://www.w3.org/2000/svg" xmlns:xlink="http://www.w3.org/1999/xlink" x="0px" y="0px"
	 viewBox="0 0 512 512" style="enable-background:new 0 0 512 512;" xml:space="preserve">
<style type="text/css">
	.st0{fill:#FFFFFF;}
</style>
<path class="st0" d="M477.1,251.7c-10.1-13.9-36,2.2-47.4-12.1c-12.5-15.7,4.2-37.3,17.6-41.4c14.3-4.3,33.9-4.4,45.6,7
	c12,11.7,13.4,32.6,11.2,49c-1.1,8.8-5.4,18.2-15,16.3C478.5,268.5,482.4,255.3,477.1,251.7z"/>
<g>
	<g>
		<path class="st0" d="M95.2,249c0-3.1,1.7-5,5.4-5s5.4,1.9,5.4,5c0,3.1-1.7,5-5.4,5S95.2,252.1,95.2,249z M96.1,283.1v-25.5
			c0-1.1,2.2-1.1,4.5-1.1c2.2,0,4.4,0,4.4,1.1v25.5c0,1.1-2.2,1.1-4.5,1.1C98.3,284.2,96.1,284.2,96.1,283.1z"/>
		<path class="st0" d="M115,273.9v-9.4h-3.9c-1.1,0-1.1-1.9-1.1-3.9c0-1.9,0-3.9,1.1-3.9h3.9v-6.9c0-1.1,2.3-1.1,4.5-1.1
			c2.2,0,4.5,0,4.5,1.1v6.9h5.6c1.1,0,1.1,1.9,1.1,3.9c0,1.9,0,3.9-1.1,3.9H124v9.4c0,1.4,0.6,2.7,2.2,2.7c1.1,0,2.4-0.3,3.6-1
			c0.1-0.1,0.3-0.1,0.4-0.1c0.8,0,1.4,1.3,1.9,2.9c0.4,1,0.9,2.4,0.9,3.4c0,0.5-0.1,0.8-0.4,1c-2.3,1.3-4.8,1.8-7.9,1.8
			C118.2,284.5,115,280.6,115,273.9z"/>
		<path class="st0" d="M139.8,273.9v-9.4h-3.9c-1.1,0-1.1-1.9-1.1-3.9c0-1.9,0-3.9,1.1-3.9h3.9v-6.9c0-1.1,2.3-1.1,4.5-1.1
			c2.2,0,4.5,0,4.5,1.1v6.9h5.6c1.1,0,1.1,1.9,1.1,3.9c0,1.9,0,3.9-1.1,3.9h-5.6v9.4c0,1.4,0.6,2.7,2.2,2.7c1.1,0,2.4-0.3,3.6-1
			c0.1-0.1,0.3-0.1,0.4-0.1c0.8,0,1.4,1.3,1.9,2.9c0.4,1,0.9,2.4,0.9,3.4c0,0.5-0.1,0.8-0.4,1c-2.3,1.3-4.8,1.8-7.9,1.8
			C143,284.5,139.8,280.6,139.8,273.9z"/>
		<path class="st0" d="M160.8,282.4c-0.3-0.2-0.5-0.5-0.5-1c0-0.8,0.4-1.9,0.9-3.1c0.7-1.7,1.4-3,2.3-3c0.2,0,0.3,0,0.5,0.1
			c1.8,1,4.5,1.7,6.3,1.7c2.5,0,3.4-0.5,3.4-1.6c0-1.1-1.6-1.5-3.6-2c-3.7-0.8-9.4-2-9.4-8.5c0-6.2,4.9-8.8,11.6-8.8
			c3.4,0,6.2,0.5,8.9,2.1c0.3,0.2,0.5,0.5,0.5,1c0,0.8-0.4,1.9-0.9,3.1c-0.6,1.6-1.5,3.1-2.4,3.1c-0.1,0-0.3,0-0.4-0.1
			c-1.6-0.9-3.7-1.7-5.4-1.7c-2,0-3,0.6-3,1.6c0,1,1.5,1.4,3.5,1.8c3.7,0.8,9.5,2.1,9.5,8.9c0,6.8-5.7,8.6-12.5,8.6
			C166.7,284.5,163.5,283.9,160.8,282.4z"/>
		<path class="st0" d="M189.5,273.9v-9.4h-3.9c-1.1,0-1.1-1.9-1.1-3.9c0-1.9,0-3.9,1.1-3.9h3.9v-6.9c0-1.1,2.3-1.1,4.5-1.1
			c2.2,0,4.5,0,4.5,1.1v6.9h5.6c1.1,0,1.1,1.9,1.1,3.9c0,1.9,0,3.9-1.1,3.9h-5.6v9.4c0,1.4,0.6,2.7,2.2,2.7c1.1,0,2.4-0.3,3.6-1
			c0.1-0.1,0.3-0.1,0.4-0.1c0.8,0,1.4,1.3,1.9,2.9c0.4,1,0.9,2.4,0.9,3.4c0,0.5-0.1,0.8-0.4,1c-2.3,1.3-4.8,1.8-7.9,1.8
			C192.7,284.5,189.5,280.6,189.5,273.9z"/>
		<path class="st0" d="M209.8,270.2c0-7.9,5.4-14,13.3-14c8.4,0,12.1,6.3,12.1,14.1c0,1.2,0,2.4-0.8,2.4h-15.7
			c0.4,2.5,2.7,4.1,5.4,4.1c2.5,0,4.6-0.6,6.7-1.9c0.1-0.1,0.3-0.1,0.4-0.1c0.8,0,1.4,1.3,1.9,2.7c0.5,1.1,0.9,2.3,0.9,3.1
			c0,0.5-0.1,0.8-0.4,1c-3.3,2-6.7,2.7-10.5,2.7C214.9,284.5,209.8,278.3,209.8,270.2z M223.1,263.6c-2.7,0-4.3,2.1-4.5,4.1h8.1
			C226.6,265.6,225.8,263.6,223.1,263.6z"/>
		<path class="st0" d="M239.2,249c0-3.1,1.7-5,5.4-5s5.4,1.9,5.4,5c0,3.1-1.7,5-5.4,5S239.2,252.1,239.2,249z M240.1,283.1v-25.5
			c0-1.1,2.2-1.1,4.5-1.1c2.2,0,4.4,0,4.4,1.1v25.5c0,1.1-2.2,1.1-4.5,1.1S240.1,284.2,240.1,283.1z"/>
		<path class="st0" d="M293.5,280.3v2.9c0,1.1-2.1,1.1-4.2,1.1c-2.1,0-4.2,0-4.2-1.1v-38.3c0-1.1,2.2-1.1,4.5-1.1
			c2.2,0,4.4,0,4.4,1.1V260c1.9-2.7,4.6-3.8,7.2-3.8c6.8,0,11.3,6.4,11.3,14.1s-4.5,14.1-11.3,14.1
			C298.4,284.5,295.5,283.1,293.5,280.3z M303.6,270.3c0-3.1-2.1-5.7-5-5.7c-3,0-5,2.6-5,5.7s2.1,5.7,5,5.7
			C301.5,276,303.6,273.5,303.6,270.3z"/>
		<path class="st0" d="M317.1,249c0-3.1,1.7-5,5.4-5c3.7,0,5.4,1.9,5.4,5c0,3.1-1.7,5-5.4,5C318.8,253.9,317.1,252.1,317.1,249z
			 M318,283.1v-25.5c0-1.1,2.2-1.1,4.5-1.1c2.2,0,4.4,0,4.4,1.1v25.5c0,1.1-2.2,1.1-4.5,1.1S318,284.2,318,283.1z"/>
		<path class="st0" d="M332.2,270.3c0-7.8,5.3-14.1,13.8-14.1c8.5,0,13.9,6.3,13.9,14.1c0,7.8-5.3,14.1-13.9,14.1
			C337.5,284.5,332.2,278.1,332.2,270.3z M350.9,270.3c0-3.1-2-5.7-4.9-5.7c-2.9,0-4.9,2.5-4.9,5.7c0,3.1,2,5.7,4.9,5.7
			C348.9,276,350.9,273.4,350.9,270.3z"/>
		<path class="st0" d="M366.7,273.9v-9.4h-3.9c-1.1,0-1.1-1.9-1.1-3.9c0-1.9,0-3.9,1.1-3.9h3.9v-6.9c0-1.1,2.3-1.1,4.5-1.1
			c2.2,0,4.5,0,4.5,1.1v6.9h5.6c1.1,0,1.1,1.9,1.1,3.9c0,1.9,0,3.9-1.1,3.9h-5.6v9.4c0,1.4,0.6,2.7,2.2,2.7c1.1,0,2.4-0.3,3.6-1
			c0.1-0.1,0.3-0.1,0.4-0.1c0.8,0,1.4,1.3,1.9,2.9c0.4,1,0.9,2.4,0.9,3.4c0,0.5-0.1,0.8-0.4,1c-2.3,1.3-4.8,1.8-7.9,1.8
			C369.8,284.5,366.7,280.6,366.7,273.9z"/>
		<path class="st0" d="M386.8,270.3c0-7.8,5.3-14.1,13.8-14.1c8.5,0,13.9,6.3,13.9,14.1c0,7.8-5.3,14.1-13.9,14.1
			C392.1,284.5,386.8,278.1,386.8,270.3z M405.6,270.3c0-3.1-2-5.7-4.9-5.7c-2.9,0-4.9,2.5-4.9,5.7c0,3.1,2,5.7,4.9,5.7
			C403.6,276,405.6,273.4,405.6,270.3z"/>
		<path class="st0" d="M419.2,293.6v-36c0-1.1,2.1-1.1,4.2-1.1c2.1,0,4.2,0,4.2,1.1v2.9c1.9-2.9,4.9-4.2,7.7-4.2
			c6.8,0,11.3,6.3,11.3,14.1c0,7.8-4.5,14.1-11.3,14.1c-2.5,0-5.3-1.2-7.1-3.9v13c0,1.1-2.3,1.1-4.5,1.1
			C421.4,294.7,419.2,294.7,419.2,293.6z M437.7,270.3c0-3.1-2.1-5.7-5-5.7c-3,0-5,2.6-5,5.7s2.1,5.7,5,5.7
			C435.6,276,437.7,273.5,437.7,270.3z"/>
		<path class="st0" d="M449.9,270.2c0-7.9,5.4-14,13.3-14c8.4,0,12.1,6.3,12.1,14.1c0,1.2,0,2.4-0.8,2.4h-15.7
			c0.4,2.5,2.7,4.1,5.4,4.1c2.5,0,4.6-0.6,6.8-1.9c0.1-0.1,0.3-0.1,0.4-0.1c0.8,0,1.4,1.3,1.9,2.7c0.5,1.1,0.9,2.3,0.9,3.1
			c0,0.5-0.1,0.8-0.4,1c-3.3,2-6.7,2.7-10.5,2.7C454.9,284.5,449.9,278.3,449.9,270.2z M463.2,263.6c-2.7,0-4.3,2.1-4.5,4.1h8.1
			C466.7,265.6,465.9,263.6,463.2,263.6z"/>
	</g>
</g>
<path class="st0" d="M277.2,273.1c1.1-0.7,1.8-1.9,1.8-3.2c0-1.4-0.8-2.6-1.9-3.3c-0.5-0.5-1.4-1.2-1.4-1.9c0-0.8,0.9-1.5,1.5-2
	c1.1-0.7,1.8-1.9,1.8-3.2c0-2.1-1.9-3.9-4.2-3.9c-1.4,0-2.7,0.7-3.5,1.7c-1.4,1.1-2.6,1.4-3.5,1.3c-1.1,0-2.4-1.5-3.2-2.4
	c-0.9-1.4-2.6-2.4-4.5-2.4c-2.9,0-5.2,2.2-5.2,4.9c0,2,1.3,3.6,3,4.4c0.8,0.5,2,0.9,2,1.6c0,0.7-0.9,1.4-1.4,1.9
	c-1.1,0.7-1.9,1.9-1.9,3.2c0,1.3,0.7,2.5,1.8,3.2c0,0,0,0-0.1,0c0.5,0.5,1.5,1.3,1.5,2.1c0,0.8-0.9,1.5-1.5,2c0.1,0,0.1-0.1,0.2-0.1
	c-1.2,0.7-2,1.9-2,3.3c0,2.1,1.9,3.9,4.2,3.9c2.3,0,4.2-1.7,4.2-3.9c0-1.3-0.7-2.5-1.8-3.2c-0.5-0.5-1.4-1.2-1.4-2
	c0-0.8,0.9-1.5,1.5-2c1.1-0.7,1.8-1.9,1.8-3.2c0-1.4-0.8-2.6-1.9-3.3c-0.5-0.5-1.4-1.2-1.4-1.9c0-0.8,0.9-1.5,1.5-2
	c0.4-0.3,0.8-0.6,1-1c0,0,0,0,0,0c0.6-0.5,2.1-1.4,3.5-1.4c1.5,0,2.9,0.9,3.5,1.3c0.3,0.4,0.7,0.7,1.1,1c0,0,0,0-0.1,0
	c0.5,0.5,1.5,1.3,1.5,2.1c0,0.7-0.9,1.4-1.4,1.9c-1.1,0.7-1.9,1.9-1.9,3.2c0,1.3,0.7,2.5,1.8,3.2c0,0,0,0-0.1,0
	c0.5,0.5,1.5,1.3,1.5,2.1c0,0.8-0.9,1.5-1.5,2c0.1,0,0.1-0.1,0.2-0.1c-1.2,0.7-2,1.9-2,3.3c0,2.1,1.9,3.9,4.2,3.9
	c2.3,0,4.2-1.7,4.2-3.9c0-1.3-0.7-2.5-1.8-3.2c-0.5-0.5-1.4-1.2-1.4-2C275.7,274.4,276.7,273.6,277.2,273.1z"/>
<path class="st0" d="M34,215c45.6-11,52.2,8.6,56.7,39c4.6,30.9-10.3,52.6-26.2,57.8c-17.2,5.6-41.5,4.9-57.7-39.3
	C-3.9,243,17.8,218.9,34,215z M60.1,283.7c3.1,0,5.5-0.5,7.9-1.8c0.3-0.2,0.4-0.5,0.4-1c0-1-0.5-2.4-0.9-3.4
	c-0.6-1.6-1.1-2.9-1.9-2.9c-0.1,0-0.3,0-0.4,0.1c-1.2,0.7-2.5,1-3.6,1c-1.7,0-2.2-1.3-2.2-2.7v-9.4h5.6c1.1,0,1.1-1.9,1.1-3.9
	c0-1.9,0-3.9-1.1-3.9h-5.6v-6.9c0-1.1-2.2-1.1-4.5-1.1c-2.2,0-4.5,0-4.5,1.1v6.9h-3.9c-1.1,0-1.1,1.9-1.1,3.9c0,1.9,0,3.9,1.1,3.9
	h3.9v9.4C50.4,279.9,53.5,283.7,60.1,283.7z M76.9,283.2c2.3,0,4.5,0,4.5-1.1v-13.1c0-2.8,1.1-5,3.7-5c0.7,0,1.4,0.1,2.3,0.7
	c0.2,0.1,0.3,0.2,0.5,0.2c0.9,0,1.7-1.8,2.3-3.5c0.3-1,0.8-2.3,0.8-3.3c0-0.5-0.1-0.9-0.4-1.2c-1.4-1.2-2.5-1.7-3.8-1.7
	c-2.3,0-4.3,1.2-5.9,3.8v-2.3c0-1.2-2.1-1.2-4.2-1.2s-4.2,0-4.2,1.2v25.4C72.4,283.2,74.6,283.2,76.9,283.2z"/>
</svg>
