<svg xmlns="http://www.w3.org/2000/svg" width="115" height="111" viewBox="0 0 115 111"><g><g><path fill="#fff" d="M73.158 94.05L62.682 83.102H66.7c1.181 0 2.226-.604 2.725-1.58.498-.972.334-2.087-.43-2.908L58.749 67.62h3.788c1.193 0 2.268-.648 2.735-1.647.462-.983.244-2.127-.556-2.912l-14.46-14.21c-.79-.781-2.265-.781-3.057 0l-14.461 14.21c-.8.785-1.016 1.929-.556 2.912.467 1 1.543 1.647 2.737 1.647h3.788L28.46 78.617c-.761.82-.925 1.934-.428 2.908.498.974 1.542 1.578 2.725 1.578h4.016L24.297 94.05c-.787.821-.965 1.946-.467 2.935.492.973 1.574 1.602 2.755 1.602h17.947v2.958l-3.972 5.854c-.698 1.287.317 2.802 1.876 2.802H55.02c1.56 0 2.574-1.515 1.877-2.802l-3.972-5.854v-2.958H70.87c1.182 0 2.263-.629 2.755-1.602.498-.989.32-2.114-.467-2.935z"/></g><g><path fill="#fff" d="M113.658 77.05l-10.476-10.947h4.017c1.181 0 2.226-.604 2.725-1.58.498-.972.334-2.087-.43-2.908L99.249 50.62h3.788c1.193 0 2.268-.648 2.735-1.647.462-.983.244-2.127-.556-2.912l-14.46-14.21c-.79-.781-2.265-.781-3.057 0l-14.461 14.21c-.8.785-1.016 1.929-.556 2.912.467 1 1.543 1.647 2.737 1.647h3.788L68.96 61.617c-.761.82-.925 1.934-.428 2.908.498.974 1.542 1.578 2.725 1.578h4.016L64.797 77.05c-.787.821-.965 1.946-.467 2.935.492.973 1.574 1.602 2.755 1.602h17.947v2.958l-3.972 5.854c-.698 1.287.317 2.802 1.876 2.802H95.52c1.56 0 2.574-1.515 1.877-2.802l-3.972-5.854v-2.958h17.946c1.182 0 2.263-.629 2.755-1.602.498-.989.32-2.114-.467-2.935z"/></g><g><path fill="#fff" d="M50.306 46.082L39.83 35.137h4.017c1.181 0 2.226-.605 2.725-1.58.498-.973.334-2.088-.43-2.91L35.896 19.655h3.789c1.193 0 2.268-.647 2.735-1.647.462-.983.244-2.127-.556-2.912L27.404.885c-.79-.78-2.265-.78-3.057 0L9.886 15.094c-.8.785-1.016 1.93-.556 2.912.467 1 1.543 1.647 2.736 1.647h3.789L5.608 30.65c-.761.82-.925 1.934-.428 2.908.498.974 1.542 1.579 2.724 1.579h4.017L1.445 46.082c-.787.822-.965 1.947-.467 2.935.492.973 1.574 1.602 2.755 1.602H21.68v2.958l-3.971 5.854c-.698 1.287.317 2.802 1.876 2.802h12.583c1.56 0 2.574-1.515 1.877-2.802l-3.972-5.854v-2.958h17.946c1.181 0 2.263-.629 2.755-1.602.498-.988.32-2.113-.467-2.935z"/></g></g></svg>