<svg xmlns="http://www.w3.org/2000/svg" width="82" height="76" viewBox="0 0 82 76"><g><g><path fill="#fff" d="M61.12 20.985h-.001a8.821 8.821 0 0 1-3.891 4.861 17.83 17.83 0 0 0 5.084-1.384v.003a17.925 17.925 0 0 1-4.417 4.548c.016.377.025.754.025 1.136 0 11.611-8.904 25.003-25.189 25.003a25.195 25.195 0 0 1-13.572-3.948c.693.08 1.4.122 2.113.122a17.85 17.85 0 0 0 10.996-3.762c-3.873-.07-7.144-2.612-8.27-6.102a8.945 8.945 0 0 0 3.998-.15c-4.05-.81-7.101-4.36-7.101-8.618v-.11a8.873 8.873 0 0 0 4.01 1.099 8.768 8.768 0 0 1-3.939-7.315c0-1.609.436-3.12 1.198-4.417a25.193 25.193 0 0 0 18.247 9.182 8.772 8.772 0 0 1-.23-2.003c0-4.854 3.964-8.789 8.853-8.789a8.871 8.871 0 0 1 6.463 2.776 17.762 17.762 0 0 0 5.622-2.132zm15.44 16.706L58.677 6.84H22.909L5.025 37.69 22.91 68.545h35.768zm2.766 4.601L56.093 73.188 17.5 68.644 2.139 33.204 25.372 2.309l38.594 4.544zm2.18.257L65.285 5.056 24.51.256-.041 32.948 16.18 70.44l40.774 4.8z"/></g></g></svg>