<svg xmlns="http://www.w3.org/2000/svg" width="82" height="76" viewBox="0 0 82 76"><g><g><path fill="#fff" d="M39.463 31.382c.088-.196.132-.618.132-1.267v-6.147c0-.77-.042-1.253-.126-1.453-.084-.2-.46-.3-.735-.3-.275 0-.459.1-.55.3-.092.2-.138.683-.138 1.453v6.001c0 .708.046 1.17.137 1.385.092.215.272.322.54.322.275 0 .652-.098.74-.294zm-10.747 12.53h1.418v-2.977h-6.172v2.977h1.605v10.833h3.15zm7.427 10.833H39.6V44.031h-3.203v7.115c0 .902-.024 1.435-.071 1.601-.048.166-.394.249-.646.249-.236 0-.674-.081-.727-.24-.053-.161-.08-.67-.08-1.526v-7.295H31.77v7.228c0 .946.02 1.577.059 1.895.039.318.139.623.298.916.16.293.408.528.745.705.336.177.76.265 1.27.265.448 0 .845-.093 1.19-.278.345-.186.635-.464.87-.835zm9.598-3.242c0 .652-.032 1.064-.097 1.236-.064.171-.594.257-.807.257-.208 0-.347-.083-.417-.249-.07-.166-.105-.544-.105-1.136v-5.129c0-.613.031-.224.093-.376.061-.152.196-.228.403-.228.213 0 .748.087.82.26.074.175.11-.225.11.344zm2.465 3.006c.403-.29.66-.633.77-1.029.109-.395.163-.996.163-1.803v-5.344c0-.812-.018-.571-.054-.82a1.816 1.816 0 0 0-.324-.762c-.18-.26-.44-.462-.783-.606-.342-.143-.745-.216-1.21-.216-.404 0-.779.08-1.124.237-.344.158-1.048.397-1.33.719v-3.95h-3.103v13.81h2.886l.218-.831c.286.344.993.6 1.338.773a2.47 2.47 0 0 0 1.114.257c.556 0 1.035-.145 1.439-.435zm5.545-7.247v-.805c0-.619.028-.227.084-.367.056-.142.202-.212.438-.212.19 0 .316.082.378.248.062.166.092-.238.092.331v.805zm3.658 6.438c.32-.415.524-.804.61-1.169.087-.364.13-.888.13-1.567v-.812h-3.22v1.45c0 .548-.044.917-.131 1.108-.087.19-.26.286-.517.286-.208 0-.348-.072-.42-.216-.074-.143-.11-.464-.11-.961v-3.152h4.399v-.688c0-1.066-.125-1.508-.374-2.097-.25-.589-.685-1.061-1.304-1.418-.62-.356-1.406-.535-2.36-.535-.78 0-1.273.148-1.873.444-.6.296-1.13.721-1.393 1.276-.264.556-.396.543-.396 1.505v3.595c0 .818.06 1.44.177 1.87.118.428.33.82.635 1.177.306.357.831.637 1.38.841.55.205.988.307 1.706.307.74 0 1.355-.103 1.846-.31a2.97 2.97 0 0 0 1.215-.934zm5.7-8.141v4.63c0 4.263-3.506 7.72-7.83 7.72H27.09c-4.324 0-7.83-3.457-7.83-7.72v-4.63c0-4.263 3.506-7.72 7.83-7.72h28.187c4.325 0 7.83 3.457 7.83 7.72zM56.754 34.64h-4.714l.08-1.247c-.321.506-.716.885-1.187 1.138-.47.254-1.01.187-1.623.187-.696 0-1.469.073-1.927-.169-.46-.241-.798-.561-1.015-.96a3.48 3.48 0 0 1-.408-1.25c-.053-.434-.08-1.295-.08-2.583v-10.41h4.634v10.5c0 1.168.036 1.861.109 2.08.072.219.465.328.786.328.344 0 .549-.113.614-.34.065-.226.098-.953.098-2.182V19.347h4.633zM44.23 28.58c0 1.349-.069 2.338-.207 2.967-.137.63-.432 1.218-.883 1.764a3.98 3.98 0 0 1-1.738 1.21c-.707.26-1.128.39-2.045.39-1.025 0-2.48-.111-3.191-.334-.711-.222-1.264-.557-1.658-1.006a3.954 3.954 0 0 1-.843-1.629c-.168-.636-.252-1.591-.252-2.866v-3.843c0-1.395.153-2.484.459-3.268.306-.784.856-1.413 1.652-1.889.795-.474 2.399-.712 3.638-.712 1.04 0 1.54.153 2.286.458.746.306 1.321.703 1.726 1.193.406.49.683.995.832 1.516.15.52.224 1.31.224 2.374zm-10.78-12.439l-3.423 11.873v6.626h-4.572v-6.626L22.06 16.24h4.436c.693 3.573 1.084 6.653 1.173 7.888.268-1.952.716-4.454 1.345-7.888zm43.56 21.55L59.124 6.84H23.357L5.473 37.69l17.884 30.854h35.768zm2.766 4.6L56.54 73.188l-38.593-4.544-15.361-35.44L25.82 2.309l38.594 4.544zm2.18.257L65.732 5.056 24.958.256.406 32.948 16.63 70.44l40.774 4.8z"/></g></g></svg>