<?xml version="1.0" encoding="utf-8"?>
<!-- Generator: Adobe Illustrator 26.5.0, SVG Export Plug-In . SVG Version: 6.00 Build 0)  -->
<svg version="1.1" xmlns="http://www.w3.org/2000/svg" xmlns:xlink="http://www.w3.org/1999/xlink" x="0px" y="0px"
	 viewBox="0 0 372.3 230.9" style="enable-background:new 0 0 372.3 230.9;" xml:space="preserve">
<style type="text/css">
	.st0{fill:#FFFFFF;}
	.st1{font-family:'Neufreit-ExtraBold';}
	.st2{font-size:51.4102px;}
</style>
<g id="Ebene_1">
</g>
<g id="Ebene_2">
	<g>
		<text transform="matrix(1 0 0 1 17.8604 122.331)" class="st0 st1 st2">co</text>
	</g>
	<g>
		<text transform="matrix(1 0 0 1 135.1476 122.331)" class="st0 st1 st2">ectforbio</text>
	</g>
	<g>
		<path class="st0" d="M97.4,112.4c1.1-0.7,1.7-2,1.7-3.4c0-1.4-0.7-2.7-1.9-3.4c-0.5-0.6-1.3-1.3-1.3-2c0-0.8,0.9-1.6,1.5-2.2
			c1.1-0.7,1.7-2,1.7-3.4c0-2.3-1.8-4.1-4.1-4.1c-1.4,0-2.7,0.7-3.4,1.8c-1.4,1.1-2.6,1.4-3.4,1.4c-1.2-0.1-2.4-1.7-3.1-2.6
			c-0.9-1.5-2.5-2.5-4.4-2.5c-2.8,0-5.1,2.3-5.1,5.1c0,2.1,1.2,3.8,3,4.6c0.7,0.5,2,1,2,1.7c0,0.8-0.8,1.5-1.4,2.1
			c-1.1,0.7-1.8,2-1.8,3.4c0,1.4,0.7,2.7,1.8,3.4c0,0-0.1,0-0.1,0c0.5,0.6,1.5,1.3,1.5,2.2c0,0.8-0.9,1.6-1.4,2.1
			c0.2-0.1,0.4-0.3,0.7-0.4c-1.4,0.6-2.5,2.1-2.5,3.8c0,2.3,1.8,4.1,4.1,4.1s4.1-1.8,4.1-4.1c0-1.4-0.7-2.7-1.8-3.4
			c-0.5-0.6-1.4-1.3-1.4-2.1c0-0.8,0.9-1.6,1.5-2.2c1.1-0.7,1.7-2,1.7-3.4c0-1.4-0.7-2.7-1.9-3.4c-0.5-0.6-1.3-1.3-1.3-2
			c0-0.8,0.9-1.6,1.5-2.2c0.4-0.3,0.7-0.6,1-1c0,0,0,0,0,0.1c0.6-0.5,2.1-1.5,3.5-1.5c1.5,0,2.8,0.9,3.4,1.4
			c0.3,0.4,0.7,0.8,1.1,1.1c0,0-0.1,0-0.1,0c0.5,0.6,1.5,1.3,1.5,2.2c0,0.8-0.8,1.5-1.4,2.1c-1.1,0.7-1.8,2-1.8,3.4
			c0,1.4,0.7,2.7,1.8,3.4c0,0-0.1,0-0.1,0c0.5,0.6,1.5,1.3,1.5,2.2c0,0.8-0.9,1.6-1.4,2.1c0.2-0.1,0.4-0.3,0.7-0.4
			c-1.4,0.6-2.5,2.1-2.5,3.8c0,2.3,1.8,4.1,4.1,4.1c2.3,0,4.1-1.8,4.1-4.1c0-1.4-0.7-2.7-1.8-3.4c-0.5-0.6-1.4-1.3-1.4-2.1
			C95.9,113.7,96.9,113,97.4,112.4z M81.4,113.1c-0.3,0-0.5,0-0.8-0.1C80.9,113.1,81.2,113.1,81.4,113.1
			C81.4,113.1,81.4,113.1,81.4,113.1z M81.4,116c-0.3,0-0.5,0-0.8,0.1C80.9,116,81.2,116,81.4,116C81.4,116,81.4,116,81.4,116z
			 M79.8,112.8c-0.2-0.1-0.4-0.2-0.6-0.3C79.4,112.6,79.6,112.7,79.8,112.8z M80.5,113c-0.2,0-0.4-0.1-0.6-0.2
			C80.1,112.9,80.3,113,80.5,113z M80.5,116.1c-0.2,0-0.4,0.1-0.6,0.2C80.1,116.2,80.3,116.1,80.5,116.1z M83.2,116.4
			c0.1,0,0.2,0.1,0.2,0.1C83.3,116.5,83.3,116.4,83.2,116.4z M81.5,116c0.2,0,0.5,0,0.7,0.1C81.9,116,81.7,116,81.5,116z
			 M82.5,116.1c0.1,0,0.3,0.1,0.4,0.1C82.7,116.2,82.6,116.2,82.5,116.1z M81.5,113.1c0.2,0,0.5,0,0.7-0.1
			C81.9,113.1,81.7,113.1,81.5,113.1z M83.2,112.7c0.1,0,0.1-0.1,0.2-0.1C83.3,112.6,83.3,112.7,83.2,112.7z M82.5,113
			c0.1,0,0.2-0.1,0.4-0.1C82.7,112.9,82.6,113,82.5,113z M83.2,101.7c0.1,0,0.1-0.1,0.2-0.1C83.3,101.6,83.3,101.7,83.2,101.7z
			 M84.9,100.1C84.9,100.1,84.9,100.1,84.9,100.1C84.9,100.2,84.9,100.2,84.9,100.1C84.9,100.2,84.9,100.2,84.9,100.1z M91.2,96.7
			C91.1,96.7,91.1,96.8,91.2,96.7C91.1,96.8,91.1,96.7,91.2,96.7z M91.3,99.8c0,0.1,0.1,0.1,0.1,0.2C91.4,99.9,91.4,99.8,91.3,99.8z
			 M91,98.6C91,98.6,91,98.6,91,98.6C91,98.6,91,98.6,91,98.6z M91.1,99.1c0,0.1,0,0.1,0.1,0.2C91.2,99.3,91.1,99.2,91.1,99.1z
			 M95,116c-0.3,0-0.5,0-0.8,0.1C94.5,116,94.8,116,95,116C95,116,95,116,95,116z M94.3,113.1c0.2,0,0.5,0.1,0.8,0.1c0,0,0,0,0,0
			C94.8,113.1,94.5,113.1,94.3,113.1z M96.8,112.7c0.1,0,0.1-0.1,0.2-0.1C97,112.6,96.9,112.7,96.8,112.7z M96.1,113
			c0.1,0,0.2-0.1,0.4-0.1C96.3,112.9,96.2,113,96.1,113z M95.8,113.1c-0.2,0-0.4,0.1-0.7,0.1C95.3,113.1,95.6,113.1,95.8,113.1z
			 M95.1,102.1c0.2,0,0.5,0,0.7-0.1C95.6,102.1,95.3,102.1,95.1,102.1z M96.8,101.7c0.1,0,0.1-0.1,0.2-0.1
			C97,101.6,96.9,101.7,96.8,101.7z M96.1,102c0.1,0,0.2-0.1,0.4-0.1C96.3,101.9,96.2,101.9,96.1,102z M93.4,101.7
			c-0.2-0.1-0.4-0.2-0.6-0.3C93,101.6,93.2,101.7,93.4,101.7z M95,102.1C95,102.1,95,102.1,95,102.1c-0.3,0-0.5,0-0.8-0.1
			C94.5,102.1,94.8,102.1,95,102.1z M94.1,102c-0.2,0-0.4-0.1-0.6-0.2C93.7,101.9,93.9,101.9,94.1,102z M93.4,112.8
			c-0.2-0.1-0.4-0.2-0.6-0.3C93,112.6,93.2,112.7,93.4,112.8z M94.1,113c-0.2,0-0.4-0.1-0.6-0.2C93.7,112.9,93.9,113,94.1,113z
			 M94.1,116.1c-0.2,0-0.4,0.1-0.6,0.2C93.7,116.2,93.9,116.1,94.1,116.1z M96.8,116.4c0.1,0,0.2,0.1,0.2,0.1
			C97,116.5,96.9,116.4,96.8,116.4z M95.1,116c0.2,0,0.5,0,0.7,0.1C95.5,116,95.3,116,95.1,116z M96.1,116.1c0.1,0,0.3,0.1,0.4,0.1
			C96.3,116.2,96.2,116.2,96.1,116.1z"/>
	</g>
	<g>
		<path class="st0" d="M126.9,112.4c1.1-0.7,1.7-2,1.7-3.4c0-1.4-0.7-2.7-1.9-3.4c-0.5-0.6-1.3-1.3-1.3-2c0-0.8,0.9-1.6,1.5-2.2
			c1.1-0.7,1.7-2,1.7-3.4c0-2.3-1.8-4.1-4.1-4.1c-1.4,0-2.7,0.7-3.4,1.8c-1.4,1.1-2.6,1.4-3.4,1.4c-1.2-0.1-2.4-1.7-3.1-2.6
			c-0.9-1.5-2.5-2.5-4.4-2.5c-2.8,0-5.1,2.3-5.1,5.1c0,2.1,1.2,3.8,3,4.6c0.7,0.5,2,1,2,1.7c0,0.8-0.8,1.5-1.4,2.1
			c-1.1,0.7-1.8,2-1.8,3.4c0,1.4,0.7,2.7,1.8,3.4c0,0-0.1,0-0.1,0c0.5,0.6,1.5,1.3,1.5,2.2c0,0.8-0.9,1.6-1.4,2.1
			c0.2-0.1,0.4-0.3,0.7-0.4c-1.4,0.6-2.5,2.1-2.5,3.8c0,2.3,1.8,4.1,4.1,4.1c2.3,0,4.1-1.8,4.1-4.1c0-1.4-0.7-2.7-1.8-3.4
			c-0.5-0.6-1.4-1.3-1.4-2.1c0-0.8,0.9-1.6,1.5-2.2c1.1-0.7,1.7-2,1.7-3.4c0-1.4-0.7-2.7-1.9-3.4c-0.5-0.6-1.3-1.3-1.3-2
			c0-0.8,0.9-1.6,1.5-2.2c0.4-0.3,0.7-0.6,1-1c0,0,0,0,0,0.1c0.6-0.5,2.1-1.5,3.5-1.5c1.5,0,2.8,0.9,3.4,1.4
			c0.3,0.4,0.7,0.8,1.1,1.1c0,0-0.1,0-0.1,0c0.5,0.6,1.5,1.3,1.5,2.2c0,0.8-0.8,1.5-1.4,2.1c-1.1,0.7-1.8,2-1.8,3.4
			c0,1.4,0.7,2.7,1.8,3.4c0,0-0.1,0-0.1,0c0.5,0.6,1.5,1.3,1.5,2.2c0,0.8-0.9,1.6-1.4,2.1c0.2-0.1,0.4-0.3,0.7-0.4
			c-1.4,0.6-2.5,2.1-2.5,3.8c0,2.3,1.8,4.1,4.1,4.1c2.3,0,4.1-1.8,4.1-4.1c0-1.4-0.7-2.7-1.8-3.4c-0.5-0.6-1.4-1.3-1.4-2.1
			C125.4,113.7,126.3,113,126.9,112.4z M110.9,113.1c-0.3,0-0.5,0-0.8-0.1C110.4,113.1,110.6,113.1,110.9,113.1
			C110.9,113.1,110.9,113.1,110.9,113.1z M110.9,116c-0.3,0-0.5,0-0.8,0.1C110.4,116,110.6,116,110.9,116
			C110.9,116,110.9,116,110.9,116z M109.2,112.8c-0.2-0.1-0.4-0.2-0.6-0.3C108.8,112.6,109,112.7,109.2,112.8z M110,113
			c-0.2,0-0.4-0.1-0.6-0.2C109.6,112.9,109.8,113,110,113z M110,116.1c-0.2,0-0.4,0.1-0.6,0.2C109.6,116.2,109.8,116.1,110,116.1z
			 M112.7,116.4c0.1,0,0.2,0.1,0.2,0.1C112.8,116.5,112.7,116.4,112.7,116.4z M111,116c0.2,0,0.5,0,0.7,0.1
			C111.4,116,111.2,116,111,116z M111.9,116.1c0.1,0,0.3,0.1,0.4,0.1C112.2,116.2,112.1,116.2,111.9,116.1z M111,113.1
			c0.2,0,0.5,0,0.7-0.1C111.4,113.1,111.2,113.1,111,113.1z M112.7,112.7c0.1,0,0.1-0.1,0.2-0.1
			C112.8,112.6,112.8,112.7,112.7,112.7z M112,113c0.1,0,0.2-0.1,0.4-0.1C112.2,112.9,112.1,113,112,113z M112.7,101.7
			c0.1,0,0.1-0.1,0.2-0.1C112.8,101.6,112.8,101.7,112.7,101.7z M114.4,100.1C114.4,100.1,114.4,100.1,114.4,100.1
			C114.4,100.2,114.4,100.2,114.4,100.1C114.4,100.2,114.4,100.2,114.4,100.1z M120.6,96.7C120.6,96.7,120.6,96.8,120.6,96.7
			C120.6,96.8,120.6,96.7,120.6,96.7z M120.8,99.8c0,0.1,0.1,0.1,0.1,0.2C120.9,99.9,120.9,99.8,120.8,99.8z M120.5,98.6
			C120.5,98.6,120.5,98.6,120.5,98.6C120.5,98.6,120.5,98.6,120.5,98.6z M120.6,99.1c0,0.1,0,0.1,0.1,0.2
			C120.6,99.3,120.6,99.2,120.6,99.1z M124.5,116c-0.3,0-0.5,0-0.8,0.1C124,116,124.2,116,124.5,116C124.5,116,124.5,116,124.5,116z
			 M123.8,113.1c0.2,0,0.5,0.1,0.8,0.1c0,0,0,0,0,0C124.2,113.1,124,113.1,123.8,113.1z M126.3,112.7c0.1,0,0.1-0.1,0.2-0.1
			C126.4,112.6,126.4,112.7,126.3,112.7z M125.6,113c0.1,0,0.2-0.1,0.4-0.1C125.8,112.9,125.7,113,125.6,113z M125.2,113.1
			c-0.2,0-0.4,0.1-0.7,0.1C124.8,113.1,125,113.1,125.2,113.1z M124.6,102.1c0.2,0,0.5,0,0.7-0.1C125,102.1,124.8,102.1,124.6,102.1
			z M126.3,101.7c0.1,0,0.1-0.1,0.2-0.1C126.4,101.6,126.4,101.7,126.3,101.7z M125.6,102c0.1,0,0.2-0.1,0.4-0.1
			C125.8,101.9,125.7,101.9,125.6,102z M122.8,101.7c-0.2-0.1-0.4-0.2-0.6-0.3C122.5,101.6,122.6,101.7,122.8,101.7z M124.5,102.1
			C124.5,102.1,124.5,102.1,124.5,102.1c-0.3,0-0.5,0-0.8-0.1C124,102.1,124.3,102.1,124.5,102.1z M123.6,102
			c-0.2,0-0.4-0.1-0.6-0.2C123.2,101.9,123.4,101.9,123.6,102z M122.8,112.8c-0.2-0.1-0.4-0.2-0.6-0.3
			C122.5,112.6,122.6,112.7,122.8,112.8z M123.6,113c-0.2,0-0.4-0.1-0.6-0.2C123.2,112.9,123.4,113,123.6,113z M123.6,116.1
			c-0.2,0-0.4,0.1-0.6,0.2C123.2,116.2,123.4,116.1,123.6,116.1z M126.3,116.4c0.1,0,0.2,0.1,0.2,0.1
			C126.4,116.5,126.4,116.4,126.3,116.4z M124.6,116c0.2,0,0.5,0,0.7,0.1C125,116,124.8,116,124.6,116z M125.5,116.1
			c0.1,0,0.3,0.1,0.4,0.1C125.8,116.2,125.7,116.2,125.5,116.1z"/>
	</g>
	<path class="st0" d="M99.2,122.9c0.5-0.7,0.8-1.9,0.8-2.8c0-0.9-0.5-2.3-1-3c0.6,0.5,3,1.2,4,1.2c1.1,0,3.5-0.6,4-1.1
		c-0.5,0.7-1,2.1-1,3c0,0.9,0.3,2.1,0.8,2.8c-0.6-0.5-2.7-0.9-3.8-0.9C102,122,99.8,122.4,99.2,122.9z"/>
	<path class="st0" d="M69.7,112.3c0.3-1,0.5-2.4,0.5-3.3c0-0.9-0.3-2.8-0.5-3.6c0.6,0.5,3,1.1,3.9,1.1c0.8,0,3.4-0.5,4-1
		c-0.5,0.7-1.2,2.5-1.2,3.4c0,0.9,0.5,2.7,1.3,3.4c-0.6-0.5-3.1-0.9-4.1-0.9C72.4,111.3,70.2,111.8,69.7,112.3z"/>
	<path class="st0" d="M136.4,105.4c-0.3,1-0.5,2.6-0.5,3.4c0,0.9,0.1,2.7,0.3,3.5c-0.6-0.5-2.9-1-3.8-1c-0.8,0-3.7,0.5-4.3,1
		c0.5-0.7,1.5-1.6,1.5-3.4c0-1.4-0.8-2.8-1.5-3.5c0.6,0.5,3.4,1,4.4,1C133.6,106.4,135.8,105.9,136.4,105.4z"/>
</g>
</svg>
