<?xml version="1.0" encoding="UTF-8" standalone="no"?>
<svg
   xmlns:dc="http://purl.org/dc/elements/1.1/"
   xmlns:cc="http://creativecommons.org/ns#"
   xmlns:rdf="http://www.w3.org/1999/02/22-rdf-syntax-ns#"
   xmlns:svg="http://www.w3.org/2000/svg"
   xmlns="http://www.w3.org/2000/svg"
   xmlns:sodipodi="http://sodipodi.sourceforge.net/DTD/sodipodi-0.dtd"
   xmlns:inkscape="http://www.inkscape.org/namespaces/inkscape"
   version="1.1"
   id="svg2"
   xml:space="preserve"
   width="1211"
   height="587.37335"
   viewBox="0 0 1211 587.37335"
   sodipodi:docname="partners-logo-3.svg"
   inkscape:version="1.0.2 (e86c870879, 2021-01-15, custom)"><metadata
     id="metadata8"><rdf:RDF><cc:Work
         rdf:about=""><dc:format>image/svg+xml</dc:format><dc:type
           rdf:resource="http://purl.org/dc/dcmitype/StillImage" /><dc:title></dc:title></cc:Work></rdf:RDF></metadata><defs
     id="defs6" /><sodipodi:namedview
     pagecolor="#ffffff"
     bordercolor="#666666"
     borderopacity="1"
     objecttolerance="10"
     gridtolerance="10"
     guidetolerance="10"
     inkscape:pageopacity="0"
     inkscape:pageshadow="2"
     inkscape:window-width="2880"
     inkscape:window-height="1526"
     id="namedview4"
     showgrid="false"
     inkscape:zoom="1.5152766"
     inkscape:cx="605.5"
     inkscape:cy="293.68668"
     inkscape:window-x="-11"
     inkscape:window-y="1609"
     inkscape:window-maximized="1"
     inkscape:current-layer="g10" /><g
     id="g10"
     inkscape:groupmode="layer"
     inkscape:label="ink_ext_XXXXXX"
     transform="matrix(1.3333333,0,0,-1.3333333,0,587.37333)"><g
       id="g12"
       transform="scale(0.1)"><path
         d="m 2812.69,2991.21 c -383.84,0 -749.88,-161.02 -1010.01,-437.65 L 1195.56,4405.26 0,758.711 H 132.164 189.43 1200.07 V 931.27 H 246.008 L 1195.56,3827.51 2201.75,758.711 h 189.41 L 1864.32,2365.57 c 229.81,286.36 579.75,455.64 948.37,455.64 669.95,0 1215,-545.05 1215,-1215 0,-243.36 -71.57,-476.57 -204.45,-674.87 H 3108.28 V 758.789 h 577.76 209.8 12.4 c 187.56,241.711 289.45,537.361 289.45,847.421 0,763.69 -621.31,1385 -1385,1385"
         style="fill:#040606;fill-opacity:1;fill-rule:nonzero;stroke:none"
         id="path14" /><path
         d="m 4595.59,930.82 h 334 c 153.99,0 281.99,68 281.99,245.99 0,178.01 -128,246 -281.99,246 h -334 z m 0,663.99 h 247.99 c 190,-6.01 324,27.99 324,217.99 0,190 -134,224 -324,218 h -247.99 z m -200,-835.99 V 2202.8 h 515.99 c 248,0 466,-96 466,-375.99 0,-150 -101.99,-272 -244,-312 v -4 c 186.01,-28.01 288,-194 288,-374 0,-167.99 -110,-293.982 -262,-350.001 -73.99,-27.989 -162,-30 -248,-27.989 h -515.99"
         style="fill:#231f20;fill-opacity:1;fill-rule:nonzero;stroke:none"
         id="path16" /><path
         d="M 5628.22,758.801 V 2202.79 h 856 v -172 h -656 V 1576.8 h 617.99 v -172 H 5828.22 V 758.801 h -200"
         style="fill:#231f20;fill-opacity:1;fill-rule:nonzero;stroke:none"
         id="path18" /><path
         d="m 6669.41,2201.46 h 200 L 7193.4,1013.47 h 4 l 342,1187.99 h 248 l 323.99,-1197.99 h 4 l 321.99,1197.99 h 200 L 8209.4,757.48 h -222.02 l -331.99,1233.98 h -4 L 7295.41,757.48 H 7079.4 l -409.99,1443.98"
         style="fill:#231f20;fill-opacity:1;fill-rule:nonzero;stroke:none"
         id="path20" /><path
         d="m 9082.5,983.32 c 0,-123.211 -99.88,-223.09 -223.09,-223.09 -123.2,0 -223.06,99.879 -223.06,223.09 0,123.19 99.86,223.06 223.06,223.06 123.21,0 223.09,-99.87 223.09,-223.06"
         style="fill:#f7911a;fill-opacity:1;fill-rule:nonzero;stroke:none"
         id="path22" /><path
         d="m 60.1563,173.41 h 83.1987 c 62.715,0 85.114,44.809 85.114,78.719 0,73.601 -45.442,86.402 -105.594,86.402 H 60.1563 Z m 0,216.309 h 85.7577 c 46.074,0.652 68.473,28.801 68.473,73.601 0,38.399 -21.758,69.75 -71.032,69.75 H 60.1563 Z M 1.28516,122.219 V 584.27 H 151.672 c 63.996,0 85.754,-21.75 103.031,-47.36 16,-24.961 18.559,-52.48 18.559,-61.441 0,-57.578 -19.84,-95.981 -79.356,-109.418 v -3.199 c 65.918,-7.684 94.715,-47.372 94.715,-110.723 0,-118.379 -86.394,-129.91 -138.871,-129.91 H 1.28516"
         style="fill:#040606;fill-opacity:1;fill-rule:nonzero;stroke:none"
         id="path24" /><path
         d="m 537.582,445.41 h 52.481 V 189.418 c 0,-22.398 1.281,-44.789 3.199,-67.199 h -55.68 v 39.051 h -1.918 c -17.281,-29.45 -47.992,-45.45 -81.914,-45.45 -56.312,0 -87.031,28.16 -87.031,83.2 v 246.39 h 52.476 V 221.422 c 0,-39.043 17.918,-65.281 55.035,-65.281 28.157,0 63.352,21.121 63.352,74.871 V 445.41"
         style="fill:#040606;fill-opacity:1;fill-rule:nonzero;stroke:none"
         id="path26" /><path
         d="m 844.145,122.219 v 223.992 c 0,34.551 -12.161,62.707 -56.957,62.707 -57.598,0 -65.915,-51.188 -65.915,-95.348 V 122.219 h -52.48 v 255.98 c 0,22.403 -1.277,44.801 -3.195,67.211 h 55.675 v -41.609 h 2.559 c 20.481,36.48 44.797,47.988 86.395,47.988 69.113,0 86.394,-41.59 86.394,-105.578 V 122.219 h -52.476"
         style="fill:#040606;fill-opacity:1;fill-rule:nonzero;stroke:none"
         id="path28" /><path
         d="m 1082.87,408.918 c -56.31,0 -63.99,-44.789 -63.99,-131.188 0,-48.628 0,-119.019 65.91,-119.019 58.88,0 58.88,72.949 58.88,138.219 0,42.871 -2.56,111.988 -60.8,111.988 z m 60.8,175.352 h 52.47 V 122.219 h -52.47 v 38.402 h -1.28 c -17.92,-30.082 -40.32,-44.801 -74.24,-44.801 -51.83,0 -104.306,20.481 -104.306,162.559 0,80.621 2.558,173.41 106.866,173.41 30.72,0 53.12,-13.43 71.04,-39.027 h 1.92 V 584.27"
         style="fill:#040606;fill-opacity:1;fill-rule:nonzero;stroke:none"
         id="path30" /><path
         d="m 1454.07,306.531 c 0,94.071 -26.24,105.598 -64.64,105.598 -33.28,0 -60.79,-16 -61.44,-105.598 z m -126.08,-39.679 c 0,-90.231 24.32,-108.141 65.28,-108.141 35.84,0 54.4,28.789 56.32,61.418 h 57.59 c -0.64,-71.668 -44.79,-104.309 -112.63,-104.309 -68.48,0 -122.87,20.481 -122.87,163.192 0,94.718 10.88,172.777 122.87,172.777 92.15,0 115.19,-50.539 115.19,-157.418 v -27.519 h -181.75"
         style="fill:#040606;fill-opacity:1;fill-rule:nonzero;stroke:none"
         id="path32" /><path
         d="m 1676.15,115.82 c -69.75,0 -113.27,30.719 -111.35,104.961 h 59.52 c 0,-18.562 0.64,-62.07 53.75,-62.07 31.36,0 55.68,15.988 55.68,49.258 0,57.601 -161.27,58.883 -161.27,155.519 0,33.91 20.48,88.301 111.35,88.301 57.6,0 106.87,-27.508 102.4,-91.5 h -58.24 c 0.64,33.922 -17.28,51.84 -50.56,51.84 -28.16,0 -49.92,-15.367 -49.92,-43.52 0,-56.961 161.27,-55.679 161.27,-154.238 0,-71.031 -48.63,-98.551 -112.63,-98.551"
         style="fill:#040606;fill-opacity:1;fill-rule:nonzero;stroke:none"
         id="path34" /><path
         d="m 1858.55,445.41 v 62.711 c 0,65.27 46.07,78.07 92.79,78.07 10.88,0 17.28,-0.652 24.96,-1.921 v -37.758 c -55.68,3.84 -65.27,-19.832 -65.27,-46.071 V 445.41 h 65.27 v -39.691 h -65.27 v -283.5 h -52.48 v 283.5 h -49.92 v 39.691 h 49.92"
         style="fill:#040606;fill-opacity:1;fill-rule:nonzero;stroke:none"
         id="path36" /><path
         d="m 2192.61,301.41 c 0,88.309 -27.51,107.508 -67.83,107.508 -40.32,0 -67.84,-19.199 -67.84,-107.508 0,-104.949 13.44,-142.699 67.84,-142.699 54.4,0 67.83,37.75 67.83,142.699 z m -190.7,-22.398 c 0,94.718 10.88,172.777 122.87,172.777 111.99,0 122.87,-78.059 122.87,-172.777 0,-142.711 -54.4,-163.192 -122.87,-163.192 -68.48,0 -122.87,20.481 -122.87,163.192"
         style="fill:#040606;fill-opacity:1;fill-rule:nonzero;stroke:none"
         id="path38" /><path
         d="m 2369.27,396.762 h 1.28 c 21.75,49.277 48.63,55.027 99.83,55.027 v -54.391 c -9.6,1.293 -18.56,3.204 -28.16,3.204 -58.24,0 -72.95,-44.161 -72.95,-87.672 V 122.219 h -52.48 V 445.41 h 52.48 v -48.648"
         style="fill:#040606;fill-opacity:1;fill-rule:nonzero;stroke:none"
         id="path40" /><path
         d="m 2607.34,115.82 c -69.76,0 -113.27,30.719 -111.35,104.961 h 59.51 c 0,-18.562 0.64,-62.07 53.76,-62.07 31.36,0 55.67,15.988 55.67,49.258 0,57.601 -161.26,58.883 -161.26,155.519 0,33.91 20.48,88.301 111.35,88.301 57.59,0 106.87,-27.508 102.39,-91.5 h -58.23 c 0.63,33.922 -17.29,51.84 -50.56,51.84 -28.16,0 -49.92,-15.367 -49.92,-43.52 0,-56.961 161.27,-55.679 161.27,-154.238 0,-71.031 -48.64,-98.551 -112.63,-98.551"
         style="fill:#040606;fill-opacity:1;fill-rule:nonzero;stroke:none"
         id="path42" /><path
         d="m 2949.08,341.719 c 1.28,53.121 -24.95,67.199 -44.79,67.199 -40.32,0 -67.84,-19.199 -67.84,-107.508 0,-104.949 13.44,-142.699 67.84,-142.699 12.16,0 48.63,12.789 46.71,71.019 h 55.04 c 1.92,-90.871 -65.92,-113.91 -101.75,-113.91 -68.48,0 -122.87,20.481 -122.87,163.192 0,94.718 10.88,172.777 122.87,172.777 64.63,0 102.39,-37.75 99.19,-110.07 h -54.4"
         style="fill:#040606;fill-opacity:1;fill-rule:nonzero;stroke:none"
         id="path44" /><path
         d="M 3259.48,122.219 V 341.09 c 0,39.672 -12.8,67.828 -57.59,67.828 -52.48,0 -65.92,-42.227 -65.92,-96.629 v -190.07 h -52.48 V 584.27 h 52.48 V 403.801 h 2.56 c 21.12,37.758 45.44,47.988 87.67,47.988 55.04,0 85.76,-27.508 85.76,-100.469 V 122.219 h -52.48"
         style="fill:#040606;fill-opacity:1;fill-rule:nonzero;stroke:none"
         id="path46" /><path
         d="m 3560.92,445.41 h 52.47 V 189.418 c 0,-22.398 1.28,-44.789 3.21,-67.199 h -55.68 V 161.27 H 3559 c -17.28,-29.45 -48,-45.45 -81.91,-45.45 -56.32,0 -87.04,28.16 -87.04,83.2 v 246.39 h 52.47 V 221.422 c 0,-39.043 17.92,-65.281 55.04,-65.281 28.16,0 63.36,21.121 63.36,74.871 V 445.41"
         style="fill:#040606;fill-opacity:1;fill-rule:nonzero;stroke:none"
         id="path48" /><path
         d="m 3867.49,122.219 v 223.992 c 0,34.551 -12.16,62.707 -56.96,62.707 -57.6,0 -65.92,-51.188 -65.92,-95.348 V 122.219 h -52.48 v 255.98 c 0,22.403 -1.28,44.801 -3.19,67.211 h 55.67 v -41.609 h 2.56 c 20.48,36.48 44.8,47.988 86.4,47.988 69.11,0 86.39,-41.59 86.39,-105.578 V 122.219 h -52.47"
         style="fill:#040606;fill-opacity:1;fill-rule:nonzero;stroke:none"
         id="path50" /><path
         d="m 4105.56,408.281 c -59.51,0 -61.43,-71.672 -61.43,-114.551 0,-103.679 23.68,-127.992 62.71,-127.992 63.36,0 61.44,74.883 61.44,119.672 0,48 3.2,122.871 -62.72,122.871 z M 4167,445.41 h 52.48 V 89.5898 C 4219.48,17.2695 4171.48,0 4100.44,0 c -53.76,0 -102.39,26.8711 -97.91,86.3789 h 58.87 c 0.65,-30.0781 20.48,-46.7187 49.28,-46.7187 36.48,0 56.32,22.4101 56.32,55.6914 v 67.1874 h -1.93 c -13.43,-25.598 -42.87,-40.32 -71.02,-40.32 -87.68,0 -104.96,75.511 -104.96,171.511 0,148.469 74.88,158.059 101.11,158.059 33.92,0 60.8,-14.699 75.52,-46.07 h 1.28 v 39.691"
         style="fill:#040606;fill-opacity:1;fill-rule:nonzero;stroke:none"
         id="path52" /><path
         d="m 4395.48,115.82 c -69.74,0 -113.27,30.719 -111.34,104.961 h 59.51 c 0,-18.562 0.64,-62.07 53.76,-62.07 31.35,0 55.67,15.988 55.67,49.258 0,57.601 -161.27,58.883 -161.27,155.519 0,33.91 20.48,88.301 111.36,88.301 57.6,0 106.86,-27.508 102.39,-91.5 h -58.24 c 0.64,33.922 -17.28,51.84 -50.56,51.84 -28.15,0 -49.91,-15.367 -49.91,-43.52 0,-56.961 161.27,-55.679 161.27,-154.238 0,-71.031 -48.63,-98.551 -112.64,-98.551"
         style="fill:#040606;fill-opacity:1;fill-rule:nonzero;stroke:none"
         id="path54" /><path
         d="M 4744.28,397.398 4601.56,165.09 h 147.19 V 122.219 H 4544.61 V 171.5 l 140.78,229.75 v 1.27 h -133.74 v 42.89 h 192.63 v -48.012"
         style="fill:#040606;fill-opacity:1;fill-rule:nonzero;stroke:none"
         id="path56" /><path
         d="m 4978.5,306.531 c 0,94.071 -26.23,105.598 -64.63,105.598 -33.28,0 -60.8,-16 -61.43,-105.598 z m -126.06,-39.679 c 0,-90.231 24.32,-108.141 65.28,-108.141 35.83,0 54.39,28.789 56.3,61.418 h 57.6 c -0.64,-71.668 -44.8,-104.309 -112.64,-104.309 -68.47,0 -122.87,20.481 -122.87,163.192 0,94.718 10.88,172.777 122.87,172.777 92.17,0 115.2,-50.539 115.2,-157.418 v -27.519 h -181.74"
         style="fill:#040606;fill-opacity:1;fill-rule:nonzero;stroke:none"
         id="path58" /><path
         d="m 5280.59,122.219 v 223.992 c 0,34.551 -12.15,62.707 -56.96,62.707 -57.59,0 -65.91,-51.188 -65.91,-95.348 V 122.219 h -52.49 v 255.98 c 0,22.403 -1.26,44.801 -3.18,67.211 h 55.67 v -41.609 h 2.55 c 20.49,36.48 44.81,47.988 86.41,47.988 69.1,0 86.39,-41.59 86.39,-105.578 V 122.219 h -52.48"
         style="fill:#040606;fill-opacity:1;fill-rule:nonzero;stroke:none"
         id="path60" /><path
         d="m 5415,445.41 v 62.07 l 52.48,23.668 V 445.41 h 70.39 v -39.691 h -70.39 v -197.75 c 0,-20.469 0,-46.699 47.99,-46.699 3.85,0 12.17,1.269 23.67,2.55 V 123.5 c -17.26,-1.281 -34.55,-5.121 -51.83,-5.121 -49.91,0 -72.31,20.48 -72.31,57.59 v 229.75 h -53.12 V 445.41 H 5415"
         style="fill:#040606;fill-opacity:1;fill-rule:nonzero;stroke:none"
         id="path62" /><path
         d="m 5625.55,396.762 h 1.29 c 21.75,49.277 48.63,55.027 99.82,55.027 v -54.391 c -9.59,1.293 -18.55,3.204 -28.14,3.204 -58.25,0 -72.97,-44.161 -72.97,-87.672 V 122.219 h -52.46 V 445.41 h 52.46 v -48.648"
         style="fill:#040606;fill-opacity:1;fill-rule:nonzero;stroke:none"
         id="path64" /><path
         d="m 5941.07,445.41 h 52.47 V 189.418 c 0,-22.398 1.28,-44.789 3.2,-67.199 h -55.67 v 39.051 h -1.93 c -17.26,-29.45 -47.99,-45.45 -81.91,-45.45 -56.31,0 -87.03,28.16 -87.03,83.2 v 246.39 h 52.48 V 221.422 c 0,-39.043 17.91,-65.281 55.04,-65.281 28.14,0 63.35,21.121 63.35,74.871 V 445.41"
         style="fill:#040606;fill-opacity:1;fill-rule:nonzero;stroke:none"
         id="path66" /><path
         d="m 6230.98,122.219 v 223.992 c 0,32.629 -8.95,62.707 -51.19,62.707 -16,0 -37.76,-9.598 -45.43,-21.758 -9.61,-15.988 -12.17,-35.191 -12.17,-47.359 V 122.219 h -52.48 v 255.98 c 0,22.403 -1.27,44.801 -3.21,67.211 h 55.69 v -40.332 h 1.29 c 15.35,34.563 42.87,46.711 80.62,46.711 29.44,0 63.36,-12.148 75.51,-41.59 17.93,34.563 47.36,41.59 76.8,41.59 33.92,0 88.32,-7.668 88.32,-83.82 v -245.75 h -52.48 v 223.992 c 0,32.629 -8.97,62.707 -51.19,62.707 -19.85,0 -25.61,-0.637 -39.69,-12.156 -15.35,-12.801 -17.91,-44.793 -17.91,-56.961 V 122.219 h -52.48"
         style="fill:#040606;fill-opacity:1;fill-rule:nonzero;stroke:none"
         id="path68" /><path
         d="m 6654,445.41 v 62.711 c 0,65.27 46.08,78.07 92.8,78.07 10.88,0 17.28,-0.652 24.96,-1.921 v -37.758 c -55.67,3.84 -65.28,-19.832 -65.28,-46.071 V 445.41 h 65.28 v -39.691 h -65.28 v -283.5 H 6654 v 283.5 h -49.9 v 39.691 h 49.9"
         style="fill:#231f20;fill-opacity:1;fill-rule:nonzero;stroke:none"
         id="path70" /><path
         d="m 7006.64,499.801 h -60.16 v 66.539 h 60.16 z m -112.64,0 h -60.15 V 566.34 H 6894 Z m 85.12,-54.391 h 52.48 V 189.418 c 0,-22.398 1.27,-44.789 3.21,-67.199 h -55.69 v 39.051 h -1.91 c -17.29,-29.45 -48.01,-45.45 -81.92,-45.45 -56.32,0 -87.03,28.16 -87.03,83.2 v 246.39 h 52.46 V 221.422 c 0,-39.043 17.93,-65.281 55.04,-65.281 28.17,0 63.36,21.121 63.36,74.871 V 445.41"
         style="fill:#231f20;fill-opacity:1;fill-rule:nonzero;stroke:none"
         id="path72" /><path
         d="m 7164.73,396.762 h 1.29 c 21.75,49.277 48.63,55.027 99.82,55.027 v -54.391 c -9.59,1.293 -18.55,3.204 -28.14,3.204 -58.25,0 -72.97,-44.161 -72.97,-87.672 V 122.219 h -52.46 V 445.41 h 52.46 v -48.648"
         style="fill:#231f20;fill-opacity:1;fill-rule:nonzero;stroke:none"
         id="path74" /><path
         d="M 7391.29,584.27 H 7454 l 87.04,-400.61 h 1.28 l 92.8,400.61 h 76.15 l 83.83,-400.61 h 1.27 l 94.08,400.61 h 61.45 L 7829.65,122.219 h -71.66 l -87.68,400.609 h -1.29 l -93.43,-400.609 h -71.66 L 7391.29,584.27"
         style="fill:#231f20;fill-opacity:1;fill-rule:nonzero;stroke:none"
         id="path76" /><path
         d="m 8015.41,218.219 c 0,-31.367 15.35,-59.508 50.55,-59.508 32.01,0 71.68,19.828 66.56,124.141 -49.92,-0.641 -117.11,3.847 -117.11,-64.633 z m 118.38,-49.278 h -1.27 c -16,-37.121 -40.96,-53.121 -81.27,-53.121 -68.48,0 -88.32,44.16 -88.32,106.239 0,97.91 96,102.39 169.59,100.48 1.27,42.871 1.91,89.59 -54.39,89.59 -35.2,0 -53.75,-23.688 -50.57,-57.598 h -56.95 c 2.55,72.309 40.95,97.258 109.43,97.258 83.2,0 104.96,-42.871 104.96,-97.258 V 199.02 c 0,-25.61 2.56,-51.84 6.39,-76.801 h -57.6 v 46.722"
         style="fill:#231f20;fill-opacity:1;fill-rule:nonzero;stroke:none"
         id="path78" /><path
         d="m 8322.62,122.219 h -52.48 V 584.27 h 52.48 V 122.219"
         style="fill:#231f20;fill-opacity:1;fill-rule:nonzero;stroke:none"
         id="path80" /><path
         d="m 8507.56,408.918 c -56.31,0 -63.99,-44.789 -63.99,-131.188 0,-48.628 0,-119.019 65.9,-119.019 58.89,0 58.89,72.949 58.89,138.219 0,42.871 -2.56,111.988 -60.8,111.988 z m 60.8,175.352 h 52.48 V 122.219 h -52.48 v 38.402 h -1.29 c -17.91,-30.082 -40.31,-44.801 -74.24,-44.801 -51.83,0 -104.29,20.481 -104.29,162.559 0,80.621 2.55,173.41 106.87,173.41 30.7,0 53.11,-13.43 71.04,-39.027 h 1.91 V 584.27"
         style="fill:#231f20;fill-opacity:1;fill-rule:nonzero;stroke:none"
         id="path82" /></g></g></svg>
