<?xml version="1.0" encoding="utf-8"?>
<!-- Generator: Adobe Illustrator 26.3.1, SVG Export Plug-In . SVG Version: 6.00 Build 0)  -->
<svg version="1.1" id="Ebene_1" xmlns="http://www.w3.org/2000/svg" xmlns:xlink="http://www.w3.org/1999/xlink" x="0px" y="0px"
	 viewBox="0 0 384.09 156.47" style="enable-background:new 0 0 384.09 156.47;" xml:space="preserve">
<style type="text/css">
	.st0{fill:#E6320F;}
</style>
<g>
	<path d="M222.7,133.05h1.58v4.56c0,1.2,0.66,2.16,2.08,2.16c0.74,0,1.44-0.43,1.44-0.43l-0.32-0.72c0,0-0.51,0.34-1.09,0.34
		c-0.99,0-1.28-0.69-1.28-1.5v-4.4h2.48v-0.77h-2.48v-2.35h-0.83v2.35h-1.58V133.05z M216.47,133.05h1.57v6.53h0.83v-6.53h1.92
		v-0.77h-1.92v-2.64c0-0.9,0.34-1.54,1.28-1.54c0.5,0,0.93,0.26,0.93,0.26l0.35-0.72c-0.58-0.3-0.96-0.35-1.39-0.35
		c-0.99,0-2,0.74-2,2.13v2.86h-1.57V133.05z M210.68,138.96c-0.94,0-1.98-0.5-1.98-1.65c0-1.15,1.18-1.66,2.14-1.66
		c1.46,0,2.32,0.61,2.32,0.61v1.23C213.16,137.48,212.28,138.96,210.68,138.96 M211,132.09c-1.54,0-2.74,0.77-2.74,0.77l0.37,0.72
		c0,0,1.06-0.67,2.38-0.67c0.8,0,2.14,0.3,2.14,2.08v0.54c0,0-0.94-0.69-2.43-0.69c-1.42,0-2.9,0.86-2.9,2.46
		c0,1.62,1.42,2.46,2.66,2.46c1.79,0,2.75-1.46,2.75-1.46v1.26h0.75v-4.78C213.99,133.31,213.03,132.09,211,132.09 M199.8,133.48v-6
		h-0.83v12.1h0.83v-5.04c0,0,0.64-1.63,2.26-1.63c1.18,0,2.06,0.64,2.06,2.14v4.53h0.83v-4.66c0-1.98-1.38-2.83-2.74-2.83
		C200.51,132.09,199.8,133.48,199.8,133.48 M193.23,138.96c-1.74,0-2.9-1.41-2.9-3.02s1.15-3.02,2.9-3.02
		c1.54,0,2.32,1.09,2.32,1.09l0.59-0.53c0,0-1.01-1.38-2.91-1.38c-2.18,0-3.76,1.73-3.76,3.84s1.58,3.84,3.76,3.84
		c1.98,0,2.99-1.49,2.99-1.49l-0.58-0.54C195.64,137.74,194.84,138.96,193.23,138.96 M181.44,138.22c0,0,0.96,1.55,3.12,1.55
		c1.38,0,2.77-0.7,2.77-2.1c0-1.31-1.09-1.79-2.45-2.1c-1.23-0.27-2.19-0.53-2.19-1.42c0-0.75,0.74-1.25,1.73-1.25
		c1.31,0,2.06,0.82,2.06,0.82l0.54-0.61c0,0-0.9-1.02-2.61-1.02c-1.6,0-2.58,1.02-2.58,2.06c0,1.22,0.99,1.82,2.59,2.18
		c1.14,0.26,2.03,0.51,2.03,1.34c0,0.96-1.1,1.28-1.9,1.28c-1.73,0-2.46-1.3-2.46-1.3L181.44,138.22z M174.28,133.05h1.58v4.56
		c0,1.2,0.66,2.16,2.08,2.16c0.74,0,1.44-0.43,1.44-0.43l-0.32-0.72c0,0-0.51,0.34-1.09,0.34c-0.99,0-1.28-0.69-1.28-1.5v-4.4h2.48
		v-0.77h-2.48v-2.35h-0.83v2.35h-1.58V133.05z M171.64,132.09c-1.5,0-2.13,1.38-2.13,1.38v-1.18h-0.75v7.3h0.83v-5.26
		c0,0,0.59-1.41,1.86-1.41c0.67,0,0.98,0.18,0.98,0.18l0.35-0.8C172.78,132.28,172.33,132.09,171.64,132.09 M164.22,129.92
		c0,0.35,0.29,0.64,0.64,0.64c0.35,0,0.64-0.29,0.64-0.64c0-0.35-0.29-0.64-0.64-0.64C164.51,129.28,164.22,129.56,164.22,129.92
		 M164.44,139.58h0.83v-7.3h-0.83V139.58z M150.38,132.28l3.25,7.62l2.54-6.1l2.53,6.1l3.26-7.62h-0.86l-2.35,5.71l-2.3-5.71h-0.48
		l-2.32,5.71l-2.37-5.71H150.38z M148.04,132.09c-1.5,0-2.13,1.38-2.13,1.38v-1.18h-0.75v7.3H146v-5.26c0,0,0.59-1.41,1.86-1.41
		c0.67,0,0.98,0.18,0.98,0.18l0.35-0.8C149.18,132.28,148.73,132.09,148.04,132.09 M136.24,135.5c0.03-0.8,0.7-2.59,2.74-2.59
		c1.92,0,2.64,1.76,2.67,2.59H136.24z M138.97,132.09c-2.18,0-3.6,1.78-3.6,3.84c0,2.08,1.57,3.84,3.74,3.84
		c1.2,0,2.35-0.64,3.06-1.49l-0.56-0.58c-0.5,0.62-1.38,1.25-2.5,1.25c-1.94,0-2.85-1.58-2.91-2.69h6.29
		c0.02-0.18,0.02-0.19,0.02-0.34C142.51,133.69,140.91,132.09,138.97,132.09 M127.34,138.22c0,0,0.96,1.55,3.12,1.55
		c1.38,0,2.77-0.7,2.77-2.1c0-1.31-1.09-1.79-2.45-2.1c-1.23-0.27-2.19-0.53-2.19-1.42c0-0.75,0.74-1.25,1.73-1.25
		c1.31,0,2.06,0.82,2.06,0.82l0.54-0.61c0,0-0.9-1.02-2.61-1.02c-1.6,0-2.58,1.02-2.58,2.06c0,1.22,0.99,1.82,2.59,2.18
		c1.14,0.26,2.03,0.51,2.03,1.34c0,0.96-1.1,1.28-1.9,1.28c-1.73,0-2.46-1.3-2.46-1.3L127.34,138.22z M119.24,138.22
		c0,0,0.96,1.55,3.12,1.55c1.38,0,2.77-0.7,2.77-2.1c0-1.31-1.09-1.79-2.45-2.1c-1.23-0.27-2.19-0.53-2.19-1.42
		c0-0.75,0.74-1.25,1.73-1.25c1.31,0,2.06,0.82,2.06,0.82l0.54-0.61c0,0-0.9-1.02-2.61-1.02c-1.6,0-2.58,1.02-2.58,2.06
		c0,1.22,0.99,1.82,2.59,2.18c1.14,0.26,2.03,0.51,2.03,1.34c0,0.96-1.1,1.28-1.9,1.28c-1.73,0-2.46-1.3-2.46-1.3L119.24,138.22z
		 M113.21,138.96c-0.94,0-1.98-0.5-1.98-1.65c0-1.15,1.18-1.66,2.14-1.66c1.46,0,2.32,0.61,2.32,0.61v1.23
		C115.69,137.48,114.81,138.96,113.21,138.96 M113.53,132.09c-1.54,0-2.74,0.77-2.74,0.77l0.37,0.72c0,0,1.06-0.67,2.38-0.67
		c0.8,0,2.14,0.3,2.14,2.08v0.54c0,0-0.94-0.69-2.43-0.69c-1.42,0-2.9,0.86-2.9,2.46c0,1.62,1.42,2.46,2.66,2.46
		c1.79,0,2.75-1.46,2.75-1.46v1.26h0.75v-4.78C116.52,133.31,115.56,132.09,113.53,132.09 M109.1,128.38h-0.88l-3.23,9.15
		l-2.91-9.15h-0.85l-2.86,9.15l-3.26-9.15h-0.9l4.13,11.52l3.33-10.14l3.31,10.14L109.1,128.38z M85.68,137.26c0,0-0.8,1.7-2.62,1.7
		c-1.63,0-2.77-1.33-2.77-3.02s1.14-3.02,2.77-3.02c1.84,0,2.62,1.7,2.62,1.7V137.26z M86.51,139.58v-12.1h-0.82v6.03
		c-0.19-0.29-1.04-1.42-2.64-1.42c-2.03,0-3.63,1.57-3.63,3.84s1.6,3.84,3.63,3.84c1.86,0,2.7-1.54,2.7-1.54v1.34H86.51z
		 M74.03,132.09c-1.79,0-2.5,1.52-2.5,1.52v-1.33h-0.75v7.3h0.83v-5.04c0,0,0.64-1.63,2.26-1.63c1.18,0,2.06,0.64,2.06,2.14v4.53
		h0.83v-4.66C76.76,132.94,75.39,132.09,74.03,132.09 M64.25,139.77c1.79,0,2.5-1.49,2.5-1.49v1.3h0.75v-7.3h-0.83v5.07
		c0,0-0.64,1.6-2.26,1.6c-1.22,0-2.06-0.64-2.06-2.14v-4.53h-0.83v4.66C61.52,138.92,62.86,139.77,64.25,139.77"/>
	<path d="M363.02,112.09c-1.79,0-2.5,1.52-2.5,1.52v-1.33h-0.75v7.3h0.83v-5.04c0,0,0.64-1.63,2.26-1.63c1.18,0,2.06,0.64,2.06,2.14
		v4.53h0.83v-4.66C365.75,112.94,364.38,112.09,363.02,112.09 M350.84,115.5c0.03-0.8,0.7-2.59,2.74-2.59
		c1.92,0,2.64,1.76,2.67,2.59H350.84z M353.58,112.09c-2.18,0-3.6,1.78-3.6,3.84c0,2.08,1.57,3.84,3.74,3.84
		c1.2,0,2.35-0.64,3.06-1.49l-0.56-0.58c-0.5,0.62-1.38,1.25-2.5,1.25c-1.94,0-2.85-1.58-2.91-2.69h6.29
		c0.02-0.18,0.02-0.19,0.02-0.34C357.11,113.69,355.51,112.09,353.58,112.09 M344.58,112.09c-1.79,0-2.5,1.52-2.5,1.52v-1.33h-0.75
		v7.3h0.83v-5.04c0,0,0.64-1.63,2.26-1.63c1.18,0,2.06,0.64,2.06,2.14v4.53h0.83v-4.66C347.32,112.94,345.94,112.09,344.58,112.09
		 M334.97,118.96c-1.82,0-2.85-1.38-2.85-3.02c0-1.65,1.02-3.02,2.85-3.02s2.85,1.38,2.85,3.02
		C337.82,117.58,336.79,118.96,334.97,118.96 M334.97,112.09c-2.18,0-3.71,1.73-3.71,3.84s1.54,3.84,3.71,3.84s3.71-1.73,3.71-3.84
		S337.15,112.09,334.97,112.09 M327.34,109.92c0,0.35,0.29,0.64,0.64,0.64c0.35,0,0.64-0.29,0.64-0.64s-0.29-0.64-0.64-0.64
		C327.63,109.28,327.34,109.56,327.34,109.92 M327.56,119.58h0.83v-7.3h-0.83V119.58z M323.24,117.26c0,0-0.75,1.7-2.64,1.7
		c-1.63,0-2.75-1.33-2.75-3.02s1.12-3.02,2.75-3.02c1.89,0,2.64,1.7,2.64,1.7V117.26z M323.32,112.28v1.34c0,0-0.8-1.54-2.72-1.54
		c-2.02,0-3.62,1.57-3.62,3.84c0,2.27,1.6,3.84,3.62,3.84c1.62,0,2.4-1.07,2.64-1.41v1.42c0,1.63-0.86,2.85-2.74,2.85
		c-1.86,0-2.78-1.26-2.78-1.26l-0.56,0.59c0,0,1.2,1.49,3.34,1.49c2.13,0,3.57-1.41,3.57-3.7v-7.47H323.32z M308.68,115.5
		c0.03-0.8,0.7-2.59,2.74-2.59c1.92,0,2.64,1.76,2.67,2.59H308.68z M311.42,112.09c-2.18,0-3.6,1.78-3.6,3.84
		c0,2.08,1.57,3.84,3.74,3.84c1.2,0,2.35-0.64,3.06-1.49l-0.56-0.58c-0.5,0.62-1.38,1.25-2.5,1.25c-1.94,0-2.85-1.58-2.91-2.69h6.29
		c0.02-0.18,0.02-0.19,0.02-0.34C314.95,113.69,313.35,112.09,311.42,112.09 M299.13,119.58h0.83v-4.86h1.66l3.14,4.86h1.01
		l-3.2-4.91c0.78-0.08,2.9-0.7,2.9-3.12c0-1.84-1.33-3.17-3.63-3.17h-2.7V119.58z M299.96,113.92v-4.74h1.92
		c1.66,0,2.72,0.9,2.72,2.37s-1.04,2.37-2.72,2.37H299.96z M288.57,121.93l0.74,0.26l1.36-3.74l-0.77-0.27L288.57,121.93z
		 M281.5,113.05h1.58v4.56c0,1.2,0.66,2.16,2.08,2.16c0.74,0,1.44-0.43,1.44-0.43l-0.32-0.72c0,0-0.51,0.34-1.09,0.34
		c-0.99,0-1.28-0.69-1.28-1.5v-4.4h2.48v-0.77h-2.48v-2.35h-0.83v2.35h-1.58V113.05z M275.27,113.05h1.57v6.53h0.83v-6.53h1.92
		v-0.77h-1.92v-2.64c0-0.9,0.34-1.54,1.28-1.54c0.5,0,0.93,0.26,0.93,0.26l0.35-0.72c-0.58-0.3-0.96-0.35-1.39-0.35
		c-0.99,0-2,0.74-2,2.13v2.86h-1.57V113.05z M269.48,118.96c-0.94,0-1.98-0.5-1.98-1.65c0-1.15,1.18-1.66,2.14-1.66
		c1.46,0,2.32,0.61,2.32,0.61v1.23C271.96,117.48,271.08,118.96,269.48,118.96 M269.8,112.09c-1.54,0-2.74,0.77-2.74,0.77l0.37,0.72
		c0,0,1.06-0.67,2.38-0.67c0.8,0,2.14,0.3,2.14,2.08v0.54c0,0-0.94-0.69-2.43-0.69c-1.42,0-2.9,0.86-2.9,2.46
		c0,1.62,1.42,2.46,2.66,2.46c1.79,0,2.75-1.46,2.75-1.46v1.26h0.75v-4.78C272.79,113.31,271.83,112.09,269.8,112.09 M258.6,113.48
		v-6h-0.83v12.1h0.83v-5.04c0,0,0.64-1.63,2.26-1.63c1.18,0,2.06,0.64,2.06,2.14v4.53h0.83v-4.66c0-1.98-1.38-2.83-2.74-2.83
		C259.31,112.09,258.6,113.48,258.6,113.48 M252.03,118.96c-1.74,0-2.9-1.41-2.9-3.02s1.15-3.02,2.9-3.02
		c1.54,0,2.32,1.09,2.32,1.09l0.59-0.53c0,0-1.01-1.38-2.91-1.38c-2.18,0-3.76,1.73-3.76,3.84s1.58,3.84,3.76,3.84
		c1.98,0,2.99-1.49,2.99-1.49l-0.58-0.54C254.44,117.74,253.64,118.96,252.03,118.96 M240.23,118.22c0,0,0.96,1.55,3.12,1.55
		c1.38,0,2.77-0.7,2.77-2.1c0-1.31-1.09-1.79-2.45-2.1c-1.23-0.27-2.19-0.53-2.19-1.42c0-0.75,0.74-1.25,1.73-1.25
		c1.31,0,2.06,0.82,2.06,0.82l0.54-0.61c0,0-0.9-1.02-2.61-1.02c-1.6,0-2.58,1.02-2.58,2.06c0,1.22,0.99,1.82,2.59,2.18
		c1.14,0.26,2.03,0.51,2.03,1.34c0,0.96-1.1,1.28-1.9,1.28c-1.73,0-2.46-1.3-2.46-1.3L240.23,118.22z M233.08,113.05h1.58v4.56
		c0,1.2,0.66,2.16,2.08,2.16c0.74,0,1.44-0.43,1.44-0.43l-0.32-0.72c0,0-0.51,0.34-1.09,0.34c-0.99,0-1.28-0.69-1.28-1.5v-4.4h2.48
		v-0.77h-2.48v-2.35h-0.83v2.35h-1.58V113.05z M230.44,112.09c-1.5,0-2.13,1.38-2.13,1.38v-1.18h-0.75v7.3h0.83v-5.26
		c0,0,0.59-1.41,1.86-1.41c0.67,0,0.98,0.18,0.98,0.18l0.35-0.8C231.58,112.28,231.13,112.09,230.44,112.09 M223.02,109.92
		c0,0.35,0.29,0.64,0.64,0.64s0.64-0.29,0.64-0.64s-0.29-0.64-0.64-0.64S223.02,109.56,223.02,109.92 M223.24,119.58h0.83v-7.3
		h-0.83V119.58z M209.18,112.28l3.25,7.62l2.54-6.1l2.53,6.1l3.26-7.62h-0.86l-2.35,5.71l-2.3-5.71h-0.48l-2.32,5.71l-2.37-5.71
		H209.18z M202.48,113.05h1.58v4.56c0,1.2,0.66,2.16,2.08,2.16c0.74,0,1.44-0.43,1.44-0.43l-0.32-0.72c0,0-0.51,0.34-1.09,0.34
		c-0.99,0-1.28-0.69-1.28-1.5v-4.4h2.48v-0.77h-2.48v-2.35h-0.83v2.35h-1.58V113.05z M194.52,118.22c0,0,0.96,1.55,3.12,1.55
		c1.38,0,2.77-0.7,2.77-2.1c0-1.31-1.09-1.79-2.45-2.1c-1.23-0.27-2.19-0.53-2.19-1.42c0-0.75,0.74-1.25,1.73-1.25
		c1.31,0,2.06,0.82,2.06,0.82l0.54-0.61c0,0-0.9-1.02-2.61-1.02c-1.6,0-2.58,1.02-2.58,2.06c0,1.22,0.99,1.82,2.59,2.18
		c1.14,0.26,2.03,0.51,2.03,1.34c0,0.96-1.1,1.28-1.9,1.28c-1.73,0-2.46-1.3-2.46-1.3L194.52,118.22z M191.93,112.09
		c-1.5,0-2.13,1.38-2.13,1.38v-1.18h-0.75v7.3h0.83v-5.26c0,0,0.59-1.41,1.86-1.41c0.67,0,0.98,0.18,0.98,0.18l0.35-0.8
		C193.07,112.28,192.62,112.09,191.93,112.09 M182.68,118.96c-1.82,0-2.85-1.38-2.85-3.02c0-1.65,1.02-3.02,2.85-3.02
		c1.82,0,2.85,1.38,2.85,3.02C185.53,117.58,184.51,118.96,182.68,118.96 M182.68,112.09c-2.18,0-3.71,1.73-3.71,3.84
		s1.54,3.84,3.71,3.84c2.18,0,3.71-1.73,3.71-3.84S184.86,112.09,182.68,112.09 M171.77,109.18h5.3v-0.8h-6.13v11.2h0.83v-5.36h4.98
		v-0.77h-4.98V109.18z M161.1,117.26c0,0-0.8,1.7-2.62,1.7c-1.63,0-2.77-1.33-2.77-3.02s1.14-3.02,2.77-3.02
		c1.84,0,2.62,1.7,2.62,1.7V117.26z M161.93,119.58v-12.1h-0.82v6.03c-0.19-0.29-1.04-1.42-2.64-1.42c-2.03,0-3.63,1.57-3.63,3.84
		c0,2.27,1.6,3.84,3.63,3.84c1.86,0,2.7-1.54,2.7-1.54v1.34H161.93z M149.45,112.09c-1.79,0-2.5,1.52-2.5,1.52v-1.33h-0.75v7.3h0.83
		v-5.04c0,0,0.64-1.63,2.26-1.63c1.18,0,2.06,0.64,2.06,2.14v4.53h0.83v-4.66C152.19,112.94,150.81,112.09,149.45,112.09
		 M139.68,119.77c1.79,0,2.5-1.49,2.5-1.49v1.3h0.75v-7.3h-0.83v5.07c0,0-0.64,1.6-2.26,1.6c-1.22,0-2.06-0.64-2.06-2.14v-4.53
		h-0.83v4.66C136.94,118.92,138.28,119.77,139.68,119.77 M124.81,116.17h4.27v-0.77h-4.27V116.17z M121.04,117.26
		c0,0-0.8,1.7-2.62,1.7c-1.63,0-2.77-1.33-2.77-3.02s1.14-3.02,2.77-3.02c1.84,0,2.62,1.7,2.62,1.7V117.26z M121.87,119.58v-12.1
		h-0.82v6.03c-0.19-0.29-1.04-1.42-2.64-1.42c-2.03,0-3.63,1.57-3.63,3.84c0,2.27,1.6,3.84,3.63,3.84c1.86,0,2.7-1.54,2.7-1.54v1.34
		H121.87z M109.39,112.09c-1.79,0-2.5,1.52-2.5,1.52v-1.33h-0.75v7.3h0.83v-5.04c0,0,0.64-1.63,2.26-1.63
		c1.18,0,2.06,0.64,2.06,2.14v4.53h0.83v-4.66C112.12,112.94,110.75,112.09,109.39,112.09 M99.55,118.96c-0.94,0-1.98-0.5-1.98-1.65
		c0-1.15,1.18-1.66,2.14-1.66c1.46,0,2.32,0.61,2.32,0.61v1.23C102.03,117.48,101.15,118.96,99.55,118.96 M99.87,112.09
		c-1.54,0-2.74,0.77-2.74,0.77l0.37,0.72c0,0,1.06-0.67,2.38-0.67c0.8,0,2.14,0.3,2.14,2.08v0.54c0,0-0.94-0.69-2.43-0.69
		c-1.42,0-2.9,0.86-2.9,2.46c0,1.62,1.42,2.46,2.66,2.46c1.79,0,2.75-1.46,2.75-1.46v1.26h0.75v-4.78
		C102.86,113.31,101.9,112.09,99.87,112.09 M88.57,119.58h6.18v-0.77H89.4v-10.43h-0.83V119.58z M79.79,112.09
		c-1.5,0-2.13,1.38-2.13,1.38v-1.18h-0.75v7.3h0.83v-5.26c0,0,0.59-1.41,1.86-1.41c0.67,0,0.98,0.18,0.98,0.18l0.35-0.8
		C80.92,112.28,80.48,112.09,79.79,112.09 M71.47,109.92c0,0.35,0.29,0.64,0.64,0.64c0.35,0,0.64-0.29,0.64-0.64
		s-0.29-0.64-0.64-0.64C71.76,109.28,71.47,109.56,71.47,109.92 M68.57,109.92c0,0.35,0.29,0.64,0.64,0.64
		c0.35,0,0.64-0.29,0.64-0.64s-0.29-0.64-0.64-0.64C68.86,109.28,68.57,109.56,68.57,109.92 M70.38,119.77c1.79,0,2.5-1.49,2.5-1.49
		v1.3h0.75v-7.3H72.8v5.07c0,0-0.64,1.6-2.26,1.6c-1.22,0-2.06-0.64-2.06-2.14v-4.53h-0.83v4.66
		C67.64,118.92,68.99,119.77,70.38,119.77 M60.72,113.05h1.57v6.53h0.83v-6.53h1.92v-0.77h-1.92v-2.64c0-0.9,0.34-1.54,1.28-1.54
		c0.5,0,0.93,0.26,0.93,0.26l0.35-0.72c-0.58-0.3-0.96-0.35-1.39-0.35c-0.99,0-2,0.74-2,2.13v2.86h-1.57V113.05z"/>
	<path d="M349.53,98.22c0,0,0.96,1.55,3.12,1.55c1.38,0,2.77-0.7,2.77-2.1c0-1.31-1.09-1.79-2.45-2.1
		c-1.23-0.27-2.19-0.53-2.19-1.42c0-0.75,0.74-1.25,1.73-1.25c1.31,0,2.06,0.82,2.06,0.82l0.54-0.61c0,0-0.9-1.02-2.61-1.02
		c-1.6,0-2.58,1.02-2.58,2.06c0,1.22,0.99,1.82,2.59,2.18c1.14,0.26,2.03,0.51,2.03,1.34c0,0.96-1.1,1.28-1.9,1.28
		c-1.73,0-2.46-1.3-2.46-1.3L349.53,98.22z M342.27,94.32c0,0,0.56-1.41,1.94-1.41c1.1,0,1.78,0.64,1.78,2.13v4.54h0.83v-4.8
		c0-2.05-1.3-2.69-2.42-2.69c-1.62,0-2.29,1.33-2.34,1.42c-0.43-1.02-1.31-1.42-2.21-1.42c-1.63,0-2.27,1.42-2.27,1.42v-1.23h-0.75
		v7.3h0.83v-5.26c0,0,0.62-1.41,2-1.41c1.1,0,1.78,0.64,1.78,2.13v4.54h0.83V94.32z M330.3,99.77c1.79,0,2.5-1.49,2.5-1.49v1.3h0.75
		v-7.3h-0.83v5.07c0,0-0.64,1.6-2.26,1.6c-1.22,0-2.06-0.64-2.06-2.14v-4.53h-0.83v4.66C327.56,98.92,328.91,99.77,330.3,99.77
		 M323.02,89.92c0,0.35,0.29,0.64,0.64,0.64s0.64-0.29,0.64-0.64c0-0.35-0.29-0.64-0.64-0.64S323.02,89.56,323.02,89.92
		 M323.24,99.58h0.83v-7.3h-0.83V99.58z M319.69,92.09c-1.5,0-2.13,1.38-2.13,1.38v-1.18h-0.75v7.3h0.83v-5.26
		c0,0,0.59-1.41,1.86-1.41c0.67,0,0.98,0.18,0.98,0.18l0.35-0.8C320.83,92.28,320.38,92.09,319.69,92.09 M307.88,95.5
		c0.03-0.8,0.7-2.59,2.74-2.59c1.92,0,2.64,1.76,2.67,2.59H307.88z M310.62,92.09c-2.18,0-3.6,1.78-3.6,3.84
		c0,2.08,1.57,3.84,3.74,3.84c1.2,0,2.35-0.64,3.06-1.49l-0.56-0.58c-0.5,0.62-1.38,1.25-2.5,1.25c-1.94,0-2.85-1.58-2.91-2.69h6.29
		c0.02-0.18,0.02-0.19,0.02-0.34C314.15,93.69,312.55,92.09,310.62,92.09 M299.93,93.05h1.58v4.56c0,1.2,0.66,2.16,2.08,2.16
		c0.74,0,1.44-0.43,1.44-0.43l-0.32-0.72c0,0-0.51,0.34-1.09,0.34c-0.99,0-1.28-0.69-1.28-1.5v-4.4h2.48v-0.77h-2.48v-2.35h-0.83
		v2.35h-1.58V93.05z M291.98,98.22c0,0,0.96,1.55,3.12,1.55c1.38,0,2.77-0.7,2.77-2.1c0-1.31-1.09-1.79-2.45-2.1
		c-1.23-0.27-2.19-0.53-2.19-1.42c0-0.75,0.74-1.25,1.73-1.25c1.31,0,2.06,0.82,2.06,0.82l0.54-0.61c0,0-0.9-1.02-2.61-1.02
		c-1.6,0-2.58,1.02-2.58,2.06c0,1.22,0.99,1.82,2.59,2.18c1.14,0.26,2.03,0.51,2.03,1.34c0,0.96-1.1,1.28-1.9,1.28
		c-1.73,0-2.46-1.3-2.46-1.3L291.98,98.22z M287.99,89.92c0,0.35,0.29,0.64,0.64,0.64c0.35,0,0.64-0.29,0.64-0.64
		c0-0.35-0.29-0.64-0.64-0.64C288.28,89.28,287.99,89.56,287.99,89.92 M288.22,99.58h0.83v-7.3h-0.83V99.58z M281.99,92.09
		c-1.79,0-2.5,1.52-2.5,1.52v-1.33h-0.75v7.3h0.83v-5.04c0,0,0.64-1.63,2.26-1.63c1.18,0,2.06,0.64,2.06,2.14v4.53h0.83v-4.66
		C284.73,92.94,283.35,92.09,281.99,92.09 M274.2,89.92c0,0.35,0.29,0.64,0.64,0.64c0.35,0,0.64-0.29,0.64-0.64
		c0-0.35-0.29-0.64-0.64-0.64C274.49,89.28,274.2,89.56,274.2,89.92 M274.43,99.58h0.83v-7.3h-0.83V99.58z M266.39,94.32
		c0,0,0.56-1.41,1.94-1.41c1.1,0,1.78,0.64,1.78,2.13v4.54h0.83v-4.8c0-2.05-1.3-2.69-2.42-2.69c-1.62,0-2.29,1.33-2.34,1.42
		c-0.43-1.02-1.31-1.42-2.21-1.42c-1.63,0-2.27,1.42-2.27,1.42v-1.23h-0.75v7.3h0.83v-5.26c0,0,0.62-1.41,2-1.41
		c1.1,0,1.78,0.64,1.78,2.13v4.54h0.83V94.32z M252.3,98.22c0,0,0.96,1.55,3.12,1.55c1.38,0,2.77-0.7,2.77-2.1
		c0-1.31-1.09-1.79-2.45-2.1c-1.23-0.27-2.19-0.53-2.19-1.42c0-0.75,0.74-1.25,1.73-1.25c1.31,0,2.06,0.82,2.06,0.82l0.54-0.61
		c0,0-0.9-1.02-2.61-1.02c-1.6,0-2.58,1.02-2.58,2.06c0,1.22,0.99,1.82,2.59,2.18c1.14,0.26,2.03,0.51,2.03,1.34
		c0,0.96-1.1,1.28-1.9,1.28c-1.73,0-2.46-1.3-2.46-1.3L252.3,98.22z M243.93,95.5c0.03-0.8,0.7-2.59,2.74-2.59
		c1.92,0,2.64,1.76,2.67,2.59H243.93z M246.67,92.09c-2.18,0-3.6,1.78-3.6,3.84c0,2.08,1.57,3.84,3.74,3.84
		c1.2,0,2.35-0.64,3.06-1.49l-0.56-0.58c-0.5,0.62-1.38,1.25-2.5,1.25c-1.94,0-2.85-1.58-2.91-2.69h6.29
		c0.02-0.18,0.02-0.19,0.02-0.34C250.2,93.69,248.6,92.09,246.67,92.09 M239.29,97.26c0,0-0.8,1.7-2.62,1.7
		c-1.63,0-2.77-1.33-2.77-3.02s1.14-3.02,2.77-3.02c1.84,0,2.62,1.7,2.62,1.7V97.26z M240.12,99.58v-12.1h-0.82v6.03
		c-0.19-0.29-1.04-1.42-2.64-1.42c-2.03,0-3.63,1.57-3.63,3.84c0,2.27,1.6,3.84,3.63,3.84c1.86,0,2.7-1.54,2.7-1.54v1.34H240.12z
		 M227.64,92.09c-1.79,0-2.5,1.52-2.5,1.52v-1.33h-0.75v7.3h0.83v-5.04c0,0,0.64-1.63,2.26-1.63c1.18,0,2.06,0.64,2.06,2.14v4.53
		h0.83v-4.66C230.38,92.94,229,92.09,227.64,92.09 M217.87,99.77c1.79,0,2.5-1.49,2.5-1.49v1.3h0.75v-7.3h-0.83v5.07
		c0,0-0.64,1.6-2.26,1.6c-1.22,0-2.06-0.64-2.06-2.14v-4.53h-0.83v4.66C215.13,98.92,216.47,99.77,217.87,99.77 M206.43,93.44v-4.29
		h2.13c1.54,0,2.4,0.88,2.4,2.11c0,1.22-0.66,2.18-2.18,2.18H206.43z M206.43,98.81V94.2h2.75c1.73,0,2.38,1.23,2.38,2.34
		c0,1.1-0.64,2.27-2.61,2.27H206.43z M205.59,99.58h3.44c2.16,0,3.39-1.25,3.39-3.04c0-2.21-1.74-2.82-1.94-2.86
		c0.19-0.08,1.33-0.72,1.33-2.42c0-1.76-1.28-2.88-3.18-2.88h-3.04V99.58z M191.5,98.22c0,0,0.96,1.55,3.12,1.55
		c1.38,0,2.77-0.7,2.77-2.1c0-1.31-1.09-1.79-2.45-2.1c-1.23-0.27-2.19-0.53-2.19-1.42c0-0.75,0.74-1.25,1.73-1.25
		c1.31,0,2.06,0.82,2.06,0.82l0.54-0.61c0,0-0.9-1.02-2.61-1.02c-1.6,0-2.58,1.02-2.58,2.06c0,1.22,0.99,1.82,2.59,2.18
		c1.14,0.26,2.03,0.51,2.03,1.34c0,0.96-1.1,1.28-1.9,1.28c-1.73,0-2.46-1.3-2.46-1.3L191.5,98.22z M183.13,95.5
		c0.03-0.8,0.7-2.59,2.74-2.59c1.92,0,2.64,1.76,2.67,2.59H183.13z M185.87,92.09c-2.18,0-3.6,1.78-3.6,3.84
		c0,2.08,1.57,3.84,3.74,3.84c1.2,0,2.35-0.64,3.06-1.49l-0.56-0.58c-0.5,0.62-1.38,1.25-2.5,1.25c-1.94,0-2.85-1.58-2.91-2.69h6.29
		c0.02-0.18,0.02-0.19,0.02-0.34C189.4,93.69,187.8,92.09,185.87,92.09 M178.49,97.26c0,0-0.8,1.7-2.62,1.7
		c-1.63,0-2.77-1.33-2.77-3.02s1.14-3.02,2.77-3.02c1.84,0,2.62,1.7,2.62,1.7V97.26z M179.32,99.58v-12.1h-0.82v6.03
		c-0.19-0.29-1.04-1.42-2.64-1.42c-2.03,0-3.63,1.57-3.63,3.84c0,2.27,1.6,3.84,3.63,3.84c1.86,0,2.7-1.54,2.7-1.54v1.34H179.32z
		 M158.73,95.5c0.03-0.8,0.7-2.59,2.74-2.59c1.92,0,2.64,1.76,2.67,2.59H158.73z M161.47,92.09c-2.18,0-3.6,1.78-3.6,3.84
		c0,2.08,1.57,3.84,3.74,3.84c1.2,0,2.35-0.64,3.06-1.49l-0.56-0.58c-0.5,0.62-1.38,1.25-2.5,1.25c-1.94,0-2.85-1.58-2.91-2.69h6.29
		c0.02-0.18,0.02-0.19,0.02-0.34C165,93.69,163.4,92.09,161.47,92.09 M149.15,92.28l3.65,7.62l3.65-7.62h-0.86l-2.77,5.87
		l-2.77-5.87H149.15z M145.64,89.92c0,0.35,0.29,0.64,0.64,0.64c0.35,0,0.64-0.29,0.64-0.64c0-0.35-0.29-0.64-0.64-0.64
		C145.93,89.28,145.64,89.56,145.64,89.92 M145.87,99.58h0.83v-7.3h-0.83V99.58z M137.95,93.05h1.58v4.56c0,1.2,0.66,2.16,2.08,2.16
		c0.74,0,1.44-0.43,1.44-0.43l-0.32-0.72c0,0-0.51,0.34-1.09,0.34c-0.99,0-1.28-0.69-1.28-1.5v-4.4h2.48v-0.77h-2.48v-2.35h-0.83
		v2.35h-1.58V93.05z M132.06,98.96c-0.94,0-1.98-0.5-1.98-1.65c0-1.15,1.18-1.66,2.14-1.66c1.46,0,2.32,0.61,2.32,0.61v1.23
		C134.54,97.48,133.66,98.96,132.06,98.96 M132.38,92.09c-1.54,0-2.74,0.77-2.74,0.77l0.37,0.72c0,0,1.06-0.67,2.38-0.67
		c0.8,0,2.14,0.3,2.14,2.08v0.54c0,0-0.94-0.69-2.43-0.69c-1.42,0-2.9,0.86-2.9,2.46c0,1.62,1.42,2.46,2.66,2.46
		c1.79,0,2.75-1.46,2.75-1.46v1.26h0.75V94.8C135.37,93.31,134.41,92.09,132.38,92.09 M125.07,89.92c0,0.35,0.29,0.64,0.64,0.64
		s0.64-0.29,0.64-0.64c0-0.35-0.29-0.64-0.64-0.64S125.07,89.56,125.07,89.92 M125.29,99.58h0.83v-7.3h-0.83V99.58z M117.37,93.05
		h1.58v4.56c0,1.2,0.66,2.16,2.08,2.16c0.74,0,1.44-0.43,1.44-0.43l-0.32-0.72c0,0-0.51,0.34-1.09,0.34c-0.99,0-1.28-0.69-1.28-1.5
		v-4.4h2.48v-0.77h-2.48v-2.35h-0.83v2.35h-1.58V93.05z M113.53,89.92c0,0.35,0.29,0.64,0.64,0.64c0.35,0,0.64-0.29,0.64-0.64
		c0-0.35-0.29-0.64-0.64-0.64C113.82,89.28,113.53,89.56,113.53,89.92 M113.76,99.58h0.83v-7.3h-0.83V99.58z M107.53,92.09
		c-1.79,0-2.5,1.52-2.5,1.52v-1.33h-0.75v7.3h0.83v-5.04c0,0,0.64-1.63,2.26-1.63c1.18,0,2.06,0.64,2.06,2.14v4.53h0.83v-4.66
		C110.27,92.94,108.89,92.09,107.53,92.09 M99.71,99.58h0.83v-11.2h-0.83V99.58z M85.12,95.5c0.03-0.8,0.7-2.59,2.74-2.59
		c1.92,0,2.64,1.76,2.67,2.59H85.12z M87.85,92.09c-2.18,0-3.6,1.78-3.6,3.84c0,2.08,1.57,3.84,3.74,3.84c1.2,0,2.35-0.64,3.06-1.49
		l-0.56-0.58c-0.5,0.62-1.38,1.25-2.5,1.25c-1.94,0-2.85-1.58-2.91-2.69h6.29c0.02-0.18,0.02-0.19,0.02-0.34
		C91.39,93.69,89.79,92.09,87.85,92.09 M78.86,92.09c-1.79,0-2.5,1.52-2.5,1.52v-1.33h-0.75v7.3h0.83v-5.04c0,0,0.64-1.63,2.26-1.63
		c1.18,0,2.06,0.64,2.06,2.14v4.53h0.83v-4.66C81.6,92.94,80.22,92.09,78.86,92.09 M71.07,89.92c0,0.35,0.29,0.64,0.64,0.64
		s0.64-0.29,0.64-0.64c0-0.35-0.29-0.64-0.64-0.64S71.07,89.56,71.07,89.92 M71.29,99.58h0.83v-7.3h-0.83V99.58z M62.59,89.15h5.38
		v-0.77h-6.21v11.2h6.3v-0.77h-5.47v-4.59h4.99v-0.77h-4.99V89.15z"/>
	<path d="M285.52,52.61c-1.92,0-2.93,1.15-3.26,1.63v-8.4h-2.02v18.14h2.02v-7.63c0,0,0.96-1.87,2.76-1.87
		c1.49,0,2.66,0.82,2.66,2.71v6.79h2.02v-7.13C289.7,54.13,287.73,52.61,285.52,52.61 M275.11,60.82c0,0-1.08,1.58-3.24,1.58
		c-2.23,0-3.7-1.78-3.7-3.96s1.46-3.96,3.7-3.96c1.97,0,3.05,1.34,3.05,1.34l1.37-1.22c0,0-1.58-1.99-4.42-1.99
		c-3.26,0-5.71,2.59-5.71,5.83c0,3.26,2.45,5.83,5.71,5.83c2.93,0,4.54-2.14,4.54-2.14L275.11,60.82z M259.67,49.35
		c0,0.74,0.62,1.37,1.37,1.37s1.37-0.62,1.37-1.37c0-0.74-0.62-1.37-1.37-1.37S259.67,48.61,259.67,49.35 M260.03,63.99h2.02V52.9
		h-2.02V63.99z M247,57.49c0.14-1.15,1.13-3,3.53-3c2.23,0,3.36,1.75,3.43,3H247z M250.53,52.61c-3.34,0-5.54,2.59-5.54,5.83
		c0,3.29,2.42,5.83,5.78,5.83c2.93,0,4.61-2.18,4.61-2.18l-1.27-1.32c0,0-1.15,1.63-3.34,1.63c-2.09,0-3.7-1.56-3.82-3.24h8.95
		c0.02-0.26,0.02-0.43,0.02-0.65C255.93,54.94,253.63,52.61,250.53,52.61 M241.51,52.61c-2.11,0-3.1,1.99-3.1,1.99v-1.7h-1.87v11.09
		h2.02v-7.63c0,0,0.79-1.87,2.54-1.87c0.84,0,1.27,0.24,1.27,0.24l0.74-1.82C243.11,52.9,242.42,52.61,241.51,52.61 M231.91,52.61
		c-2.11,0-3.1,1.99-3.1,1.99v-1.7h-1.87v11.09h2.02v-7.63c0,0,0.79-1.87,2.54-1.87c0.84,0,1.27,0.24,1.27,0.24l0.74-1.82
		C233.51,52.9,232.82,52.61,231.91,52.61 M214.27,57.49c0.14-1.15,1.13-3,3.53-3c2.23,0,3.36,1.75,3.43,3H214.27z M217.79,52.61
		c-3.34,0-5.54,2.59-5.54,5.83c0,3.29,2.42,5.83,5.78,5.83c2.93,0,4.61-2.18,4.61-2.18l-1.27-1.32c0,0-1.15,1.63-3.34,1.63
		c-2.09,0-3.7-1.56-3.82-3.24h8.95c0.02-0.26,0.02-0.43,0.02-0.65C223.19,54.94,220.89,52.61,217.79,52.61 M201.59,54.73h2.16v6.07
		c0,2.45,1.75,3.48,3.34,3.48c0.65,0,1.34-0.14,2.3-0.67l-0.74-1.66c0,0-0.65,0.46-1.27,0.46c-1.08,0-1.61-0.62-1.61-1.7v-5.98h3.46
		V52.9h-3.46v-3.38h-2.02v3.38h-2.16V54.73z M189.47,61.95c0,0,1.63,2.33,4.75,2.33c2.14,0,4.39-1.1,4.39-3.24
		c0-2.26-1.8-3.05-3.91-3.5c-1.82-0.38-2.69-0.84-2.69-1.68c0-0.72,0.7-1.42,2.11-1.42c1.68,0,2.78,1.22,2.78,1.22l1.32-1.37
		c0,0-1.49-1.68-4.1-1.68c-2.47,0-4.08,1.58-4.08,3.19c0,2.09,1.68,3.02,4.06,3.5c1.7,0.34,2.52,0.82,2.52,1.78
		c0,0.89-1.27,1.37-2.4,1.37c-2.18,0-3.36-1.8-3.36-1.8L189.47,61.95z M178.82,43.88c0,0.74,0.62,1.37,1.37,1.37
		s1.37-0.62,1.37-1.37c0-0.74-0.62-1.37-1.37-1.37S178.82,43.13,178.82,43.88 M174.47,43.88c0,0.74,0.62,1.37,1.37,1.37
		c0.74,0,1.37-0.62,1.37-1.37c0-0.74-0.62-1.37-1.37-1.37C175.1,42.51,174.47,43.13,174.47,43.88 M178,62.36
		c-3.67,0-6.14-3.19-6.14-6.77c0-3.58,2.47-6.77,6.14-6.77s6.14,3.19,6.14,6.77C184.15,59.17,181.67,62.36,178,62.36 M178,46.9
		c-4.85,0-8.3,3.84-8.3,8.69s3.46,8.69,8.3,8.69s8.3-3.84,8.3-8.69S182.85,46.9,178,46.9 M156.33,63.99h2.81l-5.62-5.86l5.18-5.23
		h-2.64l-4.75,4.92V45.85h-2.02v18.14h2.02v-5.38L156.33,63.99z M141.62,49.35c0,0.74,0.62,1.37,1.37,1.37s1.37-0.62,1.37-1.37
		c0-0.74-0.62-1.37-1.37-1.37S141.62,48.61,141.62,49.35 M141.98,63.99H144V52.9h-2.02V63.99z M134.66,63.99h2.02V45.85h-2.02V63.99
		z M121.53,56.41c0,0,1.06-1.92,3.26-1.92c2.21,0,3.67,1.78,3.67,3.96s-1.42,3.96-3.67,3.96c-2.21,0-3.26-1.92-3.26-1.92V56.41z
		 M125.11,52.61c-2.45,0-3.58,1.66-3.58,1.66v-8.42h-2.02v18.14h1.85v-1.61c0,0,1.08,1.9,3.74,1.9c3,0,5.38-2.57,5.38-5.83
		S128.11,52.61,125.11,52.61 M109.29,64.28c2.4,0,3.41-1.99,3.41-1.99v1.7h1.87V52.9h-2.02v7.68c0,0-0.89,1.82-2.76,1.82
		c-1.49,0-2.66-0.82-2.66-2.71V52.9h-2.02v7.13C105.12,62.77,107.08,64.28,109.29,64.28 M92.42,56.38c0,0,1.06-1.9,3.26-1.9
		c2.26,0,3.67,1.78,3.67,3.96s-1.42,3.96-3.67,3.96c-2.21,0-3.26-1.9-3.26-1.9V56.38z M90.4,52.9v16.61h2.02v-6.89
		c0.38,0.5,1.54,1.66,3.58,1.66c3,0,5.38-2.57,5.38-5.83S99,52.61,96,52.61c-2.64,0-3.74,1.9-3.74,1.9V52.9H90.4z M77.73,57.49
		c0.14-1.15,1.13-3,3.53-3c2.23,0,3.36,1.75,3.43,3H77.73z M81.26,52.61c-3.34,0-5.54,2.59-5.54,5.83c0,3.29,2.42,5.83,5.78,5.83
		c2.93,0,4.61-2.18,4.61-2.18l-1.27-1.32c0,0-1.15,1.63-3.34,1.63c-2.09,0-3.7-1.56-3.82-3.24h8.95c0.02-0.26,0.02-0.43,0.02-0.65
		C86.66,54.94,84.36,52.61,81.26,52.61 M62.2,63.99h2.02v-6.86h1.56l4.54,6.86h2.42l-4.66-7.03c0.48-0.07,4.1-0.82,4.1-4.8
		c0-3-2.28-4.97-5.62-4.97H62.2V63.99z M66.69,55.21h-2.47v-6.1h2.47c2.26,0,3.48,1.2,3.48,3.05S68.95,55.21,66.69,55.21"/>
	<path d="M173.54,31.95c0,0,1.63,2.33,4.75,2.33c2.14,0,4.39-1.1,4.39-3.24c0-2.26-1.8-3.05-3.91-3.5
		c-1.82-0.38-2.69-0.84-2.69-1.68c0-0.72,0.7-1.42,2.11-1.42c1.68,0,2.78,1.22,2.78,1.22l1.32-1.37c0,0-1.49-1.68-4.1-1.68
		c-2.47,0-4.08,1.58-4.08,3.19c0,2.09,1.68,3.02,4.06,3.5c1.7,0.34,2.52,0.82,2.52,1.78c0,0.89-1.27,1.37-2.4,1.37
		c-2.18,0-3.36-1.8-3.36-1.8L173.54,31.95z M167.3,30.49c0,0-1.06,1.92-3.26,1.92c-2.26,0-3.67-1.78-3.67-3.96
		c0-2.18,1.46-3.96,3.67-3.96s3.26,1.92,3.26,1.92V30.49z M163.72,22.61c-3,0-5.38,2.57-5.38,5.83c0,3.26,2.38,5.83,5.38,5.83
		c2.66,0,3.74-1.9,3.74-1.9v1.61h1.85V15.85h-2.02v8.42C167.3,24.27,166.17,22.61,163.72,22.61 M150.43,22.61
		c-2.4,0-3.41,1.85-3.41,1.85V22.9h-1.87v11.09h2.02v-7.63c0,0,0.96-1.87,2.76-1.87c1.49,0,2.66,0.82,2.66,2.71v6.79h2.02v-7.13
		C154.6,24.13,152.64,22.61,150.43,22.61 M135.69,32.41c-2.23,0-3.7-1.78-3.7-3.96c0-2.18,1.46-3.96,3.7-3.96
		c2.23,0,3.7,1.78,3.7,3.96C139.39,30.63,137.92,32.41,135.69,32.41 M135.69,22.61c-3.26,0-5.71,2.57-5.71,5.83
		c0,3.26,2.45,5.83,5.71,5.83c3.26,0,5.71-2.57,5.71-5.83C141.4,25.18,138.96,22.61,135.69,22.61 M120.31,24.73h2.3v9.26h2.02v-9.26
		h2.88V22.9h-2.88v-3.7c0-1.08,0.6-1.78,1.68-1.78c0.62,0,1.3,0.43,1.3,0.43l0.74-1.66c-0.96-0.53-1.68-0.65-2.33-0.65
		c-1.58,0-3.41,1.18-3.41,3.53v3.82h-2.3V24.73z M114.4,30.49c0,0-1.06,1.92-3.26,1.92c-2.26,0-3.67-1.78-3.67-3.96
		c0-2.18,1.46-3.96,3.67-3.96c2.21,0,3.26,1.92,3.26,1.92V30.49z M110.83,22.61c-3,0-5.38,2.57-5.38,5.83
		c0,3.26,2.38,5.83,5.38,5.83c2.66,0,3.74-1.9,3.74-1.9v1.61h1.85V15.85h-2.02v8.42C114.4,24.27,113.28,22.61,110.83,22.61
		 M99.26,33.99h2.02V15.85h-2.02V33.99z M89.13,32.5c-1.25,0-2.54-0.58-2.54-2.02c0-1.15,1.08-2.02,2.81-2.02
		c1.8,0,2.9,0.79,2.9,0.79v1.56C92.3,30.82,91.1,32.5,89.13,32.5 M89.49,22.61c-2.42,0-4.15,1.13-4.15,1.13l0.84,1.68
		c0,0,1.63-0.94,3.31-0.94c0.89,0,2.81,0.31,2.81,2.62v0.6c0,0-1.3-0.91-3.34-0.91c-2.5,0-4.39,1.54-4.39,3.7
		c0,2.4,2.14,3.79,4.13,3.79c2.52,0,3.77-1.9,3.77-1.9v1.61h1.85v-7.3C94.32,24.63,92.76,22.61,89.49,22.61 M82.94,17.19H80.8
		l-4.3,11.64l-4.08-11.64h-1.46l-4.13,11.64l-4.25-11.64h-2.26l6.46,17.28l4.85-13.22l4.82,13.22L82.94,17.19z"/>
</g>
<polygon class="st0" points="43.23,22.68 43.23,17.01 17.01,17.01 19.65,22.68 "/>
<polygon class="st0" points="24.94,34.01 43.23,34.01 43.23,28.35 22.29,28.35 "/>
</svg>
