<svg xmlns="http://www.w3.org/2000/svg" width="83" height="76" viewBox="0 0 83 76"><g><g><path fill="#fff" d="M47.477 23.452c-1.382 0-1.72 1.52-1.72 2.37v6.312h7.836l-1.71 8.548-6.12.039.038 19.826-9.91-.076V40.779l-6.14-.035v-8.54l6.067-.117.077-9.163c0-4.034 3.867-7.983 6.958-7.983l9.035.039.154 8.548-4.565-.076zm30.02 14.24L59.612 6.84H23.845L5.96 37.69l17.884 30.854h35.768zm2.765 4.6L57.03 73.188l-38.594-4.544-15.36-35.44L26.308 2.309 64.9 6.852zm2.18.257L66.22 5.056 25.446.256.894 32.948 17.117 70.44l40.774 4.8z"/></g></g></svg>