<svg xmlns="http://www.w3.org/2000/svg" width="83" height="76" viewBox="0 0 83 76"><g><g><path fill="#fff" d="M46.935 37.951s-.415-5.248-5.255-5.248-5.255 5.248-5.255 5.248-.152 5.249 5.255 5.249c5.41 0 5.255-5.249 5.255-5.249zm10.51-10.497V24.83a2.625 2.625 0 0 0-2.628-2.625H52.19a2.627 2.627 0 0 0-2.628 2.625v2.624a2.627 2.627 0 0 0 2.628 2.624h2.627a2.625 2.625 0 0 0 2.628-2.624zm-2.703 26.655c1.453 0 3.116-1.624 3.116-3.074V37.914c0-1.45-1.588-2.925-3.04-2.925h-3.002c.218.844.374 2.05.374 2.962 0 5.797-4.706 10.497-10.51 10.497-5.804 0-10.51-4.7-10.51-10.497 0-.912.153-2.155.374-2.999h-3.001c-1.453 0-3.116 1.55-3.116 3v13.12c0 1.45 1.588 3.037 3.04 3.037zM62.7 22.205v31.492a5.254 5.254 0 0 1-5.254 5.249h-31.53a5.254 5.254 0 0 1-5.254-5.249V22.205a5.254 5.254 0 0 1 5.255-5.248h31.529c2.9 0 5.254 2.351 5.254 5.248zM77.48 37.894L59.55 6.874H23.69L5.76 37.895l17.93 31.018h35.86zm2.773 4.624L56.96 73.581l-38.693-4.568-15.4-35.631L26.16 2.319l38.693 4.568zm2.186.258L66.175 5.082 25.295.256.682 33.124l16.264 37.694 40.88 4.826z"/></g></g></svg>