<svg xmlns="http://www.w3.org/2000/svg" width="62" height="62" viewBox="0 0 62 62"><g><g><path fill="#fff" d="M10.989 45.675H6.622l-1.36 7.73 3.742 3.728 7.76-1.354v-4.351h-5.775zm6.725-4.327l18.528-18.46a1.667 1.667 0 0 0 0-2.372 1.682 1.682 0 0 0-2.382 0L15.332 38.974a1.667 1.667 0 0 0 0 2.374c.662.659 1.72.659 2.382 0zm16.88-28.78a1.463 1.463 0 0 1 2.057 0l13.354 13.306a1.436 1.436 0 0 1 0 2.037L18.412 59.387 3.794 61.94C1.821 62.276.101 60.573.45 58.608L3 44.045l31.594-31.476zm25.71 5.071l-5.546 5.526a1.449 1.449 0 0 1-2.046 0L39.358 9.86a1.436 1.436 0 0 1 0-2.038l5.546-5.525c2.25-2.242 5.907-2.242 8.17 0l7.23 7.203a5.729 5.729 0 0 1 0 8.139z"/></g></g></svg>