<svg xmlns="http://www.w3.org/2000/svg" width="25" height="29" viewBox="0 0 25 29"><g><g><path fill="#fff" d="M9.054 18.943c.868.828 1.924 1.241 3.17 1.24 1.246-.001 2.314-.414 3.206-1.24.892-.825 1.338-1.83 1.339-3.015 0-1.185-.446-2.201-1.339-3.05-.893-.847-1.961-1.272-3.206-1.272-1.244 0-2.301.424-3.17 1.273-.87.849-1.304 1.865-1.304 3.049.001 1.182.436 2.187 1.304 3.015zM24.237 8.792L15.218.214H3.24c-.845 0-1.56.28-2.148.838C.504 1.61.21 2.27.21 3.03v22.916c0 .76.294 1.419.88 1.977.588.559 1.28.838 2.079.838h18.107c.61 0 1.198-.178 1.762-.536l-6.623-6.366c-1.316.804-2.701 1.206-4.157 1.206-2.067 0-3.84-.703-5.32-2.11-1.48-1.408-2.22-3.094-2.22-5.06.001-1.966.741-3.64 2.22-5.025 1.48-1.385 3.254-2.077 5.32-2.077 2.068 0 3.829.692 5.285 2.077 1.456 1.384 2.184 3.06 2.184 5.025 0 1.43-.4 2.748-1.198 3.954l5.707 5.494z"/></g></g></svg>