<svg width="551" height="91" viewBox="0 0 551 91" fill="none" xmlns="http://www.w3.org/2000/svg">
<path d="M20.8711 73.7998C25.5938 73.7998 29.8594 73.0381 33.6299 70.8291C34.0107 70.6387 34.1631 70.1055 34.1631 69.4199C34.1631 67.9727 33.5156 65.8398 32.9062 64.2402C32.0303 61.917 30.8496 59.5557 29.5928 59.5557C29.4023 59.5557 29.25 59.5938 29.0596 59.6699C26.9268 60.9648 24.6416 61.7266 22.166 61.7266C17.8623 61.7266 14.8916 58.2607 14.8916 53.6143C14.8916 48.9297 17.8623 45.4639 22.166 45.4639C24.6416 45.4639 26.8887 46.2637 28.9453 47.4824C29.0977 47.5967 29.2881 47.6348 29.4404 47.6348C30.6973 47.6348 32.1064 45.0068 33.0205 42.6074C33.5918 41.1602 34.2393 39.2939 34.2393 37.9609C34.2393 37.1992 34.0488 36.6279 33.5537 36.3613C29.7832 34.1904 25.6699 33.4287 20.8711 33.4287C10.5498 33.4287 2.01855 41.2744 2.01855 53.6143C2.01855 66.0684 10.5498 73.7998 20.8711 73.7998ZM58.0811 73.7998C70.2686 73.7998 77.8857 64.7354 77.8857 53.6143C77.8857 42.4551 70.2686 33.4287 58.0811 33.4287C45.9316 33.4287 38.3525 42.4551 38.3525 53.6143C38.3525 64.7354 45.9316 73.7998 58.0811 73.7998ZM58.0811 61.7266C53.8916 61.7266 51.0732 58.1084 51.0732 53.6143C51.0732 49.082 53.8916 45.4639 58.0811 45.4639C62.3086 45.4639 65.127 49.1201 65.127 53.6143C65.127 58.0703 62.3086 61.7266 58.0811 61.7266Z" fill="#ECECEC"/>
<path d="M209.978 74.7998C215.348 74.7998 220.261 73.6953 224.983 70.877C225.44 70.6484 225.593 70.1533 225.593 69.5059C225.593 68.3252 225.021 66.6494 224.374 65.0117C223.612 62.9551 222.774 61.127 221.67 61.127C221.479 61.127 221.289 61.165 221.099 61.2793C218.09 63.1074 215.005 63.9453 211.463 63.9453C207.616 63.9453 204.341 61.6221 203.808 58.042H226.24C227.383 58.042 227.421 56.3281 227.421 54.6143C227.421 43.3789 222.051 34.4287 210.13 34.4287C198.78 34.4287 191.125 43.0742 191.125 54.4238C191.125 65.9258 198.361 74.7998 209.978 74.7998ZM215.233 50.8438H203.655C203.96 48.0254 206.245 44.9785 210.13 44.9785C214.015 44.9785 215.157 47.7969 215.233 50.8438ZM250.196 74.7998C254.919 74.7998 259.185 74.0381 262.955 71.8291C263.336 71.6387 263.488 71.1055 263.488 70.4199C263.488 68.9727 262.841 66.8398 262.231 65.2402C261.355 62.917 260.175 60.5557 258.918 60.5557C258.728 60.5557 258.575 60.5938 258.385 60.6699C256.252 61.9648 253.967 62.7266 251.491 62.7266C247.188 62.7266 244.217 59.2607 244.217 54.6143C244.217 49.9297 247.188 46.4639 251.491 46.4639C253.967 46.4639 256.214 47.2637 258.271 48.4824C258.423 48.5967 258.613 48.6348 258.766 48.6348C260.022 48.6348 261.432 46.0068 262.346 43.6074C262.917 42.1602 263.564 40.2939 263.564 38.9609C263.564 38.1992 263.374 37.6279 262.879 37.3613C259.108 35.1904 254.995 34.4287 250.196 34.4287C239.875 34.4287 231.344 42.2744 231.344 54.6143C231.344 67.0684 239.875 74.7998 250.196 74.7998ZM288.282 74.7998C292.662 74.7998 296.204 74.0762 299.556 72.1719C299.975 71.9434 300.127 71.4102 300.127 70.7627C300.127 69.3916 299.441 67.373 298.908 65.9639C298.108 63.7168 297.271 61.8125 296.128 61.8125C295.938 61.8125 295.747 61.8506 295.557 61.9648C293.843 62.9551 291.977 63.4502 290.415 63.4502C288.016 63.4502 287.216 61.584 287.216 59.6416V46.2734H295.176C296.813 46.2734 296.813 43.4932 296.813 40.751C296.813 37.9707 296.813 35.2285 295.176 35.2285H287.216V25.3262C287.216 23.7646 284.017 23.7646 280.817 23.7646C277.656 23.7646 274.419 23.7646 274.419 25.3262V35.2285H268.82C267.259 35.2285 267.259 37.9707 267.259 40.751C267.259 43.4932 267.259 46.2734 268.82 46.2734H274.419V59.6416C274.419 69.3154 278.913 74.7998 288.282 74.7998ZM433.123 74.7998C442.835 74.7998 449.31 65.7354 449.31 54.6143C449.31 43.4932 442.835 34.4287 433.123 34.4287C429.505 34.4287 425.544 36.0664 422.878 39.9131V18.1279C422.878 16.5664 419.717 16.5664 416.556 16.5664C413.318 16.5664 410.157 16.5664 410.157 18.1279V72.8574C410.157 74.3809 413.166 74.3809 416.175 74.3809C419.184 74.3809 422.192 74.3809 422.192 72.8574V68.7822C425.011 72.8574 429.2 74.7998 433.123 74.7998ZM429.391 62.7266C425.125 62.7266 422.192 59.1084 422.192 54.6143C422.192 50.1201 425.125 46.4639 429.353 46.4639C433.618 46.4639 436.551 50.1201 436.551 54.6143C436.551 59.1084 433.618 62.7266 429.391 62.7266ZM463.287 31.2295C468.505 31.2295 470.942 28.5635 470.942 24.1455C470.942 19.6895 468.505 17.0234 463.287 17.0234C458.069 17.0234 455.632 19.6895 455.632 24.1455C455.632 28.5635 458.069 31.2295 463.287 31.2295ZM463.287 74.3809C466.486 74.3809 469.647 74.3809 469.647 72.8193V36.4092C469.647 34.8477 466.486 34.8477 463.325 34.8477C460.088 34.8477 456.889 34.8477 456.889 36.4092V72.8193C456.889 74.3809 460.088 74.3809 463.287 74.3809ZM496.346 74.7998C508.533 74.7998 516.15 65.7354 516.15 54.6143C516.15 43.4551 508.533 34.4287 496.346 34.4287C484.196 34.4287 476.617 43.4551 476.617 54.6143C476.617 65.7354 484.196 74.7998 496.346 74.7998ZM496.346 62.7266C492.156 62.7266 489.338 59.1084 489.338 54.6143C489.338 50.082 492.156 46.4639 496.346 46.4639C500.573 46.4639 503.392 50.1201 503.392 54.6143C503.392 59.0703 500.573 62.7266 496.346 62.7266Z" fill="#ECECEC"/>
<path d="M313.686 74.3809C316.885 74.3809 320.122 74.3809 320.122 72.8193V46.2354H327.358C328.92 46.2354 328.92 43.4932 328.92 40.751C328.92 37.9707 328.92 35.2285 327.358 35.2285H320.122V31.5723C320.122 29.5156 321.417 27.6113 324.007 27.6113C325.911 27.6113 328.006 28.0684 329.796 29.0967C329.986 29.1729 330.177 29.249 330.367 29.249C331.662 29.249 332.69 26.9639 333.452 24.7549C333.985 23.1553 334.404 21.5557 334.404 20.4131C334.404 19.6514 334.214 19.0801 333.795 18.8516C330.481 16.9473 327.358 16.2617 322.94 16.2617C313.647 16.2617 307.325 21.8984 307.325 31.5723V35.2285H303.326C301.765 35.2285 301.727 37.9707 301.727 40.751C301.727 43.4932 301.765 46.2354 303.326 46.2354H307.325V72.8193C307.325 74.3809 310.486 74.3809 313.686 74.3809ZM350.477 74.7998C362.664 74.7998 370.281 65.7354 370.281 54.6143C370.281 43.4551 362.664 34.4287 350.477 34.4287C338.327 34.4287 330.748 43.4551 330.748 54.6143C330.748 65.7354 338.327 74.7998 350.477 74.7998ZM350.477 62.7266C346.287 62.7266 343.469 59.1084 343.469 54.6143C343.469 50.082 346.287 46.4639 350.477 46.4639C354.704 46.4639 357.522 50.1201 357.522 54.6143C357.522 59.0703 354.704 62.7266 350.477 62.7266ZM384.487 74.3809C387.725 74.3809 390.924 74.3809 390.924 72.8193V54.0811C390.924 50.1201 392.562 46.959 396.18 46.959C397.17 46.959 398.16 47.1494 399.493 47.9111C399.722 48.0635 399.95 48.1396 400.179 48.1396C401.512 48.1396 402.654 45.626 403.454 43.1885C403.949 41.7031 404.559 39.875 404.559 38.5039C404.559 37.7803 404.406 37.209 404.025 36.8281C402.083 35.1143 400.483 34.4287 398.617 34.4287C395.266 34.4287 392.485 36.1807 390.162 39.9131V36.5615C390.162 34.8857 387.153 34.8857 384.145 34.8857C381.136 34.8857 378.127 34.8857 378.127 36.5615V72.8193C378.127 74.3809 381.288 74.3809 384.487 74.3809Z" fill="#94CEC4"/>
<path d="M125.105 58.9621C126.932 57.8996 127.928 55.9263 127.928 53.8012C127.928 51.6762 126.766 49.7029 124.773 48.6403C123.942 47.7296 122.613 46.6671 122.613 45.6045C122.613 44.3902 124.108 43.1759 125.105 42.2651C126.932 41.2026 127.928 39.2293 127.928 37.1043C127.928 33.6131 124.939 30.8809 121.119 30.8809C118.793 30.8809 116.634 31.9434 115.472 33.6131C113.146 35.2828 111.153 35.7381 109.825 35.7381C107.832 35.5864 105.838 33.1577 104.676 31.7916C103.181 29.5147 100.524 27.9968 97.368 27.9968C92.7175 27.9968 88.8975 31.488 88.8975 35.7381C88.8975 38.9257 90.8905 41.5062 93.8801 42.7205C95.0427 43.4795 97.2019 44.2384 97.2019 45.301C97.2019 46.5153 95.8732 47.5778 94.8766 48.4886C93.0497 49.5511 91.8871 51.5244 91.8871 53.6494C91.8871 55.7745 93.0497 57.7478 94.8766 58.8103H94.7106C95.541 59.7211 97.2019 60.7836 97.2019 62.1497C97.2019 63.364 95.7071 64.5784 94.8766 65.3373C95.2088 65.1855 95.541 64.8819 96.0393 64.7302C93.714 65.6409 91.8871 67.9178 91.8871 70.4982C91.8871 73.9894 94.8767 76.7216 98.6967 76.7216C102.517 76.7216 105.506 73.9894 105.506 70.4982C105.506 68.3731 104.344 66.3999 102.517 65.3373C101.686 64.4266 100.191 63.364 100.191 62.1497C100.191 60.9354 101.686 59.7211 102.683 58.8103C104.51 57.7478 105.506 55.7745 105.506 53.6494C105.506 51.5244 104.344 49.5511 102.351 48.4886C101.52 47.5778 100.191 46.5153 100.191 45.4527C100.191 44.2384 101.686 43.0241 102.683 42.1134C103.347 41.658 103.845 41.2026 104.344 40.5955C104.344 40.5955 104.344 40.5955 104.344 40.7472C105.34 39.9883 107.832 38.4704 110.157 38.4704C112.648 38.4704 114.807 39.8365 115.804 40.5955C116.302 41.2026 116.966 41.8098 117.631 42.2651H117.465C118.295 43.1759 119.956 44.2384 119.956 45.6045C119.956 46.8189 118.627 47.8814 117.631 48.7921C115.804 49.8547 114.641 51.828 114.641 53.953C114.641 56.0781 115.804 58.0514 117.631 59.1139H117.465C118.295 60.0246 119.956 61.0872 119.956 62.4533C119.956 63.6676 118.461 64.882 117.631 65.6409C117.963 65.4891 118.295 65.1855 118.793 65.0337C116.468 65.9445 114.641 68.2213 114.641 70.8018C114.641 74.293 117.631 77.0252 121.451 77.0252C125.271 77.0252 128.26 74.293 128.26 70.8018C128.26 68.6767 127.098 66.7034 125.271 65.6409C124.44 64.7302 122.946 63.6676 122.946 62.4533C122.613 60.9354 124.274 59.8729 125.105 58.9621ZM98.5306 60.0246C98.0323 60.0246 97.7002 60.0246 97.2019 59.8729C97.7002 60.0246 98.1984 60.0246 98.5306 60.0246ZM98.5306 64.4266C98.0323 64.4266 97.7002 64.4266 97.2019 64.5784C97.7002 64.4266 98.1984 64.4266 98.5306 64.4266ZM95.8732 59.5693C95.541 59.4175 95.2088 59.2657 94.8766 59.1139C95.2088 59.2657 95.541 59.4175 95.8732 59.5693ZM97.0358 59.8729C96.7036 59.8729 96.3715 59.7211 96.0393 59.5693C96.3715 59.7211 96.7036 59.8729 97.0358 59.8729ZM97.0358 64.5784C96.7036 64.5784 96.3715 64.7302 96.0393 64.882C96.3715 64.7302 96.7036 64.5784 97.0358 64.5784ZM101.52 65.0337C101.686 65.0337 101.852 65.1855 101.852 65.1855C101.686 65.1855 101.686 65.0337 101.52 65.0337ZM98.6967 64.4266C99.0289 64.4266 99.5271 64.4266 99.8593 64.5784C99.361 64.4266 99.0289 64.4266 98.6967 64.4266ZM100.358 64.5784C100.524 64.5784 100.856 64.7302 101.022 64.7302C100.69 64.7302 100.524 64.7302 100.358 64.5784ZM98.6967 60.0246C99.0289 60.0246 99.5271 60.0246 99.8593 59.8729C99.361 60.0246 99.0289 60.0246 98.6967 60.0246ZM101.52 59.4175C101.686 59.4175 101.686 59.2657 101.852 59.2657C101.686 59.2657 101.686 59.4175 101.52 59.4175ZM100.358 59.8729C100.524 59.8729 100.69 59.7211 101.022 59.7211C100.69 59.7211 100.524 59.8729 100.358 59.8729ZM101.52 42.7205C101.686 42.7205 101.686 42.5687 101.852 42.5687C101.686 42.5687 101.686 42.7205 101.52 42.7205ZM104.344 40.2919C104.344 40.4437 104.344 40.4437 104.344 40.2919C104.344 40.4437 104.344 40.4437 104.344 40.2919ZM114.807 35.131C114.641 35.131 114.641 35.2828 114.807 35.131C114.641 35.2828 114.641 35.131 114.807 35.131ZM114.973 39.8365C114.973 39.9883 115.139 39.9883 115.139 40.1401C115.139 39.9883 115.139 39.8365 114.973 39.8365ZM114.641 38.774C114.641 38.9257 114.641 38.9258 114.807 39.0775C114.807 39.0775 114.641 38.9257 114.641 38.774ZM121.119 64.4266C120.62 64.4266 120.288 64.4266 119.79 64.5784C120.288 64.4266 120.786 64.4266 121.119 64.4266ZM119.956 60.0246C120.288 60.0246 120.786 60.1764 121.285 60.1764C120.786 60.0246 120.288 60.0246 119.956 60.0246ZM124.108 59.4175C124.274 59.4175 124.274 59.2657 124.44 59.2657C124.44 59.2657 124.274 59.4175 124.108 59.4175ZM122.946 59.8729C123.112 59.8729 123.278 59.7211 123.61 59.7211C123.278 59.7211 123.112 59.8729 122.946 59.8729ZM122.447 60.0246C122.115 60.0246 121.783 60.1764 121.285 60.1764C121.617 60.0246 122.115 60.0246 122.447 60.0246ZM121.285 43.3277C121.617 43.3277 122.115 43.3277 122.447 43.1759C122.115 43.3277 121.617 43.3277 121.285 43.3277ZM124.108 42.7205C124.274 42.7205 124.274 42.5687 124.44 42.5687C124.44 42.5687 124.274 42.7205 124.108 42.7205ZM122.946 43.1759C123.112 43.1759 123.278 43.0241 123.61 43.0241C123.278 43.0241 123.112 43.0241 122.946 43.1759ZM118.461 42.7205C118.129 42.5687 117.797 42.4169 117.465 42.2651C117.797 42.5687 118.129 42.7205 118.461 42.7205ZM121.119 43.3277C120.62 43.3277 120.288 43.3277 119.79 43.1759C120.288 43.3277 120.786 43.3277 121.119 43.3277ZM119.624 43.1759C119.292 43.1759 118.96 43.0241 118.627 42.8723C118.96 43.0241 119.292 43.0241 119.624 43.1759ZM118.461 59.5693C118.129 59.4175 117.797 59.2657 117.465 59.1139C117.797 59.2657 118.129 59.4175 118.461 59.5693ZM119.624 59.8729C119.292 59.8729 118.96 59.7211 118.627 59.5693C118.96 59.7211 119.292 59.8729 119.624 59.8729ZM119.624 64.5784C119.292 64.5784 118.96 64.7302 118.627 64.882C118.96 64.7302 119.292 64.5784 119.624 64.5784ZM124.108 65.0337C124.274 65.0337 124.44 65.1855 124.44 65.1855C124.44 65.1855 124.274 65.0337 124.108 65.0337ZM121.285 64.4266C121.617 64.4266 122.115 64.4266 122.447 64.5784C121.949 64.4266 121.617 64.4266 121.285 64.4266ZM122.946 64.5784C123.112 64.5784 123.444 64.7302 123.61 64.7302C123.278 64.7302 123.112 64.7302 122.946 64.5784Z" fill="#93CEC3"/>
<path d="M174.1 58.9624C175.927 57.8998 176.923 55.9265 176.923 53.8015C176.923 51.6764 175.761 49.7031 173.768 48.6406C172.937 47.7298 171.609 46.6673 171.609 45.6048C171.609 44.3905 173.103 43.1761 174.1 42.2654C175.927 41.2029 176.923 39.2296 176.923 37.1045C176.923 33.6133 173.934 30.8811 170.114 30.8811C167.789 30.8811 165.629 31.9436 164.467 33.6133C162.142 35.283 160.148 35.7384 158.82 35.7384C156.827 35.5866 154.834 33.158 153.671 31.7918C152.176 29.515 149.519 27.9971 146.363 27.9971C141.713 27.9971 137.893 31.4883 137.893 35.7384C137.893 38.926 139.886 41.5064 142.875 42.7208C144.038 43.4797 146.197 44.2387 146.197 45.3012C146.197 46.5155 144.868 47.5781 143.872 48.4888C142.045 49.5513 140.882 51.5246 140.882 53.6497C140.882 55.7748 142.045 57.748 143.872 58.8106H143.706C144.536 59.7213 146.197 60.7838 146.197 62.15C146.197 63.3643 144.702 64.5786 143.872 65.3376C144.204 65.1858 144.536 64.8822 145.034 64.7304C142.709 65.6411 140.882 67.918 140.882 70.4984C140.882 73.9896 143.872 76.7219 147.692 76.7219C151.512 76.7219 154.501 73.9896 154.501 70.4984C154.501 68.3734 153.339 66.4001 151.512 65.3376C150.681 64.4268 149.187 63.3643 149.187 62.15C149.187 60.9356 150.681 59.7213 151.678 58.8106C153.505 57.748 154.501 55.7748 154.501 53.6497C154.501 51.5246 153.339 49.5513 151.346 48.4888C150.515 47.5781 149.187 46.5155 149.187 45.453C149.187 44.2387 150.681 43.0243 151.678 42.1136C152.342 41.6582 152.841 41.2029 153.339 40.5957C153.339 40.5957 153.339 40.5957 153.339 40.7475C154.335 39.9885 156.827 38.4706 159.152 38.4706C161.643 38.4706 163.802 39.8367 164.799 40.5957C165.297 41.2029 165.962 41.81 166.626 42.2654H166.46C167.29 43.1761 168.951 44.2387 168.951 45.6048C168.951 46.8191 167.622 47.8816 166.626 48.7924C164.799 49.8549 163.636 51.8282 163.636 53.9533C163.636 56.0783 164.799 58.0516 166.626 59.1141H166.46C167.29 60.0249 168.951 61.0874 168.951 62.4535C168.951 63.6679 167.456 64.8822 166.626 65.6412C166.958 65.4894 167.29 65.1858 167.789 65.034C165.463 65.9447 163.636 68.2216 163.636 70.802C163.636 74.2932 166.626 77.0254 170.446 77.0254C174.266 77.0254 177.256 74.2932 177.256 70.802C177.256 68.677 176.093 66.7037 174.266 65.6412C173.436 64.7304 171.941 63.6679 171.941 62.4535C171.609 60.9356 173.103 59.8731 174.1 58.9624ZM147.526 60.0249C147.027 60.0249 146.695 60.0249 146.197 59.8731C146.695 60.0249 147.027 60.0249 147.526 60.0249ZM147.526 64.4268C147.027 64.4268 146.695 64.4268 146.197 64.5786C146.695 64.4268 147.027 64.4268 147.526 64.4268ZM144.702 59.5695C144.37 59.4177 144.038 59.2659 143.706 59.1141C144.038 59.2659 144.37 59.4177 144.702 59.5695ZM146.031 59.8731C145.699 59.8731 145.367 59.7213 145.034 59.5695C145.367 59.7213 145.699 59.8731 146.031 59.8731ZM146.031 64.5786C145.699 64.5786 145.367 64.7304 145.034 64.8822C145.367 64.7304 145.699 64.5786 146.031 64.5786ZM150.515 65.034C150.681 65.034 150.847 65.1858 150.847 65.1858C150.681 65.1858 150.515 65.034 150.515 65.034ZM147.692 64.4268C148.024 64.4268 148.522 64.4268 148.854 64.5786C148.356 64.4268 148.024 64.4268 147.692 64.4268ZM149.187 64.5786C149.353 64.5786 149.685 64.7304 149.851 64.7304C149.685 64.7304 149.519 64.7304 149.187 64.5786ZM147.692 60.0249C148.024 60.0249 148.522 60.0249 148.854 59.8731C148.356 60.0249 148.024 60.0249 147.692 60.0249ZM150.515 59.4177C150.681 59.4177 150.681 59.2659 150.847 59.2659C150.681 59.2659 150.681 59.4177 150.515 59.4177ZM149.353 59.8731C149.519 59.8731 149.685 59.7213 150.017 59.7213C149.685 59.7213 149.519 59.8731 149.353 59.8731ZM150.515 42.7208C150.681 42.7208 150.681 42.569 150.847 42.569C150.681 42.569 150.681 42.7208 150.515 42.7208ZM153.339 40.2921C153.339 40.4439 153.339 40.4439 153.339 40.2921C153.339 40.4439 153.339 40.4439 153.339 40.2921ZM163.636 35.1312C163.636 35.1312 163.636 35.283 163.636 35.1312C163.636 35.283 163.636 35.1312 163.636 35.1312ZM163.968 39.8367C163.968 39.9885 164.135 39.9885 164.135 40.1403C164.135 39.9885 164.135 39.8367 163.968 39.8367ZM163.636 38.7742C163.636 38.926 163.636 38.926 163.802 39.0778C163.636 39.0778 163.636 38.926 163.636 38.7742ZM170.114 64.4268C169.616 64.4268 169.283 64.4268 168.785 64.5786C169.283 64.4268 169.616 64.4268 170.114 64.4268ZM168.951 60.0249C169.283 60.0249 169.782 60.1767 170.28 60.1767C169.616 60.0249 169.283 60.0249 168.951 60.0249ZM173.103 59.4177C173.269 59.4177 173.269 59.2659 173.436 59.2659C173.269 59.2659 173.269 59.4177 173.103 59.4177ZM171.941 59.8731C172.107 59.8731 172.273 59.7213 172.605 59.7213C172.273 59.7213 172.107 59.8731 171.941 59.8731ZM171.276 60.0249C170.944 60.0249 170.612 60.1767 170.114 60.1767C170.612 60.0249 170.944 60.0249 171.276 60.0249ZM170.28 43.3279C170.612 43.3279 171.11 43.3279 171.442 43.1761C170.944 43.3279 170.612 43.3279 170.28 43.3279ZM173.103 42.7208C173.269 42.7208 173.269 42.569 173.436 42.569C173.269 42.569 173.269 42.7208 173.103 42.7208ZM171.941 43.1761C172.107 43.1761 172.273 43.0243 172.605 43.0243C172.273 43.0243 172.107 43.0243 171.941 43.1761ZM167.29 42.7208C166.958 42.569 166.626 42.4172 166.294 42.2654C166.792 42.569 166.958 42.7208 167.29 42.7208ZM170.114 43.3279C169.616 43.3279 169.283 43.3279 168.785 43.1761C169.283 43.3279 169.782 43.3279 170.114 43.3279ZM168.619 43.1761C168.287 43.1761 167.955 43.0243 167.622 42.8726C167.955 43.0243 168.287 43.0243 168.619 43.1761ZM167.29 59.5695C166.958 59.4177 166.626 59.2659 166.294 59.1141C166.792 59.2659 166.958 59.4177 167.29 59.5695ZM168.619 59.8731C168.287 59.8731 167.955 59.7213 167.622 59.5695C167.955 59.7213 168.287 59.8731 168.619 59.8731ZM168.619 64.5786C168.287 64.5786 167.955 64.7304 167.622 64.8822C167.955 64.7304 168.287 64.5786 168.619 64.5786ZM173.103 65.034C173.269 65.034 173.436 65.1858 173.436 65.1858C173.269 65.1858 173.269 65.034 173.103 65.034ZM170.28 64.4268C170.612 64.4268 171.11 64.4268 171.442 64.5786C170.944 64.4268 170.612 64.4268 170.28 64.4268ZM171.775 64.5786C171.941 64.5786 172.273 64.7304 172.439 64.7304C172.273 64.7304 172.107 64.7304 171.775 64.5786Z" fill="#93CFC4"/>
<path d="M128.097 74.8998C128.927 73.8373 129.426 72.0158 129.426 70.6497C129.426 69.2836 128.595 67.1585 127.765 66.0959C128.761 66.8549 132.747 67.9174 134.408 67.9174C136.235 67.9174 140.221 67.0067 141.052 66.2477C140.221 67.3103 139.391 69.4353 139.391 70.8015C139.391 72.1676 139.889 73.9891 140.72 75.0516C139.723 74.2926 136.235 73.6855 134.408 73.6855C132.747 73.5337 129.093 74.1409 128.097 74.8998Z" fill="#D9D9D9"/>
<path d="M79.0996 58.8102C79.5979 57.2923 79.9301 55.1672 79.9301 53.8011C79.9301 52.435 79.4318 49.551 79.0996 48.3367C80.0961 49.0956 84.0823 50.0064 85.5771 50.0064C86.9058 50.0064 91.2241 49.2474 92.2206 48.4885C91.3902 49.551 90.2276 52.2832 90.2276 53.6493C90.2276 55.0155 91.058 57.7477 92.3867 58.8102C91.3902 58.0513 87.238 57.4441 85.5771 57.4441C83.584 57.2923 79.9301 58.0513 79.0996 58.8102Z" fill="#D9D9D9"/>
<path d="M189.881 48.3367C189.383 49.8546 189.051 52.2832 189.051 53.4976C189.051 54.8637 189.217 57.5959 189.549 58.8102C188.552 58.0513 184.732 57.2923 183.237 57.2923C181.909 57.2923 177.092 58.0513 176.096 58.8102C176.926 57.7477 178.587 56.3816 178.587 53.6493C178.587 51.5243 177.258 49.3992 176.096 48.3367C177.092 49.0956 181.743 49.8546 183.404 49.8546C185.231 49.8546 188.885 49.0956 189.881 48.3367Z" fill="#D9D9D9"/>
</svg>
