<?xml version="1.0" encoding="UTF-8" standalone="no"?>
<svg
   xmlns:dc="http://purl.org/dc/elements/1.1/"
   xmlns:cc="http://creativecommons.org/ns#"
   xmlns:rdf="http://www.w3.org/1999/02/22-rdf-syntax-ns#"
   xmlns:svg="http://www.w3.org/2000/svg"
   xmlns="http://www.w3.org/2000/svg"
   xmlns:sodipodi="http://sodipodi.sourceforge.net/DTD/sodipodi-0.dtd"
   xmlns:inkscape="http://www.inkscape.org/namespaces/inkscape"
   version="1.1"
   id="svg2"
   xml:space="preserve"
   width="445.69333"
   height="71.146667"
   viewBox="0 0 445.69333 71.146667"
   sodipodi:docname="ConnectForBio-Logo.svg"
   inkscape:version="1.0.2 (e86c870879, 2021-01-15, custom)"><metadata
     id="metadata8"><rdf:RDF><cc:Work
         rdf:about=""><dc:format>image/svg+xml</dc:format><dc:type
           rdf:resource="http://purl.org/dc/dcmitype/StillImage" /><dc:title></dc:title></cc:Work></rdf:RDF></metadata><defs
     id="defs6" /><sodipodi:namedview
     pagecolor="#ffffff"
     bordercolor="#666666"
     borderopacity="1"
     objecttolerance="10"
     gridtolerance="10"
     guidetolerance="10"
     inkscape:pageopacity="0"
     inkscape:pageshadow="2"
     inkscape:window-width="2880"
     inkscape:window-height="1526"
     id="namedview4"
     showgrid="false"
     inkscape:zoom="4.1171808"
     inkscape:cx="222.84666"
     inkscape:cy="35.573334"
     inkscape:window-x="-11"
     inkscape:window-y="1609"
     inkscape:window-maximized="1"
     inkscape:current-layer="g10" /><g
     id="g10"
     inkscape:groupmode="layer"
     inkscape:label="ink_ext_XXXXXX"
     transform="matrix(1.3333333,0,0,-1.3333333,0,71.146667)"><g
       id="g12"
       transform="scale(0.1)"><g
         id="g14"
         transform="scale(10)"><text
           transform="matrix(1,0,0,-1,0,10.2922)"
           style="font-variant:normal;font-weight:800;font-size:51.4102px;font-family:Neufreit;-inkscape-font-specification:Neufreit-ExtraBold;writing-mode:lr-tb;fill:#e8e8e6;fill-opacity:1;fill-rule:nonzero;stroke:none"
           id="text18"><tspan
             x="0 23.854332 117.29185 143.97426 167.82858"
             y="0"
             sodipodi:role="line"
             id="tspan16">coect</tspan></text></g><g
         id="g20"
         transform="scale(10)"><text
           transform="matrix(1,0,0,-1,190.512,10.2922)"
           style="font-variant:normal;font-weight:800;font-size:51.4102px;font-family:Neufreit;-inkscape-font-specification:Neufreit-ExtraBold;writing-mode:lr-tb;fill:#89d5bd;fill-opacity:1;fill-rule:nonzero;stroke:none"
           id="text24"><tspan
             x="0 18.867544 47.709229"
             y="0"
             sodipodi:role="line"
             id="tspan22">for</tspan></text></g><g
         id="g26"
         transform="scale(10)"><text
           transform="matrix(1,0,0,-1,259.268,10.2922)"
           style="font-variant:normal;font-weight:800;font-size:51.4102px;font-family:Neufreit;-inkscape-font-specification:Neufreit-ExtraBold;writing-mode:lr-tb;fill:#e8e8e6;fill-opacity:1;fill-rule:nonzero;stroke:none"
           id="text30"><tspan
             x="0 31.000351 46.166359"
             y="0"
             sodipodi:role="line"
             id="tspan28">bio</tspan></text></g><path
         d="m 782.094,164.965 c 1.269,-0.332 2.511,-0.707 3.73,-1.156 -1.219,0.445 -2.461,0.832 -3.73,1.156 z m -9.809,1.406 c 2.32,-0.031 4.586,-0.281 6.793,-0.687 -2.215,0.394 -4.473,0.66 -6.793,0.687 z m 16.996,-3.973 c 0.84,-0.406 1.637,-0.875 2.442,-1.328 -0.805,0.453 -1.594,0.926 -2.442,1.328 z m -26.785,2.86 c -2.008,-0.469 -3.957,-1.063 -5.836,-1.809 1.887,0.746 3.824,1.348 5.836,1.809 z m -0.125,30.812 c -1.918,0.453 -3.781,1.024 -5.59,1.739 1.805,-0.715 3.672,-1.286 5.59,-1.739 z m -7.293,2.438 c -2.012,0.902 -3.945,1.937 -5.777,3.137 1.828,-1.2 3.765,-2.235 5.777,-3.137 z m 7.293,107.832 c -1.918,0.453 -3.781,1.023 -5.59,1.734 1.805,-0.711 3.672,-1.281 5.59,-1.734 z m 9.391,-1.192 c -0.024,0 -0.043,-0.007 -0.067,-0.007 -2.597,0 -5.113,0.312 -7.578,0.777 2.481,-0.469 5.028,-0.766 7.645,-0.77 z m -16.684,3.633 c -2.012,0.899 -3.945,1.938 -5.777,3.133 1.828,-1.199 3.765,-2.234 5.777,-3.133 z m 27.219,-2.125 c 1.195,0.317 2.371,0.672 3.523,1.094 -1.152,-0.426 -2.328,-0.773 -3.523,-1.094 z m 7.238,2.645 c 0.738,0.351 1.434,0.769 2.145,1.164 -0.707,-0.402 -1.407,-0.805 -2.145,-1.164 z m -17.172,-4.106 c 2.301,0.035 4.539,0.289 6.735,0.68 -2.188,-0.402 -4.434,-0.641 -6.735,-0.68 z m 6.735,-109.59 c -2.188,-0.406 -4.434,-0.64 -6.735,-0.679 2.301,0.031 4.539,0.289 6.735,0.679 z m 3.199,0.782 c 1.195,0.316 2.371,0.676 3.523,1.093 -1.152,-0.425 -2.328,-0.769 -3.523,-1.093 z m 7.238,2.64 c 0.738,0.36 1.434,0.774 2.145,1.168 -0.707,-0.398 -1.407,-0.804 -2.145,-1.168 z m -25.418,-3.379 c 2.481,-0.472 5.028,-0.765 7.645,-0.769 -0.024,0 -0.043,-0.008 -0.067,-0.008 -2.597,0 -5.113,0.317 -7.578,0.777 z m 7.653,-29.238 c -2.622,-0.004 -5.168,-0.297 -7.649,-0.769 2.461,0.464 4.977,0.773 7.574,0.773 0.024,0 0.047,-0.004 0.075,-0.004 z m -39.227,168.371 c 0.191,-0.644 0.379,-1.285 0.598,-1.914 -0.215,0.629 -0.407,1.27 -0.598,1.914 z m -1.203,5.356 c 0.015,-0.137 0.015,-0.278 0.043,-0.418 -0.028,0.14 -0.028,0.281 -0.043,0.418 z m 3.558,-11.625 c 0.313,-0.657 0.684,-1.274 1.036,-1.91 -0.348,0.636 -0.723,1.25 -1.036,1.91 z m -2,30.347 c -0.039,-0.125 -0.07,-0.242 -0.109,-0.363 0.039,0.121 0.07,0.238 0.109,0.363 z m -62.324,-34.121 c 0.024,0.028 0.047,0.051 0.067,0.078 -0.078,-0.125 -0.149,-0.25 -0.227,-0.371 0.059,0.09 0.106,0.2 0.16,0.293 z m -17.176,-15.437 c 0.739,0.351 1.438,0.769 2.149,1.164 -0.711,-0.402 -1.41,-0.805 -2.149,-1.164 z M 646.16,196.387 c 1.199,0.316 2.375,0.676 3.528,1.093 -1.153,-0.425 -2.329,-0.769 -3.528,-1.093 z m 7.238,2.64 c 0.739,0.36 1.438,0.774 2.149,1.168 -0.711,-0.398 -1.41,-0.804 -2.149,-1.168 z m -17.168,-4.101 c 2.301,0.031 4.54,0.289 6.735,0.679 -2.195,-0.406 -4.434,-0.64 -6.735,-0.679 z m 9.731,-29.961 c 1.266,-0.332 2.512,-0.707 3.727,-1.156 -1.215,0.445 -2.461,0.832 -3.727,1.156 z m -9.809,1.406 c 2.321,-0.031 4.578,-0.281 6.793,-0.687 -2.215,0.394 -4.472,0.66 -6.793,0.687 z m 16.996,-3.976 c 0.84,-0.399 1.633,-0.868 2.438,-1.321 -0.805,0.449 -1.598,0.922 -2.438,1.321 z m -26.793,2.863 c -2,-0.469 -3.953,-1.063 -5.828,-1.809 1.879,0.746 3.825,1.348 5.828,1.809 z m -0.117,30.812 c -1.922,0.453 -3.781,1.024 -5.59,1.739 1.801,-0.715 3.672,-1.286 5.59,-1.739 z m -7.293,2.438 c -2.015,0.902 -3.949,1.941 -5.781,3.137 1.824,-1.2 3.77,-2.235 5.781,-3.137 z m 16.692,-32.098 c -2.617,-0.004 -5.168,-0.297 -7.649,-0.769 2.461,0.464 4.977,0.773 7.575,0.773 0.023,0 0.046,-0.004 0.074,-0.004 z m -0.074,28.461 c -2.602,0 -5.118,0.317 -7.579,0.777 2.481,-0.472 5.028,-0.765 7.645,-0.769 -0.024,0 -0.043,-0.008 -0.066,-0.008 z m 159.875,7.539 c 10.554,7.445 17.492,19.676 17.492,33.567 0,14.457 -7.5,27.113 -18.785,34.445 -5.227,5.594 -13.383,12.676 -13.383,20.43 0,8.406 9.332,16.043 14.676,21.828 10.554,7.441 17.492,19.675 17.492,33.566 0,22.699 -18.403,41.102 -41.106,41.102 -14.152,0 -26.633,-7.16 -34.027,-18.055 -13.567,-11.164 -25.727,-14.453 -33.906,-14.074 -11.582,0.539 -24.063,16.668 -31.496,25.621 -9.028,14.875 -25.215,24.902 -43.883,24.902 -28.43,0 -51.477,-23.047 -51.477,-51.472 0,-20.547 12.125,-38.141 29.531,-46.395 7.34,-4.867 19.993,-10.047 19.993,-17.023 0,-7.86 -8.477,-15.032 -13.606,-20.661 -11.062,-7.363 -18.363,-19.925 -18.363,-34.214 0,-14.129 7.14,-26.586 18,-33.985 -0.235,0.16 -0.504,0.278 -0.735,0.446 5.235,-5.793 14.704,-13.438 14.704,-21.856 0,-8.223 -9.317,-15.711 -14.332,-21.445 2.152,1.484 4.492,2.687 6.914,3.75 -14.446,-6.371 -24.551,-20.774 -24.551,-37.574 0,-22.7 18.398,-41.1021 41.101,-41.1021 22.704,0 41.106,18.4021 41.106,41.1021 0,14.117 -7.129,26.546 -17.965,33.949 -5.144,5.722 -14.203,13.156 -14.203,21.32 0,8.406 9.332,16.043 14.672,21.828 10.558,7.445 17.496,19.676 17.496,33.567 0,14.457 -7.5,27.113 -18.785,34.445 -5.235,5.594 -13.383,12.676 -13.383,20.43 0,8.406 9.332,16.043 14.672,21.828 3.98,2.808 7.453,6.265 10.215,10.273 -0.114,-0.164 -0.192,-0.344 -0.301,-0.508 5.785,5.235 20.863,14.703 34.676,14.703 15.019,0 28.316,-9.175 34.121,-14.214 2.89,-4.18 6.508,-7.813 10.715,-10.672 -0.243,0.16 -0.504,0.277 -0.739,0.441 5.235,-5.785 14.703,-13.433 14.703,-21.851 0,-7.86 -8.472,-15.032 -13.605,-20.661 -11.059,-7.363 -18.363,-19.925 -18.363,-34.214 0,-14.129 7.136,-26.586 18.004,-33.985 -0.243,0.16 -0.504,0.278 -0.739,0.446 5.235,-5.793 14.703,-13.438 14.703,-21.856 0,-8.223 -9.312,-15.711 -14.328,-21.445 2.149,1.484 4.492,2.687 6.91,3.75 -14.445,-6.371 -24.55,-20.774 -24.55,-37.574 0,-22.7 18.402,-41.1021 41.101,-41.1021 22.703,0 41.106,18.4021 41.106,41.1021 0,14.117 -7.125,26.546 -17.957,33.949 -5.149,5.722 -14.211,13.156 -14.211,21.32 0,8.406 9.332,16.043 14.676,21.828"
         style="fill:#88d6bb;fill-opacity:1;fill-rule:nonzero;stroke:none"
         id="path32" /><path
         d="m 1076.89,164.965 c 1.27,-0.336 2.51,-0.707 3.73,-1.156 -1.22,0.445 -2.46,0.832 -3.73,1.156 z m -9.81,1.406 c 2.32,-0.031 4.58,-0.281 6.79,-0.687 -2.21,0.394 -4.47,0.66 -6.79,0.687 z m 17,-3.976 c 0.84,-0.403 1.63,-0.872 2.43,-1.321 -0.8,0.449 -1.59,0.922 -2.43,1.321 z m -26.79,2.863 c -2.01,-0.469 -3.96,-1.063 -5.84,-1.809 1.88,0.742 3.83,1.348 5.84,1.809 z m -0.12,30.812 c -1.92,0.453 -3.79,1.024 -5.59,1.739 1.8,-0.715 3.67,-1.286 5.59,-1.739 z m -7.3,2.438 c -2.01,0.902 -3.94,1.937 -5.77,3.133 1.82,-1.196 3.76,-2.231 5.77,-3.133 z m 7.3,107.832 c -1.92,0.453 -3.79,1.023 -5.59,1.734 1.8,-0.711 3.67,-1.281 5.59,-1.734 z m 9.39,-1.192 c -0.03,0 -0.05,-0.007 -0.07,-0.007 -2.6,0 -5.12,0.312 -7.58,0.777 2.48,-0.469 5.03,-0.766 7.65,-0.77 z m -16.69,3.633 c -2.01,0.899 -3.94,1.934 -5.77,3.133 1.82,-1.199 3.76,-2.234 5.77,-3.133 z m 27.22,-2.125 c 1.2,0.317 2.37,0.672 3.52,1.094 -1.15,-0.426 -2.32,-0.773 -3.52,-1.094 z m 7.24,2.645 c 0.74,0.351 1.43,0.769 2.14,1.164 -0.71,-0.402 -1.41,-0.805 -2.14,-1.164 z m -17.17,-4.106 c 2.3,0.035 4.54,0.289 6.73,0.68 -2.19,-0.402 -4.43,-0.641 -6.73,-0.68 z m 6.73,-109.59 c -2.19,-0.402 -4.43,-0.64 -6.73,-0.679 2.3,0.031 4.54,0.289 6.73,0.679 z m 3.2,0.782 c 1.2,0.316 2.37,0.676 3.52,1.093 -1.15,-0.425 -2.32,-0.769 -3.52,-1.093 z m 7.24,2.648 c 0.74,0.352 1.43,0.766 2.14,1.16 -0.71,-0.398 -1.41,-0.804 -2.14,-1.16 z m -25.42,-3.387 c 2.48,-0.472 5.03,-0.765 7.65,-0.769 -0.03,0 -0.05,-0.008 -0.07,-0.008 -2.6,0 -5.12,0.317 -7.58,0.777 z m 7.65,-29.238 c -2.61,-0.004 -5.16,-0.297 -7.64,-0.769 2.46,0.464 4.97,0.773 7.57,0.773 0.02,0 0.05,-0.004 0.07,-0.004 z m -39.22,168.371 c 0.19,-0.644 0.37,-1.285 0.59,-1.914 -0.22,0.629 -0.4,1.27 -0.59,1.914 z m -1.21,5.356 c 0.02,-0.137 0.02,-0.278 0.05,-0.418 -0.03,0.14 -0.03,0.281 -0.05,0.418 z m 3.56,-11.625 c 0.31,-0.657 0.69,-1.274 1.04,-1.91 -0.35,0.636 -0.73,1.25 -1.04,1.91 z m -1.99,30.347 c -0.04,-0.125 -0.08,-0.242 -0.12,-0.363 0.04,0.121 0.08,0.238 0.12,0.363 z m -62.333,-34.121 c 0.02,0.024 0.047,0.047 0.067,0.078 -0.079,-0.128 -0.153,-0.25 -0.223,-0.371 0.059,0.09 0.098,0.196 0.156,0.293 z m -17.168,-15.437 c 0.731,0.351 1.43,0.769 2.137,1.164 -0.707,-0.402 -1.406,-0.805 -2.137,-1.164 z m -7.242,-112.914 c 1.195,0.316 2.371,0.676 3.52,1.093 -1.149,-0.425 -2.325,-0.769 -3.52,-1.093 z m 7.242,2.648 c 0.731,0.352 1.43,0.766 2.137,1.16 -0.707,-0.398 -1.406,-0.804 -2.137,-1.16 z m -17.168,-4.109 c 2.293,0.031 4.535,0.289 6.727,0.679 -2.192,-0.402 -4.434,-0.64 -6.727,-0.679 z m 9.727,-29.961 c 1.269,-0.336 2.508,-0.707 3.722,-1.156 -1.218,0.445 -2.453,0.832 -3.722,1.156 z m -9.813,1.406 c 2.321,-0.031 4.582,-0.281 6.793,-0.687 -2.211,0.394 -4.472,0.66 -6.793,0.687 z m 17,-3.976 c 0.84,-0.403 1.629,-0.872 2.438,-1.321 -0.809,0.449 -1.598,0.922 -2.438,1.321 z m -26.789,2.863 c -2.008,-0.469 -3.961,-1.063 -5.84,-1.809 1.887,0.742 3.829,1.348 5.84,1.809 z m -0.121,30.812 c -1.926,0.453 -3.789,1.024 -5.597,1.739 1.808,-0.715 3.679,-1.286 5.597,-1.739 z m -7.297,2.438 c -2.015,0.902 -3.941,1.937 -5.773,3.137 1.824,-1.2 3.765,-2.235 5.773,-3.137 z M 930.43,166.41 c -2.621,-0.004 -5.164,-0.297 -7.649,-0.769 2.461,0.464 4.977,0.773 7.574,0.773 0.028,0 0.051,-0.004 0.075,-0.004 z m -0.075,28.461 c -2.601,0 -5.117,0.317 -7.578,0.777 2.481,-0.472 5.032,-0.765 7.649,-0.769 -0.028,0 -0.051,-0.008 -0.071,-0.008 z m 159.875,7.539 c 10.56,7.445 17.49,19.668 17.49,33.567 0,14.457 -7.5,27.113 -18.78,34.445 -5.23,5.594 -13.38,12.676 -13.38,20.43 0,8.406 9.33,16.043 14.67,21.828 10.56,7.441 17.49,19.675 17.49,33.566 0,22.699 -18.4,41.102 -41.1,41.102 -14.15,0 -26.63,-7.16 -34.03,-18.055 -13.57,-11.164 -25.72,-14.453 -33.906,-14.074 -11.579,0.539 -24.059,16.668 -31.496,25.621 -9.024,14.867 -25.215,24.902 -43.883,24.902 -28.426,0 -51.473,-23.047 -51.473,-51.472 0,-20.547 12.121,-38.141 29.531,-46.395 7.336,-4.867 19.989,-10.047 19.989,-17.023 0,-7.86 -8.477,-15.032 -13.61,-20.661 -11.058,-7.363 -18.355,-19.925 -18.355,-34.214 0,-14.129 7.136,-26.586 17.996,-33.985 -0.235,0.16 -0.504,0.278 -0.735,0.446 5.239,-5.793 14.704,-13.438 14.704,-21.856 0,-8.223 -9.317,-15.711 -14.332,-21.445 2.156,1.484 4.5,2.687 6.918,3.75 -14.446,-6.371 -24.551,-20.774 -24.551,-37.574 0,-22.7 18.394,-41.1021 41.101,-41.1021 22.7,0 41.098,18.4021 41.098,41.1021 0,14.117 -7.121,26.546 -17.957,33.949 -5.149,5.722 -14.203,13.156 -14.203,21.32 0,8.406 9.324,16.043 14.672,21.828 10.55,7.445 17.488,19.668 17.488,33.567 0,14.457 -7.492,27.113 -18.781,34.445 -5.231,5.594 -13.379,12.676 -13.379,20.43 0,8.406 9.324,16.043 14.672,21.828 3.976,2.804 7.449,6.265 10.215,10.273 -0.114,-0.164 -0.192,-0.344 -0.305,-0.508 5.789,5.235 20.863,14.703 34.676,14.703 15.026,0 28.316,-9.175 34.126,-14.214 2.88,-4.18 6.51,-7.813 10.71,-10.672 -0.24,0.16 -0.5,0.277 -0.74,0.441 5.24,-5.785 14.71,-13.433 14.71,-21.851 0,-7.86 -8.48,-15.032 -13.61,-20.661 -11.06,-7.363 -18.36,-19.925 -18.36,-34.214 0,-14.129 7.14,-26.586 18,-33.985 -0.24,0.16 -0.5,0.278 -0.74,0.446 5.24,-5.793 14.71,-13.438 14.71,-21.856 0,-8.223 -9.32,-15.711 -14.33,-21.445 2.15,1.484 4.49,2.687 6.91,3.75 -14.44,-6.371 -24.55,-20.774 -24.55,-37.574 0,-22.7 18.4,-41.1021 41.1,-41.1021 22.7,0 41.1,18.4021 41.1,41.1021 0,14.117 -7.12,26.546 -17.96,33.949 -5.14,5.722 -14.2,13.156 -14.2,21.32 0,8.406 9.33,16.043 14.67,21.828"
         style="fill:#88d6bd;fill-opacity:1;fill-rule:nonzero;stroke:none"
         id="path34" /><path
         d="m 813.59,97.0703 c 4.746,6.7027 7.996,19.1447 7.996,27.9847 0,8.929 -5.063,23.144 -9.902,29.886 5.804,-5.324 29.894,-11.8 40.343,-11.8 10.879,0 34.633,6.328 40.391,11.425 -4.676,-6.671 -10.285,-20.753 -10.285,-29.511 0,-8.672 3.222,-20.981 7.808,-27.6136 -5.738,5.0196 -26.843,9.1406 -37.914,9.1406 -10.832,0 -32.652,-4.277 -38.437,-9.5117"
         style="fill:#d1d2d0;fill-opacity:1;fill-rule:nonzero;stroke:none"
         id="path36" /><path
         d="m 518.004,203.027 c 3.109,10.172 4.551,24.141 4.551,32.981 0,8.93 -2.836,28.285 -5.309,36.008 5.805,-5.317 30.172,-10.61 38.668,-10.61 8.289,0 34.422,5.137 40.18,10.235 -4.672,-6.668 -11.754,-24.977 -11.754,-33.739 0,-8.668 5.308,-26.914 12.512,-33.738 -5.739,5.016 -30.704,8.719 -40.563,8.719 -10.613,0 -32.5,-4.621 -38.285,-9.856"
         style="fill:#d1d2d0;fill-opacity:1;fill-rule:nonzero;stroke:none"
         id="path38" /><path
         d="m 1185.19,272.016 c -3.11,-10.168 -5,-25.547 -5,-34.383 0,-8.926 0.78,-26.828 3.25,-34.559 -5.8,5.321 -29.14,9.774 -37.63,9.774 -8.3,0 -37.48,-5.215 -43.24,-10.313 4.67,6.668 14.83,16.102 14.83,34.375 0,14.11 -7.63,28.094 -14.83,34.922 5.74,-5.016 34.48,-9.668 44.33,-9.668 10.62,0 32.5,4.617 38.29,9.852"
         style="fill:#d1d2d0;fill-opacity:1;fill-rule:nonzero;stroke:none"
         id="path40" /></g></g></svg>
