<?xml version="1.0" encoding="UTF-8" standalone="no"?>
<svg
   xmlns:dc="http://purl.org/dc/elements/1.1/"
   xmlns:cc="http://creativecommons.org/ns#"
   xmlns:rdf="http://www.w3.org/1999/02/22-rdf-syntax-ns#"
   xmlns:svg="http://www.w3.org/2000/svg"
   xmlns="http://www.w3.org/2000/svg"
   xmlns:sodipodi="http://sodipodi.sourceforge.net/DTD/sodipodi-0.dtd"
   xmlns:inkscape="http://www.inkscape.org/namespaces/inkscape"
   version="1.1"
   id="svg2"
   xml:space="preserve"
   width="511.49866"
   height="323.03732"
   viewBox="0 0 511.49866 323.03732"
   sodipodi:docname="footer-logo-3.svg"
   inkscape:version="1.0.2 (e86c870879, 2021-01-15, custom)"><metadata
     id="metadata8"><rdf:RDF><cc:Work
         rdf:about=""><dc:format>image/svg+xml</dc:format><dc:type
           rdf:resource="http://purl.org/dc/dcmitype/StillImage" /><dc:title></dc:title></cc:Work></rdf:RDF></metadata><defs
     id="defs6"><clipPath
       clipPathUnits="userSpaceOnUse"
       id="clipPath26"><path
         d="M 0,242.278 H 383.624 V 0 H 0 Z"
         id="path24" /></clipPath></defs><sodipodi:namedview
     pagecolor="#ffffff"
     bordercolor="#666666"
     borderopacity="1"
     objecttolerance="10"
     gridtolerance="10"
     guidetolerance="10"
     inkscape:pageopacity="0"
     inkscape:pageshadow="2"
     inkscape:window-width="2880"
     inkscape:window-height="1526"
     id="namedview4"
     showgrid="false"
     inkscape:zoom="3.1203825"
     inkscape:cx="255.74933"
     inkscape:cy="161.51866"
     inkscape:window-x="-11"
     inkscape:window-y="1609"
     inkscape:window-maximized="1"
     inkscape:current-layer="g10" /><g
     id="g10"
     inkscape:groupmode="layer"
     inkscape:label="LOGO-ConnectForBio-grell"
     transform="matrix(1.3333333,0,0,-1.3333333,0,323.03733)"><text
       transform="matrix(1,0,0,-1,23.5303,114.2773)"
       style="font-variant:normal;font-weight:800;font-stretch:normal;font-size:51.4102px;font-family:'Neufreit ExtraBold';-inkscape-font-specification:Neufreit-ExtraBold;writing-mode:lr-tb;fill:#ffffff;fill-opacity:1;fill-rule:nonzero;stroke:none"
       id="text18"><tspan
         x="0 23.854332 117.26666 143.94856 167.80289"
         y="0"
         sodipodi:role="line"
         id="tspan12">coect</tspan><tspan
         x="190.47479 209.34233 238.18346"
         y="0"
         sodipodi:role="line"
         id="tspan14">for</tspan><tspan
         x="259.26163 290.26199 305.42801"
         y="0"
         sodipodi:role="line"
         id="tspan16">bio</tspan></text><g
       id="g20"><g
         id="g22"
         clip-path="url(#clipPath26)"><g
           id="g28"
           transform="translate(101.7392,120.4825)"><path
             d="M 0,0 C 0.127,-0.033 0.251,-0.071 0.373,-0.116 0.251,-0.071 0.127,-0.033 0,0 m -0.981,0.141 c 0.232,-0.004 0.458,-0.028 0.679,-0.069 -0.221,0.04 -0.447,0.066 -0.679,0.069 m 1.7,-0.398 c 0.084,-0.04 0.163,-0.087 0.244,-0.132 -0.081,0.045 -0.16,0.092 -0.244,0.132 M -1.96,0.029 c -0.201,-0.047 -0.396,-0.106 -0.584,-0.181 0.189,0.075 0.383,0.135 0.584,0.181 M -1.972,3.11 c -0.192,0.046 -0.379,0.103 -0.559,0.174 0.18,-0.071 0.367,-0.128 0.559,-0.174 m -0.73,0.244 c -0.201,0.09 -0.394,0.194 -0.577,0.314 0.182,-0.12 0.376,-0.224 0.577,-0.314 m 0.73,10.783 c -0.192,0.046 -0.379,0.103 -0.559,0.174 0.18,-0.071 0.367,-0.128 0.559,-0.174 m 0.939,-0.119 c -0.003,0 -0.005,0 -0.007,0 -0.26,0 -0.512,0.031 -0.758,0.077 0.248,-0.047 0.503,-0.076 0.765,-0.077 m -1.669,0.363 c -0.201,0.09 -0.394,0.194 -0.577,0.314 0.182,-0.12 0.376,-0.224 0.577,-0.314 M 0.02,14.169 c 0.12,0.032 0.237,0.068 0.352,0.109 C 0.257,14.236 0.14,14.201 0.02,14.169 m 0.724,0.264 C 0.818,14.469 0.887,14.51 0.959,14.55 0.887,14.51 0.818,14.469 0.744,14.433 m -1.717,-0.41 c 0.23,0.003 0.454,0.029 0.673,0.068 -0.219,-0.04 -0.443,-0.064 -0.673,-0.068 M -0.3,3.064 C -0.519,3.024 -0.743,3 -0.973,2.996 -0.743,2.999 -0.519,3.025 -0.3,3.064 M 0.02,3.142 C 0.14,3.174 0.257,3.21 0.372,3.251 0.257,3.209 0.14,3.174 0.02,3.142 M 0.744,3.406 C 0.818,3.442 0.887,3.483 0.959,3.523 0.887,3.483 0.818,3.442 0.744,3.406 M -1.798,3.068 c 0.248,-0.047 0.503,-0.076 0.765,-0.077 -0.003,0 -0.005,0 -0.007,0 -0.26,0 -0.512,0.031 -0.758,0.077 m 0.765,-2.923 c -0.262,-0.001 -0.516,-0.03 -0.764,-0.077 0.246,0.046 0.497,0.077 0.757,0.077 0.002,0 0.005,0 0.007,0 m -3.922,16.836 c 0.019,-0.064 0.038,-0.128 0.059,-0.191 -0.021,0.063 -0.04,0.127 -0.059,0.191 m -0.121,0.536 c 0.002,-0.013 0.002,-0.028 0.005,-0.042 -0.003,0.014 -0.003,0.029 -0.005,0.042 m 0.356,-1.163 c 0.032,-0.065 0.069,-0.127 0.104,-0.19 -0.035,0.063 -0.073,0.125 -0.104,0.19 m -0.199,3.035 c -0.004,-0.012 -0.008,-0.024 -0.012,-0.036 0.004,0.012 0.008,0.024 0.012,0.036 m -6.233,-3.412 c 0.002,0.003 0.004,0.005 0.006,0.008 -0.007,-0.012 -0.014,-0.025 -0.022,-0.037 0.006,0.009 0.01,0.02 0.016,0.029 m -1.718,-1.544 c 0.074,0.036 0.144,0.077 0.215,0.117 -0.071,-0.04 -0.141,-0.081 -0.215,-0.117 M -13.593,3.142 c 0.119,0.032 0.237,0.068 0.352,0.109 -0.115,-0.042 -0.233,-0.077 -0.352,-0.109 m 0.723,0.264 c 0.074,0.036 0.144,0.077 0.215,0.117 -0.071,-0.04 -0.141,-0.081 -0.215,-0.117 m -1.716,-0.41 c 0.229,0.003 0.453,0.029 0.673,0.068 C -14.132,3.024 -14.357,3 -14.586,2.996 M -13.613,0 c 0.126,-0.033 0.25,-0.071 0.372,-0.116 -0.122,0.045 -0.246,0.083 -0.372,0.116 m -0.981,0.141 c 0.232,-0.004 0.458,-0.028 0.679,-0.069 -0.221,0.04 -0.447,0.066 -0.679,0.069 m 1.699,-0.398 c 0.084,-0.04 0.163,-0.087 0.244,-0.132 -0.081,0.045 -0.16,0.092 -0.244,0.132 m -2.679,0.286 c -0.2,-0.047 -0.395,-0.106 -0.583,-0.181 0.188,0.075 0.383,0.135 0.583,0.181 m -0.012,3.081 c -0.192,0.046 -0.378,0.103 -0.559,0.174 0.181,-0.071 0.368,-0.128 0.559,-0.174 m -0.729,0.244 c -0.202,0.09 -0.395,0.194 -0.578,0.314 0.183,-0.12 0.377,-0.224 0.578,-0.314 m 1.669,-3.209 c -0.262,-0.001 -0.517,-0.03 -0.765,-0.077 0.246,0.046 0.498,0.077 0.757,0.077 0.003,0 0.005,0 0.008,0 m -0.008,2.846 c -0.26,0 -0.511,0.031 -0.757,0.077 0.248,-0.047 0.503,-0.076 0.764,-0.077 -0.002,0 -0.004,0 -0.007,0 M 1.334,3.745 c 1.056,0.744 1.749,1.967 1.749,3.356 0,1.446 -0.75,2.712 -1.878,3.444 -0.523,0.56 -1.338,1.268 -1.338,2.043 0,0.841 0.933,1.605 1.467,2.184 1.056,0.744 1.749,1.967 1.749,3.356 0,2.27 -1.84,4.11 -4.11,4.11 -1.416,0 -2.664,-0.716 -3.403,-1.805 -1.357,-1.117 -2.573,-1.446 -3.391,-1.408 -1.157,0.054 -2.406,1.667 -3.149,2.562 -0.903,1.488 -2.522,2.491 -4.388,2.491 -2.843,0 -5.148,-2.305 -5.148,-5.148 0,-2.054 1.213,-3.814 2.953,-4.639 0.734,-0.487 1.999,-1.005 1.999,-1.703 0,-0.785 -0.847,-1.502 -1.36,-2.065 -1.107,-0.737 -1.837,-1.993 -1.837,-3.422 0,-1.413 0.714,-2.659 1.8,-3.398 -0.023,0.016 -0.05,0.027 -0.073,0.044 0.523,-0.579 1.47,-1.344 1.47,-2.186 0,-0.821 -0.931,-1.57 -1.433,-2.144 0.215,0.149 0.449,0.269 0.691,0.375 -1.444,-0.637 -2.455,-2.077 -2.455,-3.757 0,-2.27 1.84,-4.111 4.111,-4.111 2.27,0 4.11,1.841 4.11,4.111 0,1.411 -0.713,2.655 -1.796,3.395 -0.515,0.572 -1.421,1.315 -1.421,2.131 0,0.842 0.933,1.605 1.468,2.184 1.055,0.744 1.749,1.967 1.749,3.356 0,1.446 -0.75,2.712 -1.879,3.444 -0.523,0.56 -1.338,1.268 -1.338,2.043 0,0.841 0.933,1.605 1.468,2.184 0.397,0.28 0.745,0.626 1.021,1.027 -0.011,-0.017 -0.019,-0.035 -0.03,-0.051 0.578,0.523 2.086,1.47 3.467,1.47 1.503,0 2.832,-0.917 3.413,-1.421 0.289,-0.418 0.651,-0.781 1.071,-1.067 -0.024,0.016 -0.05,0.027 -0.074,0.044 0.524,-0.579 1.471,-1.344 1.471,-2.186 0,-0.785 -0.848,-1.502 -1.361,-2.065 -1.106,-0.737 -1.836,-1.993 -1.836,-3.422 0,-1.413 0.714,-2.659 1.8,-3.398 -0.024,0.016 -0.05,0.027 -0.074,0.044 0.524,-0.579 1.471,-1.344 1.471,-2.186 0,-0.821 -0.932,-1.57 -1.433,-2.144 0.215,0.149 0.449,0.269 0.691,0.375 -1.444,-0.637 -2.455,-2.077 -2.455,-3.757 0,-2.27 1.84,-4.111 4.11,-4.111 2.27,0 4.11,1.841 4.11,4.111 0,1.411 -0.712,2.655 -1.796,3.395 -0.514,0.572 -1.42,1.315 -1.42,2.131 0,0.842 0.933,1.605 1.467,2.184"
             style="fill:#59fed1;fill-opacity:1;fill-rule:nonzero;stroke:none"
             id="path30" /></g><g
           id="g32"
           transform="translate(131.2189,120.4825)"><path
             d="M 0,0 C 0.127,-0.033 0.251,-0.071 0.372,-0.116 0.251,-0.071 0.127,-0.033 0,0 m -0.981,0.141 c 0.232,-0.004 0.458,-0.028 0.679,-0.069 -0.221,0.04 -0.447,0.066 -0.679,0.069 m 1.7,-0.398 c 0.084,-0.04 0.163,-0.087 0.243,-0.132 -0.08,0.045 -0.159,0.092 -0.243,0.132 M -1.96,0.029 c -0.201,-0.047 -0.396,-0.106 -0.584,-0.181 0.188,0.075 0.383,0.135 0.584,0.181 M -1.972,3.11 c -0.192,0.046 -0.379,0.103 -0.56,0.174 0.181,-0.071 0.368,-0.128 0.56,-0.174 m -0.73,0.244 c -0.201,0.09 -0.394,0.194 -0.577,0.314 0.182,-0.12 0.376,-0.224 0.577,-0.314 m 0.73,10.783 c -0.192,0.046 -0.379,0.103 -0.56,0.174 0.181,-0.071 0.368,-0.128 0.56,-0.174 m 0.939,-0.119 c -0.003,0 -0.005,0 -0.007,0 -0.26,0 -0.512,0.031 -0.758,0.077 0.248,-0.047 0.503,-0.076 0.765,-0.077 m -1.669,0.363 c -0.201,0.09 -0.394,0.194 -0.577,0.314 0.182,-0.12 0.376,-0.224 0.577,-0.314 M 0.02,14.169 c 0.12,0.032 0.237,0.068 0.352,0.109 C 0.257,14.236 0.14,14.201 0.02,14.169 m 0.724,0.265 C 0.817,14.469 0.887,14.51 0.958,14.55 0.887,14.51 0.817,14.469 0.744,14.434 m -1.717,-0.411 c 0.23,0.003 0.454,0.029 0.673,0.068 -0.219,-0.04 -0.443,-0.064 -0.673,-0.068 M -0.3,3.064 C -0.519,3.024 -0.743,3 -0.973,2.996 -0.743,2.999 -0.519,3.025 -0.3,3.064 M 0.02,3.142 C 0.14,3.174 0.257,3.21 0.372,3.251 0.257,3.209 0.14,3.174 0.02,3.142 M 0.744,3.407 C 0.817,3.442 0.887,3.483 0.958,3.523 0.887,3.483 0.817,3.442 0.744,3.407 M -1.798,3.068 c 0.248,-0.047 0.503,-0.076 0.765,-0.077 -0.003,0 -0.005,0 -0.007,0 -0.26,0 -0.512,0.031 -0.758,0.077 m 0.765,-2.923 c -0.262,-0.001 -0.516,-0.03 -0.765,-0.077 0.247,0.046 0.498,0.077 0.758,0.077 0.002,0 0.005,0 0.007,0 m -3.922,16.837 c 0.019,-0.065 0.037,-0.129 0.059,-0.192 -0.022,0.063 -0.041,0.127 -0.059,0.192 m -0.121,0.535 c 0.002,-0.013 0.002,-0.028 0.004,-0.042 -0.002,0.014 -0.002,0.029 -0.004,0.042 m 0.356,-1.163 c 0.031,-0.065 0.069,-0.127 0.103,-0.19 -0.034,0.063 -0.072,0.125 -0.103,0.19 m -0.2,3.035 c -0.004,-0.012 -0.007,-0.024 -0.011,-0.036 0.004,0.012 0.007,0.024 0.011,0.036 m -6.232,-3.412 c 10e-4,0.003 0.004,0.005 0.006,0.008 -0.008,-0.013 -0.015,-0.025 -0.022,-0.037 0.005,0.009 0.01,0.02 0.016,0.029 m -1.718,-1.543 c 0.074,0.035 0.144,0.076 0.215,0.116 -0.071,-0.04 -0.141,-0.081 -0.215,-0.116 M -13.593,3.142 c 0.119,0.032 0.237,0.068 0.352,0.109 -0.115,-0.042 -0.233,-0.077 -0.352,-0.109 m 0.723,0.265 c 0.074,0.035 0.144,0.076 0.215,0.116 -0.071,-0.04 -0.141,-0.081 -0.215,-0.116 m -1.716,-0.411 c 0.229,0.003 0.453,0.029 0.672,0.068 C -14.132,3.024 -14.357,3 -14.586,2.996 M -13.613,0 c 0.126,-0.033 0.25,-0.071 0.372,-0.116 -0.122,0.045 -0.246,0.083 -0.372,0.116 m -0.981,0.141 c 0.232,-0.004 0.458,-0.028 0.679,-0.069 -0.222,0.04 -0.447,0.066 -0.679,0.069 m 1.699,-0.398 c 0.084,-0.04 0.163,-0.087 0.244,-0.132 -0.081,0.045 -0.16,0.092 -0.244,0.132 m -2.679,0.286 c -0.2,-0.047 -0.395,-0.106 -0.583,-0.181 0.188,0.075 0.382,0.135 0.583,0.181 m -0.012,3.081 c -0.192,0.046 -0.378,0.103 -0.559,0.174 0.18,-0.071 0.367,-0.128 0.559,-0.174 m -0.729,0.244 c -0.202,0.09 -0.395,0.194 -0.578,0.314 0.183,-0.12 0.377,-0.224 0.578,-0.314 m 1.669,-3.209 c -0.262,-0.001 -0.517,-0.03 -0.765,-0.077 0.246,0.046 0.497,0.077 0.757,0.077 0.003,0 0.005,0 0.008,0 m -0.008,2.846 c -0.26,0 -0.511,0.031 -0.758,0.077 0.249,-0.047 0.503,-0.076 0.765,-0.077 -0.002,0 -0.004,0 -0.007,0 M 1.334,3.745 c 1.055,0.744 1.749,1.967 1.749,3.356 0,1.446 -0.75,2.712 -1.878,3.444 -0.523,0.56 -1.339,1.268 -1.339,2.043 0,0.842 0.933,1.605 1.468,2.184 1.055,0.744 1.749,1.967 1.749,3.356 0,2.27 -1.84,4.11 -4.11,4.11 -1.416,0 -2.664,-0.716 -3.403,-1.805 -1.357,-1.116 -2.573,-1.446 -3.391,-1.408 -1.158,0.054 -2.406,1.667 -3.149,2.562 -0.903,1.488 -2.522,2.491 -4.389,2.491 -2.842,0 -5.147,-2.305 -5.147,-5.148 0,-2.054 1.212,-3.813 2.953,-4.639 0.734,-0.487 1.999,-1.005 1.999,-1.703 0,-0.785 -0.848,-1.502 -1.361,-2.065 -1.106,-0.737 -1.836,-1.993 -1.836,-3.422 0,-1.413 0.714,-2.658 1.8,-3.398 -0.024,0.016 -0.05,0.028 -0.073,0.044 0.523,-0.579 1.47,-1.344 1.47,-2.186 0,-0.821 -0.932,-1.57 -1.433,-2.144 0.215,0.149 0.449,0.269 0.691,0.375 -1.444,-0.637 -2.455,-2.077 -2.455,-3.757 0,-2.27 1.84,-4.11 4.11,-4.11 2.27,0 4.111,1.84 4.111,4.11 0,1.411 -0.713,2.655 -1.796,3.395 -0.515,0.572 -1.421,1.315 -1.421,2.131 0,0.842 0.933,1.605 1.468,2.184 1.055,0.744 1.749,1.967 1.749,3.356 0,1.446 -0.75,2.712 -1.879,3.444 -0.523,0.56 -1.338,1.268 -1.338,2.043 0,0.842 0.933,1.605 1.468,2.184 0.397,0.28 0.745,0.626 1.021,1.027 -0.011,-0.017 -0.019,-0.035 -0.031,-0.051 0.579,0.523 2.087,1.47 3.468,1.47 1.503,0 2.832,-0.917 3.413,-1.421 0.288,-0.418 0.651,-0.781 1.071,-1.067 -0.024,0.016 -0.051,0.028 -0.074,0.044 0.524,-0.579 1.47,-1.344 1.47,-2.186 0,-0.785 -0.847,-1.502 -1.36,-2.065 -1.106,-0.737 -1.837,-1.993 -1.837,-3.422 0,-1.413 0.715,-2.658 1.801,-3.398 -0.024,0.016 -0.051,0.028 -0.074,0.044 0.524,-0.579 1.47,-1.344 1.47,-2.186 0,-0.821 -0.931,-1.57 -1.433,-2.144 0.216,0.149 0.45,0.269 0.692,0.375 -1.445,-0.637 -2.456,-2.077 -2.456,-3.757 0,-2.27 1.841,-4.11 4.111,-4.11 2.27,0 4.11,1.84 4.11,4.11 0,1.411 -0.712,2.655 -1.796,3.395 -0.515,0.572 -1.421,1.315 -1.421,2.131 0,0.842 0.933,1.605 1.468,2.184"
             style="fill:#59fed1;fill-opacity:1;fill-rule:nonzero;stroke:none"
             id="path34" /></g></g></g></g></svg>
