<?xml version="1.0" encoding="UTF-8"?><svg id="Ebene_1" xmlns="http://www.w3.org/2000/svg" xmlns:xlink="http://www.w3.org/1999/xlink" viewBox="0 0 457.16 86.58"><defs><style>.cls-1{fill:none;}.cls-2{clip-path:url(#clippath);}.cls-3,.cls-4{fill:#df4f91;}.cls-5{fill:#d9d9da;}.cls-4,.cls-6{font-family:Neufreit-ExtraBold, Neufreit;font-size:79px;}.cls-6{fill:#767676;}</style><clipPath id="clippath"><rect class="cls-1" y="1.64" width="457.16" height="84.93"/></clipPath></defs><g class="cls-2"><path class="cls-3" d="M94.58,50.88c1.03,.73,2.28,1.16,3.64,1.16s2.64-.44,3.67-1.19c-.82,.89-2.28,2.08-2.28,3.38s1.44,2.43,2.22,3.32c-1.03-.72-2.27-1.14-3.62-1.14s-2.57,.42-3.58,1.12c.77-.88,2.2-2.03,2.2-3.3s-1.46-2.47-2.26-3.36"/><path class="cls-3" d="M104.56,45.73c0,3.49-2.83,6.32-6.32,6.32s-6.32-2.83-6.32-6.32,2.83-6.32,6.32-6.32,6.32,2.83,6.32,6.32"/><path class="cls-3" d="M93.18,34.22c1.03,.73,3.68,.88,5.03,.88s2.64-.44,3.67-1.19c-.82,.89-2.28,2.08-2.28,3.38s1.44,2.43,2.22,3.32c-1.03-.72-2.27-1.14-3.62-1.14s-2.57,.41-3.58,1.12c.77-.88,2.2-2.03,2.2-3.3s-2.85-2.19-3.65-3.08"/><path class="cls-3" d="M103.39,32.44c.73-1.03,1.16-2.28,1.16-3.64s-.6-5.05-1.34-6.08c.89,.82,3.32,4.59,5.51,4.69,1.27,.06,3.17-.45,5.29-2.22-.72,1.03-1.14,2.27-1.14,3.62s.42,2.57,1.12,3.59c-.88-.77-2.94-2.2-5.26-2.2-2.12,0-4.44,1.46-5.33,2.26"/><path class="cls-5" d="M125.58,67.08c.73-1.03,1.23-2.94,1.23-4.3s-.78-3.56-1.52-4.59c.89,.82,4.59,1.81,6.2,1.81s5.32-.97,6.21-1.75c-.72,1.02-1.58,3.19-1.58,4.53s.5,3.22,1.2,4.24c-.88-.77-4.13-1.4-5.83-1.4s-5.02,.66-5.91,1.46"/><path class="cls-5" d="M80.16,50.79c.48-1.56,.7-3.71,.7-5.07s-.43-4.35-.82-5.53c.89,.82,4.64,1.63,5.94,1.63s5.29-.79,6.18-1.57c-.72,1.02-1.81,3.84-1.81,5.18s.82,4.14,1.92,5.18c-.88-.77-4.72-1.34-6.23-1.34-1.63,0-4.99,.71-5.88,1.51"/><path class="cls-5" d="M182.68,40.19c-.48,1.56-.77,3.93-.77,5.28s.12,4.12,.5,5.31c-.89-.82-4.48-1.5-5.78-1.5s-5.76,.8-6.65,1.58c.72-1.03,2.28-2.47,2.28-5.28,0-2.17-1.17-4.32-2.28-5.37,.88,.77,5.3,1.49,6.81,1.49,1.63,0,4.99-.71,5.88-1.52"/><path class="cls-3" d="M104.56,28.79c0,3.49-2.83,6.32-6.32,6.32s-6.32-2.83-6.32-6.32,2.83-6.32,6.32-6.32,6.32,2.83,6.32,6.32"/><path class="cls-3" d="M104.56,62.74c0,3.49-2.83,6.32-6.32,6.32s-6.32-2.83-6.32-6.32,2.83-6.32,6.32-6.32,6.32,2.83,6.32,6.32"/><path class="cls-3" d="M115.5,50.88c1.03,.73,2.28,1.16,3.64,1.16s2.64-.44,3.67-1.19c-.82,.89-2.28,2.08-2.28,3.38s1.44,2.43,2.22,3.32c-1.03-.72-2.27-1.14-3.62-1.14s-2.57,.42-3.58,1.12c.77-.88,2.2-2.03,2.2-3.3s-1.46-2.47-2.26-3.36"/><path class="cls-3" d="M125.48,45.73c0,3.49-2.83,6.32-6.32,6.32s-6.32-2.83-6.32-6.32,2.83-6.32,6.32-6.32,6.32,2.83,6.32,6.32"/><path class="cls-3" d="M115.5,33.94c1.03,.73,2.28,1.16,3.64,1.16s2.64-.44,3.67-1.19c-.82,.89-2.28,2.08-2.28,3.38s1.44,2.43,2.22,3.32c-1.03-.72-2.27-1.14-3.62-1.14s-2.57,.41-3.58,1.12c.77-.88,2.2-2.03,2.2-3.3s-1.46-2.47-2.26-3.36"/><path class="cls-3" d="M125.48,28.79c0,3.49-2.83,6.32-6.32,6.32s-6.32-2.83-6.32-6.32,2.83-6.32,6.32-6.32,6.32,2.83,6.32,6.32"/><path class="cls-3" d="M125.48,62.74c0,3.49-2.83,6.32-6.32,6.32s-6.32-2.83-6.32-6.32,2.83-6.32,6.32-6.32,6.32,2.83,6.32,6.32"/><text class="cls-6" transform="translate(.56 66.17)"><tspan x="0" y="0">co</tspan></text><text class="cls-6" transform="translate(180.76 66.17)"><tspan x="0" y="0">ect</tspan></text><text class="cls-4" transform="translate(293.25 66.17)"><tspan x="0" y="0">plus</tspan></text><path class="cls-3" d="M105.05,27.55c0,4.37-3.54,7.91-7.91,7.91s-7.91-3.54-7.91-7.91,3.54-7.91,7.91-7.91,7.91,3.54,7.91,7.91"/><path class="cls-3" d="M139.88,50.88c1.03,.73,2.28,1.16,3.64,1.16s2.64-.44,3.67-1.19c-.82,.89-2.28,2.08-2.28,3.38s1.44,2.43,2.22,3.32c-1.03-.72-2.27-1.14-3.62-1.14s-2.57,.42-3.58,1.12c.77-.88,2.2-2.03,2.2-3.3s-1.46-2.47-2.26-3.36"/><path class="cls-3" d="M149.86,45.73c0,3.49-2.83,6.32-6.32,6.32s-6.32-2.83-6.32-6.32,2.83-6.32,6.32-6.32,6.32,2.83,6.32,6.32"/><path class="cls-3" d="M138.48,34.22c1.03,.73,3.68,.88,5.03,.88s2.64-.44,3.67-1.19c-.82,.89-2.28,2.08-2.28,3.38s1.44,2.43,2.22,3.32c-1.02-.72-2.27-1.14-3.62-1.14s-2.57,.41-3.58,1.12c.77-.88,2.2-2.03,2.2-3.3s-2.85-2.19-3.65-3.08"/><path class="cls-3" d="M148.69,32.44c.73-1.03,1.16-2.28,1.16-3.64s-.6-5.05-1.34-6.08c.89,.82,3.32,4.59,5.51,4.69,1.27,.06,3.17-.45,5.29-2.22-.72,1.03-1.14,2.27-1.14,3.62s.42,2.57,1.12,3.59c-.88-.77-2.94-2.2-5.26-2.2-2.12,0-4.44,1.46-5.33,2.26"/><path class="cls-3" d="M149.86,28.79c0,3.49-2.83,6.32-6.32,6.32s-6.32-2.83-6.32-6.32,2.83-6.32,6.32-6.32,6.32,2.83,6.32,6.32"/><path class="cls-3" d="M149.86,62.74c0,3.49-2.83,6.32-6.32,6.32s-6.32-2.83-6.32-6.32,2.83-6.32,6.32-6.32,6.32,2.83,6.32,6.32"/><path class="cls-3" d="M160.8,50.88c1.03,.73,2.28,1.16,3.64,1.16s2.64-.44,3.67-1.19c-.82,.89-2.28,2.08-2.28,3.38s1.44,2.43,2.22,3.32c-1.02-.72-2.27-1.14-3.62-1.14s-2.57,.42-3.59,1.12c.77-.88,2.2-2.03,2.2-3.3s-1.46-2.47-2.26-3.36"/><path class="cls-3" d="M170.78,45.73c0,3.49-2.83,6.32-6.32,6.32s-6.32-2.83-6.32-6.32,2.83-6.32,6.32-6.32,6.32,2.83,6.32,6.32"/><path class="cls-3" d="M160.8,33.94c1.03,.73,2.28,1.16,3.64,1.16s2.64-.44,3.67-1.19c-.82,.89-2.28,2.08-2.28,3.38s1.44,2.43,2.22,3.32c-1.02-.72-2.27-1.14-3.62-1.14s-2.57,.41-3.59,1.12c.77-.88,2.2-2.03,2.2-3.3s-1.46-2.47-2.26-3.36"/><path class="cls-3" d="M170.78,28.79c0,3.49-2.83,6.32-6.32,6.32s-6.32-2.83-6.32-6.32,2.83-6.32,6.32-6.32,6.32,2.83,6.32,6.32"/><path class="cls-3" d="M170.78,62.74c0,3.49-2.83,6.32-6.32,6.32s-6.32-2.83-6.32-6.32,2.83-6.32,6.32-6.32,6.32,2.83,6.32,6.32"/><path class="cls-3" d="M150.35,27.55c0,4.37-3.54,7.91-7.91,7.91s-7.91-3.54-7.91-7.91,3.54-7.91,7.91-7.91,7.91,3.54,7.91,7.91"/></g></svg>