<?xml version="1.0" encoding="utf-8"?>
<!-- Generator: Adobe Illustrator 26.5.0, SVG Export Plug-In . SVG Version: 6.00 Build 0)  -->
<svg version="1.1" id="Ebene_1" xmlns="http://www.w3.org/2000/svg" xmlns:xlink="http://www.w3.org/1999/xlink" x="0px" y="0px"
	 viewBox="0 0 457.2 84.9" style="enable-background:new 0 0 457.2 84.9;" xml:space="preserve">
<style type="text/css">
	.st0{clip-path:url(#SVGID_00000088092512471953543800000016383059059685896330_);fill:#FFFFFF;}
	.st1{clip-path:url(#SVGID_00000088092512471953543800000016383059059685896330_);}
	.st2{fill:#FFFFFF;}
	.st3{font-family:'Neufreit-ExtraBold';}
	.st4{font-size:79px;}
</style>
<g>
	<defs>
		<rect id="SVGID_1_" y="0" width="457.2" height="84.9"/>
	</defs>
	<clipPath id="SVGID_00000008829430610032818730000012789312781136471998_">
		<use xlink:href="#SVGID_1_"  style="overflow:visible;"/>
	</clipPath>
	<path style="clip-path:url(#SVGID_00000008829430610032818730000012789312781136471998_);fill:#FFFFFF;" d="M94.6,49.2
		c1,0.7,2.3,1.2,3.6,1.2c1.4,0,2.6-0.4,3.7-1.2c-0.8,0.9-2.3,2.1-2.3,3.4c0,1.3,1.4,2.4,2.2,3.3c-1-0.7-2.3-1.1-3.6-1.1
		c-1.3,0-2.6,0.4-3.6,1.1c0.8-0.9,2.2-2,2.2-3.3C96.8,51.3,95.4,50.1,94.6,49.2"/>
	<path style="clip-path:url(#SVGID_00000008829430610032818730000012789312781136471998_);fill:#FFFFFF;" d="M104.6,44.1
		c0,3.5-2.8,6.3-6.3,6.3s-6.3-2.8-6.3-6.3c0-3.5,2.8-6.3,6.3-6.3S104.6,40.6,104.6,44.1"/>
	<path style="clip-path:url(#SVGID_00000008829430610032818730000012789312781136471998_);fill:#FFFFFF;" d="M93.2,32.6
		c1,0.7,3.7,0.9,5,0.9c1.4,0,2.6-0.4,3.7-1.2c-0.8,0.9-2.3,2.1-2.3,3.4c0,1.3,1.4,2.4,2.2,3.3c-1-0.7-2.3-1.1-3.6-1.1
		c-1.3,0-2.6,0.4-3.6,1.1c0.8-0.9,2.2-2,2.2-3.3C96.8,34.4,94,33.5,93.2,32.6"/>
	<path style="clip-path:url(#SVGID_00000008829430610032818730000012789312781136471998_);fill:#FFFFFF;" d="M103.4,30.8
		c0.7-1,1.2-2.3,1.2-3.6c0-1.4-0.6-5-1.3-6.1c0.9,0.8,3.3,4.6,5.5,4.7c1.3,0.1,3.2-0.5,5.3-2.2c-0.7,1-1.1,2.3-1.1,3.6
		c0,1.3,0.4,2.6,1.1,3.6c-0.9-0.8-2.9-2.2-5.3-2.2C106.6,28.5,104.3,30,103.4,30.8"/>
	<path style="clip-path:url(#SVGID_00000008829430610032818730000012789312781136471998_);fill:#FFFFFF;" d="M125.6,65.4
		c0.7-1,1.2-2.9,1.2-4.3c0-1.4-0.8-3.6-1.5-4.6c0.9,0.8,4.6,1.8,6.2,1.8c1.7,0,5.3-1,6.2-1.8c-0.7,1-1.6,3.2-1.6,4.5
		c0,1.3,0.5,3.2,1.2,4.2c-0.9-0.8-4.1-1.4-5.8-1.4C129.8,64,126.5,64.6,125.6,65.4"/>
	<path style="clip-path:url(#SVGID_00000008829430610032818730000012789312781136471998_);fill:#FFFFFF;" d="M80.2,49.1
		c0.5-1.6,0.7-3.7,0.7-5.1c0-1.4-0.4-4.3-0.8-5.5c0.9,0.8,4.6,1.6,5.9,1.6c1.3,0,5.3-0.8,6.2-1.6c-0.7,1-1.8,3.8-1.8,5.2
		c0,1.3,0.8,4.1,1.9,5.2c-0.9-0.8-4.7-1.3-6.2-1.3C84.4,47.6,81,48.3,80.2,49.1"/>
	<path style="clip-path:url(#SVGID_00000008829430610032818730000012789312781136471998_);fill:#FFFFFF;" d="M182.7,38.5
		c-0.5,1.6-0.8,3.9-0.8,5.3c0,1.4,0.1,4.1,0.5,5.3c-0.9-0.8-4.5-1.5-5.8-1.5c-1.3,0-5.8,0.8-6.6,1.6c0.7-1,2.3-2.5,2.3-5.3
		c0-2.2-1.2-4.3-2.3-5.4c0.9,0.8,5.3,1.5,6.8,1.5C178.4,40.1,181.8,39.4,182.7,38.5"/>
	<path style="clip-path:url(#SVGID_00000008829430610032818730000012789312781136471998_);fill:#FFFFFF;" d="M104.6,27.1
		c0,3.5-2.8,6.3-6.3,6.3s-6.3-2.8-6.3-6.3c0-3.5,2.8-6.3,6.3-6.3S104.6,23.7,104.6,27.1"/>
	<path style="clip-path:url(#SVGID_00000008829430610032818730000012789312781136471998_);fill:#FFFFFF;" d="M104.6,61.1
		c0,3.5-2.8,6.3-6.3,6.3s-6.3-2.8-6.3-6.3c0-3.5,2.8-6.3,6.3-6.3S104.6,57.6,104.6,61.1"/>
	<path style="clip-path:url(#SVGID_00000008829430610032818730000012789312781136471998_);fill:#FFFFFF;" d="M115.5,49.2
		c1,0.7,2.3,1.2,3.6,1.2c1.4,0,2.6-0.4,3.7-1.2c-0.8,0.9-2.3,2.1-2.3,3.4c0,1.3,1.4,2.4,2.2,3.3c-1-0.7-2.3-1.1-3.6-1.1
		c-1.3,0-2.6,0.4-3.6,1.1c0.8-0.9,2.2-2,2.2-3.3C117.8,51.3,116.3,50.1,115.5,49.2"/>
	<path style="clip-path:url(#SVGID_00000008829430610032818730000012789312781136471998_);fill:#FFFFFF;" d="M125.5,44.1
		c0,3.5-2.8,6.3-6.3,6.3c-3.5,0-6.3-2.8-6.3-6.3c0-3.5,2.8-6.3,6.3-6.3C122.6,37.8,125.5,40.6,125.5,44.1"/>
	<path style="clip-path:url(#SVGID_00000008829430610032818730000012789312781136471998_);fill:#FFFFFF;" d="M115.5,32.3
		c1,0.7,2.3,1.2,3.6,1.2c1.4,0,2.6-0.4,3.7-1.2c-0.8,0.9-2.3,2.1-2.3,3.4c0,1.3,1.4,2.4,2.2,3.3c-1-0.7-2.3-1.1-3.6-1.1
		c-1.3,0-2.6,0.4-3.6,1.1c0.8-0.9,2.2-2,2.2-3.3C117.8,34.4,116.3,33.2,115.5,32.3"/>
	<path style="clip-path:url(#SVGID_00000008829430610032818730000012789312781136471998_);fill:#FFFFFF;" d="M125.5,27.1
		c0,3.5-2.8,6.3-6.3,6.3c-3.5,0-6.3-2.8-6.3-6.3c0-3.5,2.8-6.3,6.3-6.3C122.6,20.8,125.5,23.7,125.5,27.1"/>
	<path style="clip-path:url(#SVGID_00000008829430610032818730000012789312781136471998_);fill:#FFFFFF;" d="M125.5,61.1
		c0,3.5-2.8,6.3-6.3,6.3c-3.5,0-6.3-2.8-6.3-6.3c0-3.5,2.8-6.3,6.3-6.3C122.6,54.8,125.5,57.6,125.5,61.1"/>
	<g style="clip-path:url(#SVGID_00000008829430610032818730000012789312781136471998_);">
		<text transform="matrix(1 0 0 1 0.5562 64.5296)" class="st2 st3 st4">co</text>
	</g>
	<g style="clip-path:url(#SVGID_00000008829430610032818730000012789312781136471998_);">
		<text transform="matrix(1 0 0 1 180.7554 64.5296)" class="st2 st3 st4">ect</text>
	</g>
	<g style="clip-path:url(#SVGID_00000008829430610032818730000012789312781136471998_);">
		<text transform="matrix(1 0 0 1 293.251 64.5296)" class="st2 st3 st4">plus</text>
	</g>
	<path style="clip-path:url(#SVGID_00000008829430610032818730000012789312781136471998_);fill:#FFFFFF;" d="M105,25.9
		c0,4.4-3.5,7.9-7.9,7.9c-4.4,0-7.9-3.5-7.9-7.9s3.5-7.9,7.9-7.9C101.5,18,105,21.5,105,25.9"/>
	<path style="clip-path:url(#SVGID_00000008829430610032818730000012789312781136471998_);fill:#FFFFFF;" d="M139.9,49.2
		c1,0.7,2.3,1.2,3.6,1.2c1.4,0,2.6-0.4,3.7-1.2c-0.8,0.9-2.3,2.1-2.3,3.4c0,1.3,1.4,2.4,2.2,3.3c-1-0.7-2.3-1.1-3.6-1.1
		c-1.3,0-2.6,0.4-3.6,1.1c0.8-0.9,2.2-2,2.2-3.3C142.1,51.3,140.7,50.1,139.9,49.2"/>
	<path style="clip-path:url(#SVGID_00000008829430610032818730000012789312781136471998_);fill:#FFFFFF;" d="M149.9,44.1
		c0,3.5-2.8,6.3-6.3,6.3c-3.5,0-6.3-2.8-6.3-6.3c0-3.5,2.8-6.3,6.3-6.3C147,37.8,149.9,40.6,149.9,44.1"/>
	<path style="clip-path:url(#SVGID_00000008829430610032818730000012789312781136471998_);fill:#FFFFFF;" d="M138.5,32.6
		c1,0.7,3.7,0.9,5,0.9c1.4,0,2.6-0.4,3.7-1.2c-0.8,0.9-2.3,2.1-2.3,3.4c0,1.3,1.4,2.4,2.2,3.3c-1-0.7-2.3-1.1-3.6-1.1
		c-1.3,0-2.6,0.4-3.6,1.1c0.8-0.9,2.2-2,2.2-3.3C142.1,34.4,139.3,33.5,138.5,32.6"/>
	<path style="clip-path:url(#SVGID_00000008829430610032818730000012789312781136471998_);fill:#FFFFFF;" d="M148.7,30.8
		c0.7-1,1.2-2.3,1.2-3.6c0-1.4-0.6-5-1.3-6.1c0.9,0.8,3.3,4.6,5.5,4.7c1.3,0.1,3.2-0.5,5.3-2.2c-0.7,1-1.1,2.3-1.1,3.6
		c0,1.3,0.4,2.6,1.1,3.6c-0.9-0.8-2.9-2.2-5.3-2.2C151.9,28.5,149.6,30,148.7,30.8"/>
	<path style="clip-path:url(#SVGID_00000008829430610032818730000012789312781136471998_);fill:#FFFFFF;" d="M149.9,27.1
		c0,3.5-2.8,6.3-6.3,6.3c-3.5,0-6.3-2.8-6.3-6.3c0-3.5,2.8-6.3,6.3-6.3C147,20.8,149.9,23.7,149.9,27.1"/>
	<path style="clip-path:url(#SVGID_00000008829430610032818730000012789312781136471998_);fill:#FFFFFF;" d="M149.9,61.1
		c0,3.5-2.8,6.3-6.3,6.3c-3.5,0-6.3-2.8-6.3-6.3c0-3.5,2.8-6.3,6.3-6.3C147,54.8,149.9,57.6,149.9,61.1"/>
	<path style="clip-path:url(#SVGID_00000008829430610032818730000012789312781136471998_);fill:#FFFFFF;" d="M160.8,49.2
		c1,0.7,2.3,1.2,3.6,1.2c1.4,0,2.6-0.4,3.7-1.2c-0.8,0.9-2.3,2.1-2.3,3.4c0,1.3,1.4,2.4,2.2,3.3c-1-0.7-2.3-1.1-3.6-1.1
		c-1.3,0-2.6,0.4-3.6,1.1c0.8-0.9,2.2-2,2.2-3.3C163.1,51.3,161.6,50.1,160.8,49.2"/>
	<path style="clip-path:url(#SVGID_00000008829430610032818730000012789312781136471998_);fill:#FFFFFF;" d="M170.8,44.1
		c0,3.5-2.8,6.3-6.3,6.3c-3.5,0-6.3-2.8-6.3-6.3c0-3.5,2.8-6.3,6.3-6.3C167.9,37.8,170.8,40.6,170.8,44.1"/>
	<path style="clip-path:url(#SVGID_00000008829430610032818730000012789312781136471998_);fill:#FFFFFF;" d="M160.8,32.3
		c1,0.7,2.3,1.2,3.6,1.2c1.4,0,2.6-0.4,3.7-1.2c-0.8,0.9-2.3,2.1-2.3,3.4c0,1.3,1.4,2.4,2.2,3.3c-1-0.7-2.3-1.1-3.6-1.1
		c-1.3,0-2.6,0.4-3.6,1.1c0.8-0.9,2.2-2,2.2-3.3C163.1,34.4,161.6,33.2,160.8,32.3"/>
	<path style="clip-path:url(#SVGID_00000008829430610032818730000012789312781136471998_);fill:#FFFFFF;" d="M170.8,27.1
		c0,3.5-2.8,6.3-6.3,6.3c-3.5,0-6.3-2.8-6.3-6.3c0-3.5,2.8-6.3,6.3-6.3C167.9,20.8,170.8,23.7,170.8,27.1"/>
	<path style="clip-path:url(#SVGID_00000008829430610032818730000012789312781136471998_);fill:#FFFFFF;" d="M170.8,61.1
		c0,3.5-2.8,6.3-6.3,6.3c-3.5,0-6.3-2.8-6.3-6.3c0-3.5,2.8-6.3,6.3-6.3C167.9,54.8,170.8,57.6,170.8,61.1"/>
	<path style="clip-path:url(#SVGID_00000008829430610032818730000012789312781136471998_);fill:#FFFFFF;" d="M150.3,25.9
		c0,4.4-3.5,7.9-7.9,7.9s-7.9-3.5-7.9-7.9s3.5-7.9,7.9-7.9S150.3,21.5,150.3,25.9"/>
</g>
</svg>
